SplineFontDB: 3.0
FontName: Orbitron-Light
FullName: Orbitron Light
FamilyName: Orbitron
Weight: Light
Copyright: Copyright (c) 2009, Matt McInerney <matt@pixelspread.com>
Version: 1.000
ItalicAngle: 0
UnderlinePosition: -51.2
UnderlineWidth: 51.2
Ascent: 768
Descent: 256
sfntRevision: 0x00010000
LayerCount: 2
Layer: 0 1 "Back"  1
Layer: 1 1 "Fore"  0
XUID: [1021 496 529952750 14360589]
FSType: 4
OS2Version: 3
OS2_WeightWidthSlopeOnly: 0
OS2_UseTypoMetrics: 1
CreationTime: 1248674940
ModificationTime: 1291111810
PfmFamily: 17
TTFWeight: 300
TTFWidth: 5
LineGap: 0
VLineGap: 0
Panose: 2 0 0 0 0 0 0 0 0 0
OS2TypoAscent: 0
OS2TypoAOffset: 1
OS2TypoDescent: 0
OS2TypoDOffset: 1
OS2TypoLinegap: 0
OS2WinAscent: 0
OS2WinAOffset: 1
OS2WinDescent: 0
OS2WinDOffset: 1
HheadAscent: -267
HheadAOffset: 1
HheadDescent: -7
HheadDOffset: 1
OS2SubXSize: 717
OS2SubYSize: 666
OS2SubXOff: 0
OS2SubYOff: 143
OS2SupXSize: 717
OS2SupYSize: 666
OS2SupXOff: 0
OS2SupYOff: 488
OS2StrikeYSize: 51
OS2StrikeYPos: 256
OS2Vendor: 'pyrs'
OS2CodePages: 00000001.00000000
OS2UnicodeRanges: 80000027.18000042.14000000.00000000
Lookup: 1 0 0 "'aalt' Access All Alternates in Latin lookup 0"  {"'aalt' Access All Alternates in Latin lookup 0 subtable"  } ['aalt' ('latn' <'dflt' > ) ]
Lookup: 3 0 0 "'aalt' Access All Alternates in Latin lookup 1"  {"'aalt' Access All Alternates in Latin lookup 1 subtable"  } ['aalt' ('latn' <'dflt' > ) ]
Lookup: 1 0 0 "'salt' Stylistic Alternatives in Latin lookup 2"  {"'salt' Stylistic Alternatives in Latin lookup 2 subtable"  } ['salt' ('latn' <'dflt' > ) ]
Lookup: 1 0 0 "'smcp' Lowercase to Small Capitals in Latin lookup 3"  {"'smcp' Lowercase to Small Capitals in Latin lookup 3 subtable"  } ['smcp' ('latn' <'dflt' > ) ]
Lookup: 1 0 0 "'ss01' Style Set 1 in Latin lookup 4"  {"'ss01' Style Set 1 in Latin lookup 4 subtable"  } ['ss01' ('latn' <'dflt' > ) ]

StartChar: A.alt3
Encoding: 65539 -1 4
Width: 846
Flags: W
HStem: 0 21G<-29 81.5 748.449 857> 187 83<225 602> 717 20G<341 512.5>
LayerCount: 2
Fore
SplineSet
760 0 m 1,0,-1
 652 187 l 1,1,-1
 177 187 l 1,2,3
 152 142 152 142 123 93.5 c 128,-1,4
 94 45 94 45 69 0 c 1,5,-1
 -29 0 l 1,6,7
 21 95 21 95 70.5 186.5 c 128,-1,8
 120 278 120 278 168.5 368.5 c 128,-1,9
 217 459 217 459 266 550.5 c 128,-1,10
 315 642 315 642 367 737 c 1,11,-1
 463 737 l 1,12,13
 562 550 562 550 660 368.5 c 128,-1,14
 758 187 758 187 857 0 c 1,15,-1
 760 0 l 1,0,-1
225 270 m 1,16,-1
 602 270 l 1,17,-1
 415 659 l 1,18,-1
 225 270 l 1,16,-1
EndSplineSet
EndChar

StartChar: AE
Encoding: 198 198 5
Width: 1408
Flags: W
HStem: 0 83<793 1382> 269 83<138 710> 327 84<793 1267> 654 83<150.376 705.77 793 1382>
VStem: 55 83<0 269 352 642.139> 710 83<83 269 411 649.77>
LayerCount: 2
Fore
SplineSet
793 411 m 1,0,-1
 1267 411 l 1,1,-1
 1267 327 l 1,2,-1
 793 327 l 1,3,-1
 793 83 l 1,4,-1
 1382 83 l 1,5,-1
 1382 0 l 1,6,-1
 710 0 l 1,7,-1
 710 269 l 1,8,-1
 138 269 l 1,9,-1
 138 0 l 1,10,-1
 55 0 l 1,11,-1
 55 614 l 2,12,13
 55 640 55 640 65 662.5 c 128,-1,14
 75 685 75 685 91.5 701.5 c 128,-1,15
 108 718 108 718 130.5 727.5 c 128,-1,16
 153 737 153 737 178 737 c 2,17,-1
 1382 737 l 1,18,-1
 1382 654 l 1,19,-1
 793 654 l 1,20,-1
 793 411 l 1,0,-1
710 614 m 2,21,22
 710 630 710 630 698 642 c 128,-1,23
 686 654 686 654 670 654 c 2,24,-1
 178 654 l 2,25,26
 162 654 162 654 150 642.5 c 128,-1,27
 138 631 138 631 138 614 c 2,28,-1
 138 352 l 1,29,-1
 710 352 l 1,30,-1
 710 614 l 2,21,22
EndSplineSet
EndChar

StartChar: B
Encoding: 66 66 12
Width: 851
Flags: W
HStem: 0 83<147.23 702.624> 335 83<147.23 670.14> 654 83<155.376 677.832>
VStem: 60 83<87.2305 330.77 422.23 642.139> 682 84<429.861 649.567> 715 83<94.8607 330.471>
LayerCount: 2
Fore
SplineSet
757 386 m 1,0,1
 775 369 775 369 786.5 345.5 c 128,-1,2
 798 322 798 322 798 295 c 2,3,-1
 798 123 l 2,4,5
 798 97 798 97 788 74.5 c 128,-1,6
 778 52 778 52 761.5 35.5 c 128,-1,7
 745 19 745 19 722.5 9.5 c 128,-1,8
 700 0 700 0 675 0 c 2,9,-1
 60 0 l 1,10,-1
 60 737 l 1,11,-1
 643 737 l 2,12,13
 669 737 669 737 691.5 727.5 c 128,-1,14
 714 718 714 718 730 701.5 c 128,-1,15
 746 685 746 685 756 662.5 c 128,-1,16
 766 640 766 640 766 614 c 2,17,-1
 766 458 l 2,18,19
 766 430 766 430 753 403 c 1,20,-1
 757 386 l 1,0,1
183 654 m 2,21,22
 167 654 167 654 155 642.5 c 128,-1,23
 143 631 143 631 143 614 c 2,24,-1
 143 458 l 2,25,26
 143 442 143 442 155 430 c 128,-1,27
 167 418 167 418 183 418 c 2,28,-1
 643 418 l 2,29,30
 659 418 659 418 670.5 429.5 c 128,-1,31
 682 441 682 441 682 458 c 2,32,-1
 682 614 l 2,33,34
 682 630 682 630 670.5 642 c 128,-1,35
 659 654 659 654 643 654 c 2,36,-1
 183 654 l 2,21,22
715 295 m 2,37,38
 715 311 715 311 703 323 c 128,-1,39
 691 335 691 335 675 335 c 2,40,-1
 183 335 l 2,41,42
 167 335 167 335 155 323 c 128,-1,43
 143 311 143 311 143 295 c 2,44,-1
 143 123 l 2,45,46
 143 107 143 107 155 95 c 128,-1,47
 167 83 167 83 183 83 c 2,48,-1
 675 83 l 2,49,50
 691 83 691 83 703 94.5 c 128,-1,51
 715 106 715 106 715 123 c 2,52,-1
 715 295 l 2,37,38
EndSplineSet
EndChar

StartChar: C
Encoding: 67 67 13
Width: 841
Flags: W
HStem: 0 83<144.691 793> 654 83<152.376 793>
VStem: 57 83<87.4331 642.139>
LayerCount: 2
Fore
SplineSet
180 654 m 2,0,1
 164 654 164 654 152 642.5 c 128,-1,2
 140 631 140 631 140 614 c 2,3,-1
 140 123 l 2,4,5
 140 107 140 107 152 95 c 128,-1,6
 164 83 164 83 180 83 c 2,7,-1
 793 83 l 1,8,-1
 793 0 l 1,9,-1
 180 0 l 2,10,11
 154 0 154 0 132 9.5 c 128,-1,12
 110 19 110 19 93.5 35.5 c 128,-1,13
 77 52 77 52 67 74.5 c 128,-1,14
 57 97 57 97 57 123 c 2,15,-1
 57 614 l 2,16,17
 57 640 57 640 67 662.5 c 128,-1,18
 77 685 77 685 93.5 701.5 c 128,-1,19
 110 718 110 718 132.5 727.5 c 128,-1,20
 155 737 155 737 180 737 c 2,21,-1
 793 737 l 1,22,-1
 793 654 l 1,23,-1
 180 654 l 2,0,1
EndSplineSet
Substitution2: "'salt' Stylistic Alternatives in Latin lookup 2 subtable" C.alt
Substitution2: "'aalt' Access All Alternates in Latin lookup 0 subtable" C.alt
EndChar

StartChar: C.alt
Encoding: 65540 -1 14
Width: 841
Flags: W
HStem: 0 83<140.433 708.715> 654 83<148.376 708.715>
VStem: 53 83<87.4331 642.139> 709 79<83.125 199 539 653.875>
LayerCount: 2
Fore
SplineSet
792 539 m 1,0,-1
 709 539 l 1,1,-1
 709 654 l 1,2,-1
 176 654 l 2,3,4
 160 654 160 654 148 642.5 c 128,-1,5
 136 631 136 631 136 614 c 2,6,-1
 136 123 l 2,7,8
 136 107 136 107 148 95 c 128,-1,9
 160 83 160 83 176 83 c 2,10,-1
 709 83 l 1,11,-1
 709 199 l 1,12,-1
 788 199 l 1,13,-1
 788 102 l 1,14,15
 782 83 782 83 770.5 64.5 c 128,-1,16
 759 46 759 46 743 31.5 c 128,-1,17
 727 17 727 17 707.5 8.5 c 128,-1,18
 688 0 688 0 668 0 c 2,19,-1
 176 0 l 2,20,21
 150 0 150 0 127.5 9.5 c 128,-1,22
 105 19 105 19 89 35.5 c 128,-1,23
 73 52 73 52 63 74.5 c 128,-1,24
 53 97 53 97 53 123 c 2,25,-1
 53 614 l 2,26,27
 53 640 53 640 63 662.5 c 128,-1,28
 73 685 73 685 89 701.5 c 128,-1,29
 105 718 105 718 128 727.5 c 128,-1,30
 151 737 151 737 176 737 c 2,31,-1
 668 737 l 2,32,33
 688 737 688 737 707.5 728.5 c 128,-1,34
 727 720 727 720 743 705.5 c 128,-1,35
 759 691 759 691 770.5 672.5 c 128,-1,36
 782 654 782 654 788 635 c 1,37,-1
 792 539 l 1,0,-1
EndSplineSet
EndChar

StartChar: A.alt
Encoding: 57355 57355 15
Width: 792
Flags: W
HStem: 0 21G<4 130.812 660 745> 207 85<359 660> 718 20G<614.008 745>
VStem: 660 85<0 207 292 644>
LayerCount: 2
Fore
SplineSet
4 0 m 1,0,-1
 631 738 l 1,1,-1
 745 738 l 1,2,-1
 745 0 l 1,3,-1
 660 0 l 1,4,-1
 660 207 l 1,5,-1
 288 207 l 1,6,-1
 114 0 l 1,7,-1
 4 0 l 1,0,-1
359 292 m 1,8,-1
 660 292 l 1,9,-1
 660 644 l 1,10,-1
 359 292 l 1,8,-1
EndSplineSet
EndChar

StartChar: Ccedilla
Encoding: 199 199 16
Width: 841
Flags: W
HStem: 0 83<144.691 381 462 793> 654 83<152.376 793>
VStem: 57 83<87.4331 642.139>
LayerCount: 2
Fore
SplineSet
180 654 m 2,0,1
 164 654 164 654 152 642.5 c 128,-1,2
 140 631 140 631 140 614 c 2,3,-1
 140 123 l 2,4,5
 140 107 140 107 152 95 c 128,-1,6
 164 83 164 83 180 83 c 2,7,-1
 793 83 l 1,8,-1
 793 0 l 1,9,-1
 462 0 l 1,10,-1
 427 -142 l 1,11,-1
 345 -142 l 1,12,-1
 381 0 l 1,13,-1
 180 0 l 2,14,15
 154 0 154 0 132 9.5 c 128,-1,16
 110 19 110 19 93.5 35.5 c 128,-1,17
 77 52 77 52 67 74.5 c 128,-1,18
 57 97 57 97 57 123 c 2,19,-1
 57 614 l 2,20,21
 57 640 57 640 67 662.5 c 128,-1,22
 77 685 77 685 93.5 701.5 c 128,-1,23
 110 718 110 718 132.5 727.5 c 128,-1,24
 155 737 155 737 180 737 c 2,25,-1
 793 737 l 1,26,-1
 793 654 l 1,27,-1
 180 654 l 2,0,1
EndSplineSet
EndChar

StartChar: D
Encoding: 68 68 17
Width: 854
Flags: W
HStem: 0 83<146.23 701.624> 654 83<154.376 709.309>
VStem: 59 83<87.2305 642.139> 714 83<94.8607 649.567>
LayerCount: 2
Fore
SplineSet
674 737 m 2,0,1
 700 737 700 737 722 727.5 c 128,-1,2
 744 718 744 718 760.5 701.5 c 128,-1,3
 777 685 777 685 787 662.5 c 128,-1,4
 797 640 797 640 797 614 c 2,5,-1
 797 123 l 2,6,7
 797 97 797 97 787 74.5 c 128,-1,8
 777 52 777 52 760.5 35.5 c 128,-1,9
 744 19 744 19 721.5 9.5 c 128,-1,10
 699 0 699 0 674 0 c 2,11,-1
 59 0 l 1,12,-1
 59 737 l 1,13,-1
 674 737 l 2,0,1
714 614 m 2,14,15
 714 630 714 630 702 642 c 128,-1,16
 690 654 690 654 674 654 c 2,17,-1
 182 654 l 2,18,19
 166 654 166 654 154 642.5 c 128,-1,20
 142 631 142 631 142 614 c 2,21,-1
 142 123 l 2,22,23
 142 107 142 107 154 95 c 128,-1,24
 166 83 166 83 182 83 c 2,25,-1
 674 83 l 2,26,27
 690 83 690 83 702 94.5 c 128,-1,28
 714 106 714 106 714 123 c 2,29,-1
 714 614 l 2,14,15
EndSplineSet
EndChar

StartChar: E
Encoding: 69 69 18
Width: 784
Flags: W
HStem: 0 83<142 732> 327 84<142 616> 654 83<142 732>
VStem: 59 83<83 327 411 654>
LayerCount: 2
Fore
SplineSet
732 654 m 1,0,-1
 142 654 l 1,1,-1
 142 411 l 1,2,-1
 616 411 l 1,3,-1
 616 327 l 1,4,-1
 142 327 l 1,5,-1
 142 83 l 1,6,-1
 732 83 l 1,7,-1
 732 0 l 1,8,-1
 59 0 l 1,9,-1
 59 737 l 1,10,-1
 732 737 l 1,11,-1
 732 654 l 1,0,-1
EndSplineSet
EndChar

StartChar: Euro
Encoding: 8364 8364 23
Width: 818
Flags: W
HStem: 0 84<232.503 779> 236 83<36 143 228 663> 425 85<36 143 228 663> 653 85<240.376 779>
VStem: 143 85<88.4331 236 319 425 510 641.139>
LayerCount: 2
Fore
SplineSet
779 84 m 1,0,-1
 779 0 l 1,1,-1
 268 0 l 2,2,3
 241 0 241 0 219 9.5 c 128,-1,4
 197 19 197 19 180 36 c 128,-1,5
 163 53 163 53 153 75.5 c 128,-1,6
 143 98 143 98 143 124 c 2,7,-1
 143 236 l 1,8,-1
 36 236 l 1,9,-1
 36 319 l 1,10,-1
 143 319 l 1,11,-1
 143 425 l 1,12,-1
 36 425 l 1,13,-1
 36 510 l 1,14,-1
 143 510 l 1,15,-1
 143 613 l 2,16,17
 143 639 143 639 153 662 c 128,-1,18
 163 685 163 685 180 702 c 128,-1,19
 197 719 197 719 219.5 728.5 c 128,-1,20
 242 738 242 738 268 738 c 2,21,-1
 779 738 l 1,22,-1
 779 653 l 1,23,-1
 268 653 l 2,24,25
 252 653 252 653 240 641.5 c 128,-1,26
 228 630 228 630 228 613 c 2,27,-1
 228 510 l 1,28,-1
 663 510 l 1,29,-1
 663 425 l 1,30,-1
 228 425 l 1,31,-1
 228 319 l 1,32,-1
 663 319 l 1,33,-1
 663 236 l 1,34,-1
 228 236 l 1,35,-1
 228 124 l 2,36,37
 228 108 228 108 240 96 c 128,-1,38
 252 84 252 84 268 84 c 2,39,-1
 779 84 l 1,0,-1
EndSplineSet
EndChar

StartChar: F
Encoding: 70 70 24
Width: 740
Flags: W
HStem: 0 21G<59 142> 327 84<142 616> 654 83<142 732>
VStem: 59 83<0 327 411 654>
LayerCount: 2
Fore
SplineSet
732 737 m 1,0,-1
 732 654 l 1,1,-1
 142 654 l 1,2,-1
 142 411 l 1,3,-1
 616 411 l 1,4,-1
 616 327 l 1,5,-1
 142 327 l 1,6,-1
 142 0 l 1,7,-1
 59 0 l 1,8,-1
 59 737 l 1,9,-1
 732 737 l 1,0,-1
EndSplineSet
EndChar

StartChar: G
Encoding: 71 71 25
Width: 849
Flags: W
HStem: 0 83<144.691 699.624> 305 84<529 712> 654 83<152.376 707.309>
VStem: 57 83<87.4331 642.139> 712 83<94.8607 305 585 649.567>
LayerCount: 2
Fore
SplineSet
795 585 m 1,0,-1
 712 585 l 1,1,-1
 712 614 l 2,2,3
 712 630 712 630 700 642 c 128,-1,4
 688 654 688 654 672 654 c 2,5,-1
 180 654 l 2,6,7
 164 654 164 654 152 642.5 c 128,-1,8
 140 631 140 631 140 614 c 2,9,-1
 140 123 l 2,10,11
 140 107 140 107 152 95 c 128,-1,12
 164 83 164 83 180 83 c 2,13,-1
 672 83 l 2,14,15
 688 83 688 83 700 94.5 c 128,-1,16
 712 106 712 106 712 123 c 2,17,-1
 712 305 l 1,18,-1
 529 305 l 1,19,-1
 529 389 l 1,20,-1
 795 389 l 1,21,-1
 795 123 l 2,22,23
 795 97 795 97 785 74.5 c 128,-1,24
 775 52 775 52 758.5 35.5 c 128,-1,25
 742 19 742 19 719.5 9.5 c 128,-1,26
 697 0 697 0 672 0 c 2,27,-1
 180 0 l 2,28,29
 154 0 154 0 132 9.5 c 128,-1,30
 110 19 110 19 93.5 35.5 c 128,-1,31
 77 52 77 52 67 74.5 c 128,-1,32
 57 97 57 97 57 123 c 2,33,-1
 57 614 l 2,34,35
 57 640 57 640 67 662.5 c 128,-1,36
 77 685 77 685 93.5 701.5 c 128,-1,37
 110 718 110 718 132.5 727.5 c 128,-1,38
 155 737 155 737 180 737 c 2,39,-1
 672 737 l 2,40,41
 698 737 698 737 720 727.5 c 128,-1,42
 742 718 742 718 758.5 701.5 c 128,-1,43
 775 685 775 685 785 662.5 c 128,-1,44
 795 640 795 640 795 614 c 2,45,-1
 795 585 l 1,0,-1
EndSplineSet
EndChar

StartChar: H
Encoding: 72 72 26
Width: 871
Flags: W
HStem: 0 21G<58 141 730 814> 327 84<141 730> 717 20G<58 141 730 814>
VStem: 58 83<0 327 411 737> 730 84<0 327 411 737>
LayerCount: 2
Fore
SplineSet
814 737 m 1,0,-1
 814 0 l 1,1,-1
 730 0 l 1,2,-1
 730 327 l 1,3,-1
 141 327 l 1,4,-1
 141 0 l 1,5,-1
 58 0 l 1,6,-1
 58 737 l 1,7,-1
 141 737 l 1,8,-1
 141 411 l 1,9,-1
 730 411 l 1,10,-1
 730 737 l 1,11,-1
 814 737 l 1,0,-1
EndSplineSet
EndChar

StartChar: I
Encoding: 73 73 27
Width: 225
Flags: W
HStem: 0 21G<58 141> 717 20G<58 141>
VStem: 58 83<0 737>
LayerCount: 2
Fore
SplineSet
58 737 m 1,0,-1
 141 737 l 1,1,-1
 141 0 l 1,2,-1
 58 0 l 1,3,-1
 58 737 l 1,0,-1
EndSplineSet
Substitution2: "'salt' Stylistic Alternatives in Latin lookup 2 subtable" I.alt
Substitution2: "'aalt' Access All Alternates in Latin lookup 0 subtable" I.alt
EndChar

StartChar: I.alt
Encoding: 65541 -1 28
Width: 837
Flags: W
HStem: 0 83<50 377 461 787> 654 83<50 377 461 787>
VStem: 377 84<83 654>
LayerCount: 2
Fore
SplineSet
787 654 m 1,0,-1
 461 654 l 1,1,-1
 461 83 l 1,2,-1
 787 83 l 1,3,-1
 787 0 l 1,4,-1
 50 0 l 1,5,-1
 50 83 l 1,6,-1
 377 83 l 1,7,-1
 377 654 l 1,8,-1
 50 654 l 1,9,-1
 50 737 l 1,10,-1
 787 737 l 1,11,-1
 787 654 l 1,0,-1
EndSplineSet
EndChar

StartChar: J
Encoding: 74 74 33
Width: 798
Flags: W
HStem: 0 83<91.4331 645.624> 717 20G<658 741>
VStem: 4 83<87.4331 181> 658 83<94.8607 737>
LayerCount: 2
Fore
SplineSet
658 737 m 1,0,-1
 741 737 l 1,1,-1
 741 123 l 2,2,3
 741 97 741 97 731.5 74.5 c 128,-1,4
 722 52 722 52 705.5 35.5 c 128,-1,5
 689 19 689 19 666.5 9.5 c 128,-1,6
 644 0 644 0 618 0 c 2,7,-1
 127 0 l 2,8,9
 101 0 101 0 78.5 9.5 c 128,-1,10
 56 19 56 19 40 35.5 c 128,-1,11
 24 52 24 52 14 74.5 c 128,-1,12
 4 97 4 97 4 123 c 2,13,-1
 4 181 l 1,14,-1
 87 181 l 1,15,-1
 87 123 l 2,16,17
 87 107 87 107 99 95 c 128,-1,18
 111 83 111 83 127 83 c 2,19,-1
 618 83 l 2,20,21
 634 83 634 83 646 94.5 c 128,-1,22
 658 106 658 106 658 123 c 2,23,-1
 658 737 l 1,0,-1
EndSplineSet
Substitution2: "'salt' Stylistic Alternatives in Latin lookup 2 subtable" J.alt
Substitution2: "'aalt' Access All Alternates in Latin lookup 0 subtable" J.alt
EndChar

StartChar: J.alt
Encoding: 65542 -1 34
Width: 660
Flags: W
HStem: 0 83<3 506.14> 717 20G<518 602>
VStem: 518 84<94.8607 737>
LayerCount: 2
Fore
SplineSet
518 737 m 1,0,-1
 602 737 l 1,1,-1
 602 123 l 2,2,3
 602 97 602 97 592.5 74.5 c 128,-1,4
 583 52 583 52 566 35.5 c 128,-1,5
 549 19 549 19 527 9.5 c 128,-1,6
 505 0 505 0 479 0 c 2,7,-1
 3 0 l 1,8,-1
 3 83 l 1,9,-1
 479 83 l 2,10,11
 495 83 495 83 506.5 94.5 c 128,-1,12
 518 106 518 106 518 123 c 2,13,-1
 518 737 l 1,0,-1
EndSplineSet
EndChar

StartChar: K
Encoding: 75 75 35
Width: 816
Flags: W
HStem: 0 21G<58 142 637.242 762> 327 84<142 380> 717 20G<58 142 620.5 761>
VStem: 58 84<0 327 411 737>
LayerCount: 2
Fore
SplineSet
761 737 m 1,0,-1
 453 369 l 1,1,-1
 762 0 l 1,2,-1
 654 0 l 1,3,-1
 380 327 l 1,4,-1
 142 327 l 1,5,-1
 142 0 l 1,6,-1
 58 0 l 1,7,-1
 58 737 l 1,8,-1
 142 737 l 1,9,-1
 142 411 l 1,10,-1
 380 411 l 1,11,12
 448 491 448 491 517.5 574 c 128,-1,13
 587 657 587 657 654 737 c 1,14,-1
 761 737 l 1,0,-1
EndSplineSet
Substitution2: "'salt' Stylistic Alternatives in Latin lookup 2 subtable" K.alt
Substitution2: "'aalt' Access All Alternates in Latin lookup 0 subtable" K.alt
EndChar

StartChar: K.alt
Encoding: 65543 -1 36
Width: 848
Flags: W
HStem: 0 21G<55 138 710 793> 324 42<651 704.832> 366 42<651 698.624> 717 20G<55 138 711 794>
VStem: 55 83<0 319.77 419.345 737> 711 83<0 311.43 419.345 737>
LayerCount: 2
Fore
SplineSet
711 737 m 1,0,-1
 794 737 l 1,1,-1
 794 468 l 2,2,3
 794 452 794 452 783.5 434 c 128,-1,4
 773 416 773 416 754 400.5 c 128,-1,5
 735 385 735 385 709 375.5 c 128,-1,6
 683 366 683 366 651 366 c 1,7,8
 683 366 683 366 709 355.5 c 128,-1,9
 735 345 735 345 753.5 329.5 c 128,-1,10
 772 314 772 314 782.5 296.5 c 128,-1,11
 793 279 793 279 793 263 c 2,12,-1
 793 0 l 1,13,-1
 710 0 l 1,14,-1
 710 285 l 2,15,16
 710 300 710 300 698 312 c 128,-1,17
 686 324 686 324 670 324 c 2,18,-1
 178 324 l 2,19,20
 162 324 162 324 150 312 c 128,-1,21
 138 300 138 300 138 285 c 2,22,-1
 138 0 l 1,23,-1
 55 0 l 1,24,-1
 55 737 l 1,25,-1
 138 737 l 1,26,-1
 138 446 l 2,27,28
 138 430 138 430 150 419 c 128,-1,29
 162 408 162 408 178 408 c 2,30,-1
 671 408 l 2,31,32
 687 408 687 408 699 419 c 128,-1,33
 711 430 711 430 711 446 c 2,34,-1
 711 737 l 1,0,-1
EndSplineSet
EndChar

StartChar: L
Encoding: 76 76 37
Width: 797
Flags: W
HStem: 0 83<141 796> 718 20G<58 141>
VStem: 58 83<83 738>
LayerCount: 2
Fore
SplineSet
58 738 m 1,0,-1
 141 738 l 1,1,-1
 141 83 l 1,2,-1
 796 83 l 1,3,-1
 796 0 l 1,4,-1
 58 0 l 1,5,-1
 58 738 l 1,0,-1
EndSplineSet
EndChar

StartChar: M
Encoding: 77 77 38
Width: 950
Flags: W
HStem: 0 21G<57 140 814 897> 717 20G<57 187.813 766.187 897>
VStem: 57 83<0 643> 814 83<0 643>
LayerCount: 2
Fore
SplineSet
783 737 m 1,0,-1
 897 737 l 1,1,-1
 897 0 l 1,2,-1
 814 0 l 1,3,-1
 814 643 l 1,4,-1
 477 243 l 1,5,-1
 140 643 l 1,6,-1
 140 0 l 1,7,-1
 57 0 l 1,8,-1
 57 737 l 1,9,-1
 171 737 l 1,10,-1
 477 373 l 1,11,-1
 783 737 l 1,0,-1
EndSplineSet
Substitution2: "'salt' Stylistic Alternatives in Latin lookup 2 subtable" M.alt
Substitution2: "'aalt' Access All Alternates in Latin lookup 0 subtable" M.alt
EndChar

StartChar: M.alt
Encoding: 65544 -1 39
Width: 1182
Flags: W
HStem: 0 21G<55 139 545 629 1060 1144> 654 83<139 540.946 629 1055.58>
VStem: 55 84<0 654> 545 84<0 650.203> 1060 84<0 649.567>
LayerCount: 2
Fore
SplineSet
1021 737 m 2,0,1
 1047 737 1047 737 1069 727.5 c 128,-1,2
 1091 718 1091 718 1107.5 701.5 c 128,-1,3
 1124 685 1124 685 1134 662.5 c 128,-1,4
 1144 640 1144 640 1144 614 c 2,5,-1
 1144 0 l 1,6,-1
 1060 0 l 1,7,-1
 1060 614 l 2,8,9
 1060 630 1060 630 1048.5 642 c 128,-1,10
 1037 654 1037 654 1021 654 c 2,11,-1
 629 654 l 1,12,-1
 629 0 l 1,13,-1
 545 0 l 1,14,-1
 545 614 l 2,15,16
 545 630 545 630 533.5 642 c 128,-1,17
 522 654 522 654 506 654 c 2,18,-1
 139 654 l 1,19,-1
 139 0 l 1,20,-1
 55 0 l 1,21,-1
 55 737 l 1,22,-1
 1021 737 l 2,0,1
EndSplineSet
EndChar

StartChar: N
Encoding: 78 78 40
Width: 851
Flags: W
HStem: 0 21G<57 140 664.173 795> 717 20G<57 187.827 712 795>
VStem: 57 83<0 643> 712 83<94 737>
LayerCount: 2
Fore
SplineSet
712 737 m 1,0,-1
 795 737 l 1,1,-1
 795 0 l 1,2,-1
 681 0 l 1,3,-1
 140 643 l 1,4,-1
 140 0 l 1,5,-1
 57 0 l 1,6,-1
 57 737 l 1,7,-1
 171 737 l 1,8,-1
 712 94 l 1,9,-1
 712 737 l 1,0,-1
EndSplineSet
Substitution2: "'salt' Stylistic Alternatives in Latin lookup 2 subtable" N.alt
Substitution2: "'aalt' Access All Alternates in Latin lookup 0 subtable" N.alt
EndChar

StartChar: N.alt
Encoding: 65545 -1 41
Width: 846
Flags: W
HStem: 0 21G<55 138 710 793> 654 83<138 705.309>
VStem: 55 83<0 654> 710 83<0 649.567>
LayerCount: 2
Fore
SplineSet
55 0 m 1,0,-1
 55 737 l 1,1,-1
 670 737 l 2,2,3
 696 737 696 737 718 727.5 c 128,-1,4
 740 718 740 718 756.5 701.5 c 128,-1,5
 773 685 773 685 783 662.5 c 128,-1,6
 793 640 793 640 793 614 c 2,7,-1
 793 0 l 1,8,-1
 710 0 l 1,9,-1
 710 614 l 2,10,11
 710 630 710 630 698 642 c 128,-1,12
 686 654 686 654 670 654 c 2,13,-1
 138 654 l 1,14,-1
 138 0 l 1,15,-1
 55 0 l 1,0,-1
EndSplineSet
EndChar

StartChar: O
Encoding: 79 79 43
Width: 847
Flags: W
HStem: 0 83<142.691 697.624> 654 83<150.376 705.309>
VStem: 55 83<87.4331 642.139> 710 83<94.8607 649.567>
LayerCount: 2
Fore
SplineSet
670 737 m 2,0,1
 696 737 696 737 718 727.5 c 128,-1,2
 740 718 740 718 756.5 701.5 c 128,-1,3
 773 685 773 685 783 662.5 c 128,-1,4
 793 640 793 640 793 614 c 2,5,-1
 793 123 l 2,6,7
 793 97 793 97 783 74.5 c 128,-1,8
 773 52 773 52 756.5 35.5 c 128,-1,9
 740 19 740 19 717.5 9.5 c 128,-1,10
 695 0 695 0 670 0 c 2,11,-1
 178 0 l 2,12,13
 152 0 152 0 130 9.5 c 128,-1,14
 108 19 108 19 91.5 35.5 c 128,-1,15
 75 52 75 52 65 74.5 c 128,-1,16
 55 97 55 97 55 123 c 2,17,-1
 55 614 l 2,18,19
 55 640 55 640 65 662.5 c 128,-1,20
 75 685 75 685 91.5 701.5 c 128,-1,21
 108 718 108 718 130.5 727.5 c 128,-1,22
 153 737 153 737 178 737 c 2,23,-1
 670 737 l 2,0,1
670 83 m 2,24,25
 686 83 686 83 698 94.5 c 128,-1,26
 710 106 710 106 710 123 c 2,27,-1
 710 614 l 2,28,29
 710 630 710 630 698 642 c 128,-1,30
 686 654 686 654 670 654 c 2,31,-1
 178 654 l 2,32,33
 162 654 162 654 150 642.5 c 128,-1,34
 138 631 138 631 138 614 c 2,35,-1
 138 123 l 2,36,37
 138 107 138 107 150 95 c 128,-1,38
 162 83 162 83 178 83 c 2,39,-1
 670 83 l 2,24,25
EndSplineSet
Substitution2: "'salt' Stylistic Alternatives in Latin lookup 2 subtable" O.alt
Substitution2: "'aalt' Access All Alternates in Latin lookup 0 subtable" O.alt
EndChar

StartChar: O.alt
Encoding: 65546 -1 44
Width: 843
Flags: W
HStem: 0 83<140.433 695.624> 327 84<380 464> 654 83<148.376 703.309>
VStem: 53 83<87.4331 642.139> 380 84<327 411> 708 83<94.8607 649.567>
CounterMasks: 1 1c
LayerCount: 2
Fore
SplineSet
668 737 m 2,0,1
 694 737 694 737 716 727.5 c 128,-1,2
 738 718 738 718 754.5 701.5 c 128,-1,3
 771 685 771 685 781 662.5 c 128,-1,4
 791 640 791 640 791 614 c 2,5,-1
 791 123 l 2,6,7
 791 97 791 97 781 74.5 c 128,-1,8
 771 52 771 52 754.5 35.5 c 128,-1,9
 738 19 738 19 715.5 9.5 c 128,-1,10
 693 0 693 0 668 0 c 2,11,-1
 176 0 l 2,12,13
 150 0 150 0 127.5 9.5 c 128,-1,14
 105 19 105 19 89 35.5 c 128,-1,15
 73 52 73 52 63 74.5 c 128,-1,16
 53 97 53 97 53 123 c 2,17,-1
 53 614 l 2,18,19
 53 640 53 640 63 662.5 c 128,-1,20
 73 685 73 685 89 701.5 c 128,-1,21
 105 718 105 718 128 727.5 c 128,-1,22
 151 737 151 737 176 737 c 2,23,-1
 668 737 l 2,0,1
708 614 m 2,24,25
 708 630 708 630 696 642 c 128,-1,26
 684 654 684 654 668 654 c 2,27,-1
 176 654 l 2,28,29
 160 654 160 654 148 642.5 c 128,-1,30
 136 631 136 631 136 614 c 2,31,-1
 136 123 l 2,32,33
 136 107 136 107 148 95 c 128,-1,34
 160 83 160 83 176 83 c 2,35,-1
 668 83 l 2,36,37
 684 83 684 83 696 94.5 c 128,-1,38
 708 106 708 106 708 123 c 2,39,-1
 708 614 l 2,24,25
380 327 m 1,40,-1
 380 411 l 1,41,-1
 464 411 l 1,42,-1
 464 327 l 1,43,-1
 380 327 l 1,40,-1
EndSplineSet
EndChar

StartChar: OE
Encoding: 338 338 45
Width: 1406
Flags: W
HStem: 0 83<141.433 696.624 792 1381> 327 84<792 1266> 654 83<149.376 704.77 792 1381>
VStem: 54 83<87.4331 642.139> 709 83<94.8607 327 411 649.77>
LayerCount: 2
Fore
SplineSet
792 411 m 1,0,-1
 1266 411 l 1,1,-1
 1266 327 l 1,2,-1
 792 327 l 1,3,-1
 792 83 l 1,4,-1
 1381 83 l 1,5,-1
 1381 0 l 1,6,-1
 177 0 l 2,7,8
 151 0 151 0 128.5 9.5 c 128,-1,9
 106 19 106 19 90 35.5 c 128,-1,10
 74 52 74 52 64 74.5 c 128,-1,11
 54 97 54 97 54 123 c 2,12,-1
 54 614 l 2,13,14
 54 640 54 640 64 662.5 c 128,-1,15
 74 685 74 685 90 701.5 c 128,-1,16
 106 718 106 718 129 727.5 c 128,-1,17
 152 737 152 737 177 737 c 2,18,-1
 1381 737 l 1,19,-1
 1381 654 l 1,20,-1
 792 654 l 1,21,-1
 792 411 l 1,0,-1
669 83 m 2,22,23
 685 83 685 83 697 94.5 c 128,-1,24
 709 106 709 106 709 123 c 2,25,-1
 709 614 l 2,26,27
 709 630 709 630 697 642 c 128,-1,28
 685 654 685 654 669 654 c 2,29,-1
 177 654 l 2,30,31
 161 654 161 654 149 642.5 c 128,-1,32
 137 631 137 631 137 614 c 2,33,-1
 137 123 l 2,34,35
 137 107 137 107 149 95 c 128,-1,36
 161 83 161 83 177 83 c 2,37,-1
 669 83 l 2,22,23
EndSplineSet
EndChar

StartChar: P
Encoding: 80 80 51
Width: 809
Flags: W
HStem: 0 21G<57 140> 274 84<144.081 708.094> 653 83<152.376 707.309>
VStem: 57 83<0 279 362.054 641.139> 712 83<362.662 648.309>
LayerCount: 2
Fore
SplineSet
672 736 m 2,0,1
 698 736 698 736 720 726.5 c 128,-1,2
 742 717 742 717 758.5 700 c 128,-1,3
 775 683 775 683 785 661 c 128,-1,4
 795 639 795 639 795 613 c 2,5,-1
 795 397 l 2,6,7
 795 371 795 371 785 349.5 c 128,-1,8
 775 328 775 328 758.5 311 c 128,-1,9
 742 294 742 294 719.5 284 c 128,-1,10
 697 274 697 274 672 274 c 2,11,-1
 180 274 l 2,12,13
 173 274 173 274 162.5 275 c 128,-1,14
 152 276 152 276 140 279 c 1,15,-1
 140 0 l 1,16,-1
 57 0 l 1,17,-1
 57 736 l 1,18,-1
 672 736 l 2,0,1
712 613 m 2,19,20
 712 629 712 629 700 641 c 128,-1,21
 688 653 688 653 672 653 c 2,22,-1
 180 653 l 2,23,24
 164 653 164 653 152 641.5 c 128,-1,25
 140 630 140 630 140 613 c 2,26,-1
 140 397 l 2,27,28
 140 381 140 381 152 369.5 c 128,-1,29
 164 358 164 358 180 358 c 2,30,-1
 672 358 l 2,31,32
 688 358 688 358 700 369.5 c 128,-1,33
 712 381 712 381 712 397 c 2,34,-1
 712 613 l 2,19,20
EndSplineSet
EndChar

StartChar: Q
Encoding: 81 81 52
Width: 905
Flags: W
HStem: 0 83<142.691 697.624 788 889> 654 83<150.376 705.309>
VStem: 55 83<87.4331 642.139> 710 83<94.8607 649.567>
LayerCount: 2
Fore
SplineSet
889 83 m 1,0,-1
 889 0 l 1,1,-1
 178 0 l 2,2,3
 152 0 152 0 130 9.5 c 128,-1,4
 108 19 108 19 91.5 35.5 c 128,-1,5
 75 52 75 52 65 74.5 c 128,-1,6
 55 97 55 97 55 123 c 2,7,-1
 55 614 l 2,8,9
 55 640 55 640 65 662.5 c 128,-1,10
 75 685 75 685 91.5 701.5 c 128,-1,11
 108 718 108 718 130.5 727.5 c 128,-1,12
 153 737 153 737 178 737 c 2,13,-1
 670 737 l 2,14,15
 696 737 696 737 718 727.5 c 128,-1,16
 740 718 740 718 756.5 701.5 c 128,-1,17
 773 685 773 685 783 662.5 c 128,-1,18
 793 640 793 640 793 614 c 2,19,-1
 793 123 l 2,20,21
 793 116 793 116 792 105 c 128,-1,22
 791 94 791 94 788 83 c 1,23,-1
 889 83 l 1,0,-1
670 83 m 2,24,25
 686 83 686 83 698 94.5 c 128,-1,26
 710 106 710 106 710 123 c 2,27,-1
 710 614 l 2,28,29
 710 630 710 630 698 642 c 128,-1,30
 686 654 686 654 670 654 c 2,31,-1
 178 654 l 2,32,33
 162 654 162 654 150 642.5 c 128,-1,34
 138 631 138 631 138 614 c 2,35,-1
 138 123 l 2,36,37
 138 107 138 107 150 95 c 128,-1,38
 162 83 162 83 178 83 c 2,39,-1
 670 83 l 2,24,25
EndSplineSet
Substitution2: "'salt' Stylistic Alternatives in Latin lookup 2 subtable" Q.alt
Substitution2: "'aalt' Access All Alternates in Latin lookup 0 subtable" Q.alt
EndChar

StartChar: Q.alt
Encoding: 65547 -1 53
Width: 888
Flags: W
HStem: 0 83<142.691 382 466 697.624> 654 83<150.376 705.309>
VStem: 55 83<87.4331 642.139> 382 84<-116 0> 710 83<94.8607 649.567>
CounterMasks: 1 38
LayerCount: 2
Fore
SplineSet
670 737 m 2,0,1
 696 737 696 737 718 727.5 c 128,-1,2
 740 718 740 718 756.5 701.5 c 128,-1,3
 773 685 773 685 783 662.5 c 128,-1,4
 793 640 793 640 793 614 c 2,5,-1
 793 123 l 2,6,7
 793 97 793 97 783 74.5 c 128,-1,8
 773 52 773 52 756.5 35.5 c 128,-1,9
 740 19 740 19 717.5 9.5 c 128,-1,10
 695 0 695 0 670 0 c 2,11,-1
 466 0 l 1,12,-1
 466 -116 l 1,13,-1
 382 -116 l 1,14,-1
 382 0 l 1,15,-1
 178 0 l 2,16,17
 152 0 152 0 130 9.5 c 128,-1,18
 108 19 108 19 91.5 35.5 c 128,-1,19
 75 52 75 52 65 74.5 c 128,-1,20
 55 97 55 97 55 123 c 2,21,-1
 55 614 l 2,22,23
 55 640 55 640 65 662.5 c 128,-1,24
 75 685 75 685 91.5 701.5 c 128,-1,25
 108 718 108 718 130.5 727.5 c 128,-1,26
 153 737 153 737 178 737 c 2,27,-1
 670 737 l 2,0,1
710 614 m 2,28,29
 710 630 710 630 698 642 c 128,-1,30
 686 654 686 654 670 654 c 2,31,-1
 178 654 l 2,32,33
 162 654 162 654 150 642.5 c 128,-1,34
 138 631 138 631 138 614 c 2,35,-1
 138 123 l 2,36,37
 138 107 138 107 150 95 c 128,-1,38
 162 83 162 83 178 83 c 2,39,-1
 670 83 l 2,40,41
 686 83 686 83 698 94.5 c 128,-1,42
 710 106 710 106 710 123 c 2,43,-1
 710 614 l 2,28,29
EndSplineSet
EndChar

StartChar: R
Encoding: 82 82 54
Width: 844
Flags: W
HStem: 0 21G<56 139 663.212 790> 274 84<143.066 450 558 698.14> 653 83<151.376 705.585>
VStem: 56 83<0 279 362.054 641.139> 710 84<369.86 649.03>
LayerCount: 2
Fore
SplineSet
794 397 m 2,0,1
 794 371 794 371 784 349.5 c 128,-1,2
 774 328 774 328 757.5 311 c 128,-1,3
 741 294 741 294 718.5 284 c 128,-1,4
 696 274 696 274 671 274 c 2,5,-1
 558 274 l 1,6,-1
 790 0 l 1,7,-1
 680 0 l 1,8,-1
 450 274 l 1,9,-1
 179 274 l 2,10,11
 171 274 171 274 161 275 c 128,-1,12
 151 276 151 276 139 279 c 1,13,-1
 139 0 l 1,14,-1
 56 0 l 1,15,-1
 56 736 l 1,16,-1
 671 736 l 2,17,18
 697 736 697 736 719 726.5 c 128,-1,19
 741 717 741 717 757.5 700 c 128,-1,20
 774 683 774 683 784 661 c 128,-1,21
 794 639 794 639 794 613 c 2,22,-1
 794 397 l 2,0,1
671 358 m 2,23,24
 687 358 687 358 698.5 369.5 c 128,-1,25
 710 381 710 381 710 397 c 2,26,-1
 710 613 l 2,27,28
 710 629 710 629 698.5 641 c 128,-1,29
 687 653 687 653 671 653 c 2,30,-1
 179 653 l 2,31,32
 163 653 163 653 151 641.5 c 128,-1,33
 139 630 139 630 139 613 c 2,34,-1
 139 397 l 2,35,36
 139 381 139 381 151 369.5 c 128,-1,37
 163 358 163 358 179 358 c 2,38,-1
 671 358 l 2,23,24
EndSplineSet
Substitution2: "'salt' Stylistic Alternatives in Latin lookup 2 subtable" R.alt
Substitution2: "'aalt' Access All Alternates in Latin lookup 0 subtable" R.alt
EndChar

StartChar: R.alt
Encoding: 65548 -1 55
Width: 845
Flags: W
HStem: 0 21G<55 138 710 793> 274 42<683 705.294> 316 42<683 705.191> 653 84<150.376 705.309>
VStem: 55 83<0 269.946 362.054 641.139> 710 83<0 269.545 362.386 648.309>
LayerCount: 2
Fore
SplineSet
793 397 m 2,0,1
 793 375 793 375 779.5 360 c 128,-1,2
 766 345 766 345 748.5 335.5 c 128,-1,3
 731 326 731 326 712 321 c 128,-1,4
 693 316 693 316 683 316 c 1,5,6
 694 316 694 316 712.5 311.5 c 128,-1,7
 731 307 731 307 749 297.5 c 128,-1,8
 767 288 767 288 780 272.5 c 128,-1,9
 793 257 793 257 793 236 c 2,10,-1
 793 0 l 1,11,-1
 710 0 l 1,12,-1
 710 236 l 2,13,14
 710 251 710 251 698 262.5 c 128,-1,15
 686 274 686 274 670 274 c 2,16,-1
 178 274 l 2,17,18
 162 274 162 274 150 262.5 c 128,-1,19
 138 251 138 251 138 236 c 2,20,-1
 138 0 l 1,21,-1
 55 0 l 1,22,-1
 55 737 l 1,23,-1
 670 736 l 2,24,25
 696 736 696 736 718 726.5 c 128,-1,26
 740 717 740 717 756.5 700 c 128,-1,27
 773 683 773 683 783 661 c 128,-1,28
 793 639 793 639 793 613 c 2,29,-1
 793 397 l 2,0,1
178 653 m 2,30,31
 162 653 162 653 150 641.5 c 128,-1,32
 138 630 138 630 138 613 c 2,33,-1
 138 397 l 2,34,35
 138 381 138 381 150 369.5 c 128,-1,36
 162 358 162 358 178 358 c 2,37,-1
 670 358 l 2,38,39
 686 358 686 358 698 369.5 c 128,-1,40
 710 381 710 381 710 397 c 2,41,-1
 710 613 l 2,42,43
 710 629 710 629 698 641 c 128,-1,44
 686 653 686 653 670 653 c 2,45,-1
 178 653 l 2,30,31
EndSplineSet
EndChar

StartChar: S
Encoding: 83 83 56
Width: 841
Flags: W
HStem: 0 83<139.433 694.624> 327 84<139.433 703.03> 654 83<147.376 702.309>
VStem: 52 83<87.4331 152 415.415 642.139> 707 83<94.8607 322.388 586 649.567>
LayerCount: 2
Fore
SplineSet
790 586 m 1,0,-1
 707 586 l 1,1,-1
 707 614 l 2,2,3
 707 630 707 630 695 642 c 128,-1,4
 683 654 683 654 667 654 c 2,5,-1
 175 654 l 2,6,7
 159 654 159 654 147 642.5 c 128,-1,8
 135 631 135 631 135 614 c 2,9,-1
 135 450 l 2,10,11
 135 434 135 434 147 422.5 c 128,-1,12
 159 411 159 411 175 411 c 2,13,-1
 667 411 l 2,14,15
 693 411 693 411 715 401 c 128,-1,16
 737 391 737 391 753.5 374 c 128,-1,17
 770 357 770 357 780 335 c 128,-1,18
 790 313 790 313 790 288 c 2,19,-1
 790 123 l 2,20,21
 790 97 790 97 780 74.5 c 128,-1,22
 770 52 770 52 753.5 35.5 c 128,-1,23
 737 19 737 19 714.5 9.5 c 128,-1,24
 692 0 692 0 667 0 c 2,25,-1
 175 0 l 2,26,27
 149 0 149 0 126.5 9.5 c 128,-1,28
 104 19 104 19 88 35.5 c 128,-1,29
 72 52 72 52 62 74.5 c 128,-1,30
 52 97 52 97 52 123 c 2,31,-1
 52 152 l 1,32,-1
 135 152 l 1,33,-1
 135 123 l 2,34,35
 135 107 135 107 147 95 c 128,-1,36
 159 83 159 83 175 83 c 2,37,-1
 667 83 l 2,38,39
 683 83 683 83 695 94.5 c 128,-1,40
 707 106 707 106 707 123 c 2,41,-1
 707 288 l 2,42,43
 707 304 707 304 695 315.5 c 128,-1,44
 683 327 683 327 667 327 c 2,45,-1
 175 327 l 2,46,47
 149 327 149 327 126.5 336.5 c 128,-1,48
 104 346 104 346 88 363 c 128,-1,49
 72 380 72 380 62 402 c 128,-1,50
 52 424 52 424 52 450 c 2,51,-1
 52 614 l 2,52,53
 52 640 52 640 62 662.5 c 128,-1,54
 72 685 72 685 88 701.5 c 128,-1,55
 104 718 104 718 127 727.5 c 128,-1,56
 150 737 150 737 175 737 c 2,57,-1
 667 737 l 2,58,59
 693 737 693 737 715 727.5 c 128,-1,60
 737 718 737 718 753.5 701.5 c 128,-1,61
 770 685 770 685 780 662.5 c 128,-1,62
 790 640 790 640 790 614 c 2,63,-1
 790 586 l 1,0,-1
EndSplineSet
Substitution2: "'salt' Stylistic Alternatives in Latin lookup 2 subtable" S.alt
Substitution2: "'aalt' Access All Alternates in Latin lookup 0 subtable" S.alt
EndChar

StartChar: S.alt
Encoding: 65549 -1 57
Width: 831
Flags: W
HStem: 0 83<47 688.655> 327 84<134.433 688.655> 654 83<142.376 784>
VStem: 47 83<415.415 642.139> 700 84<94.8607 315.14>
LayerCount: 2
Fore
SplineSet
662 411 m 2,0,1
 688 411 688 411 710 401 c 128,-1,2
 732 391 732 391 748.5 374 c 128,-1,3
 765 357 765 357 774.5 335 c 128,-1,4
 784 313 784 313 784 288 c 2,5,-1
 784 123 l 2,6,7
 784 97 784 97 774.5 74.5 c 128,-1,8
 765 52 765 52 748.5 35.5 c 128,-1,9
 732 19 732 19 709.5 9.5 c 128,-1,10
 687 0 687 0 662 0 c 2,11,-1
 47 0 l 1,12,-1
 47 83 l 1,13,-1
 662 83 l 2,14,15
 678 83 678 83 689 94.5 c 128,-1,16
 700 106 700 106 700 123 c 2,17,-1
 700 288 l 2,18,19
 700 304 700 304 689 315.5 c 128,-1,20
 678 327 678 327 662 327 c 2,21,-1
 170 327 l 2,22,23
 144 327 144 327 121.5 336.5 c 128,-1,24
 99 346 99 346 83 363 c 128,-1,25
 67 380 67 380 57 402 c 128,-1,26
 47 424 47 424 47 450 c 2,27,-1
 47 614 l 2,28,29
 47 640 47 640 57 662.5 c 128,-1,30
 67 685 67 685 83 701.5 c 128,-1,31
 99 718 99 718 121.5 727.5 c 128,-1,32
 144 737 144 737 170 737 c 2,33,-1
 784 737 l 1,34,-1
 784 654 l 1,35,-1
 170 654 l 2,36,37
 154 654 154 654 142 642.5 c 128,-1,38
 130 631 130 631 130 614 c 2,39,-1
 130 450 l 2,40,41
 130 434 130 434 142 422.5 c 128,-1,42
 154 411 154 411 170 411 c 2,43,-1
 662 411 l 2,0,1
EndSplineSet
EndChar

StartChar: T
Encoding: 84 84 59
Width: 777
Flags: W
HStem: 0 21G<348 431> 654 83<20 348 431 758>
VStem: 348 83<0 654>
LayerCount: 2
Fore
SplineSet
758 737 m 1,0,-1
 758 654 l 1,1,-1
 431 654 l 1,2,-1
 431 0 l 1,3,-1
 348 0 l 1,4,-1
 348 654 l 1,5,-1
 20 654 l 1,6,-1
 20 737 l 1,7,-1
 758 737 l 1,0,-1
EndSplineSet
EndChar

StartChar: U
Encoding: 85 85 60
Width: 847
Flags: W
HStem: 0 83<142.691 697.624> 717 20G<55 138 710 793>
VStem: 55 83<87.4331 737> 710 83<94.8607 737>
LayerCount: 2
Fore
SplineSet
710 737 m 1,0,-1
 793 737 l 1,1,-1
 793 123 l 2,2,3
 793 97 793 97 783 74.5 c 128,-1,4
 773 52 773 52 756.5 35.5 c 128,-1,5
 740 19 740 19 717.5 9.5 c 128,-1,6
 695 0 695 0 670 0 c 2,7,-1
 178 0 l 2,8,9
 152 0 152 0 130 9.5 c 128,-1,10
 108 19 108 19 91.5 35.5 c 128,-1,11
 75 52 75 52 65 74.5 c 128,-1,12
 55 97 55 97 55 123 c 2,13,-1
 55 737 l 1,14,-1
 138 737 l 1,15,-1
 138 123 l 2,16,17
 138 107 138 107 150 95 c 128,-1,18
 162 83 162 83 178 83 c 2,19,-1
 670 83 l 2,20,21
 686 83 686 83 698 94.5 c 128,-1,22
 710 106 710 106 710 123 c 2,23,-1
 710 737 l 1,0,-1
EndSplineSet
EndChar

StartChar: V
Encoding: 86 86 65
Width: 1027
Flags: W
HStem: 0 21G<408.5 586.5> 717 20G<36 144.524 876.506 985>
LayerCount: 2
Fore
SplineSet
888 737 m 1,0,-1
 985 737 l 1,1,2
 930 642 930 642 877 550.5 c 128,-1,3
 824 459 824 459 772 368.5 c 128,-1,4
 720 278 720 278 667 186.5 c 128,-1,5
 614 95 614 95 559 0 c 1,6,-1
 463 0 l 1,7,8
 354 187 354 187 248 368.5 c 128,-1,9
 142 550 142 550 36 737 c 1,10,-1
 133 737 l 1,11,-1
 511 81 l 1,12,-1
 888 737 l 1,0,-1
EndSplineSet
Substitution2: "'ss02' Style Set 2 in Latin lookup 5 subtable" V.alt2
Substitution2: "'ss01' Style Set 1 in Latin lookup 4 subtable" V.alt
Substitution2: "'salt' Stylistic Alternatives in Latin lookup 2 subtable" V.alt3
AlternateSubs2: "'aalt' Access All Alternates in Latin lookup 1 subtable" V.alt3 V.alt V.alt2
EndChar

StartChar: V.alt
Encoding: 57354 57354 66
Width: 792
Flags: W
HStem: 0 21G<55 186.965> 718 20G<55 140 654 796>
VStem: 55 85<95 738>
LayerCount: 2
Fore
SplineSet
140 738 m 1,0,-1
 140 95 l 1,1,2
 205 172 205 172 274 253 c 128,-1,3
 343 334 343 334 413 416 c 128,-1,4
 483 498 483 498 552.5 579 c 128,-1,5
 622 660 622 660 686 738 c 1,6,-1
 796 738 l 1,7,-1
 170 0 l 1,8,-1
 55 0 l 1,9,-1
 55 738 l 1,10,-1
 140 738 l 1,0,-1
EndSplineSet
EndChar

StartChar: V.alt2
Encoding: 65550 -1 67
Width: 792
Flags: W
HStem: 0 21G<603.175 733> 717 20G<0 126.796 650 733>
VStem: 650 83<94 737>
LayerCount: 2
Fore
SplineSet
650 737 m 1,0,-1
 733 737 l 1,1,-1
 733 0 l 1,2,-1
 620 0 l 1,3,-1
 0 737 l 1,4,-1
 110 737 l 1,5,-1
 650 94 l 1,6,-1
 650 737 l 1,0,-1
EndSplineSet
EndChar

StartChar: V.alt3
Encoding: 65551 -1 68
Width: 846
Flags: W
HStem: 0 83<141.433 709> 717 20G<54 137 709 792>
VStem: 54 83<87.4331 737> 709 83<83 737>
LayerCount: 2
Fore
SplineSet
792 737 m 1,0,-1
 792 0 l 1,1,-1
 177 0 l 2,2,3
 151 0 151 0 128.5 9.5 c 128,-1,4
 106 19 106 19 90 35.5 c 128,-1,5
 74 52 74 52 64 74.5 c 128,-1,6
 54 97 54 97 54 123 c 2,7,-1
 54 737 l 1,8,-1
 137 737 l 1,9,-1
 137 123 l 2,10,11
 137 107 137 107 149 95 c 128,-1,12
 161 83 161 83 177 83 c 2,13,-1
 709 83 l 1,14,-1
 709 737 l 1,15,-1
 792 737 l 1,0,-1
EndSplineSet
EndChar

StartChar: W
Encoding: 87 87 69
Width: 1207
Flags: W
HStem: 0 21G<296.727 383.27 827.698 914.3> 717 20G<36 131.297 542.5 662.297 1073 1176>
LayerCount: 2
Fore
SplineSet
1176 737 m 1,0,-1
 907 0 l 1,1,-1
 835 0 l 1,2,-1
 605 630 l 1,3,-1
 376 0 l 1,4,-1
 304 0 l 1,5,-1
 36 737 l 1,6,-1
 124 737 l 1,7,-1
 340 145 l 1,8,9
 365 213 365 213 392 288.5 c 128,-1,10
 419 364 419 364 447 440.5 c 128,-1,11
 475 517 475 517 502.5 593 c 128,-1,12
 530 669 530 669 555 737 c 1,13,-1
 655 737 l 1,14,-1
 871 145 l 1,15,16
 896 213 896 213 923 288.5 c 128,-1,17
 950 364 950 364 978 440.5 c 128,-1,18
 1006 517 1006 517 1033.5 593 c 128,-1,19
 1061 669 1061 669 1085 737 c 1,20,-1
 1176 737 l 1,0,-1
EndSplineSet
Substitution2: "'ss02' Style Set 2 in Latin lookup 5 subtable" W.alt2
Substitution2: "'ss01' Style Set 1 in Latin lookup 4 subtable" W.alt
Substitution2: "'salt' Stylistic Alternatives in Latin lookup 2 subtable" W.alt4
AlternateSubs2: "'aalt' Access All Alternates in Latin lookup 1 subtable" W.alt4 W.alt W.alt2
EndChar

StartChar: W.alt
Encoding: 57353 57353 70
Width: 1199
Flags: W
HStem: 0 21G<50 181.809 460 590.961> 717 20G<50 134 648.5 788 1058.5 1199>
VStem: 50 84<95 737> 460 84<95 351>
LayerCount: 2
Fore
SplineSet
1199 737 m 1,0,-1
 574 0 l 1,1,-1
 460 0 l 1,2,-1
 460 351 l 1,3,-1
 165 0 l 1,4,-1
 50 0 l 1,5,-1
 50 737 l 1,6,-1
 134 737 l 1,7,-1
 134 95 l 1,8,9
 199 172 199 172 268 253 c 128,-1,10
 337 334 337 334 407 416 c 128,-1,11
 477 498 477 498 546.5 578.5 c 128,-1,12
 616 659 616 659 681 737 c 1,13,-1
 788 737 l 1,14,-1
 544 453 l 1,15,-1
 544 95 l 1,16,17
 609 172 609 172 677.5 253 c 128,-1,18
 746 334 746 334 816.5 416 c 128,-1,19
 887 498 887 498 956.5 578.5 c 128,-1,20
 1026 659 1026 659 1091 737 c 1,21,-1
 1199 737 l 1,0,-1
EndSplineSet
EndChar

StartChar: W.alt2
Encoding: 57352 57352 71
Width: 1196
Flags: W
HStem: 0 21G<609.985 741 1019.19 1150> 717 20G<0 127.978 411 536.041 1066 1150>
VStem: 656 85<95 351> 1066 84<95 737>
LayerCount: 2
Fore
SplineSet
0 737 m 1,0,-1
 111 737 l 1,1,-1
 656 95 l 1,2,-1
 656 453 l 1,3,-1
 411 737 l 1,4,-1
 519 737 l 1,5,-1
 1066 95 l 1,6,-1
 1066 737 l 1,7,-1
 1150 737 l 1,8,-1
 1150 0 l 1,9,-1
 1036 0 l 1,10,-1
 741 351 l 1,11,-1
 741 0 l 1,12,-1
 627 0 l 1,13,-1
 0 737 l 1,0,-1
EndSplineSet
EndChar

StartChar: W.alt3
Encoding: 65552 -1 72
Width: 1052
Flags: W
HStem: 0 21G<55 184.798 876.155 1007> 717 20G<55 138 923 1007>
VStem: 55 83<94 737> 923 84<94 737>
LayerCount: 2
Fore
SplineSet
168 0 m 1,0,-1
 55 0 l 1,1,-1
 55 737 l 1,2,-1
 138 737 l 1,3,-1
 138 94 l 1,4,-1
 530 562 l 1,5,-1
 923 94 l 1,6,-1
 923 737 l 1,7,-1
 1007 737 l 1,8,-1
 1007 0 l 1,9,-1
 893 0 l 1,10,-1
 530 431 l 1,11,-1
 168 0 l 1,0,-1
EndSplineSet
EndChar

StartChar: W.alt4
Encoding: 65553 -1 73
Width: 1182
Flags: W
HStem: 0 83<142.662 569 657.054 1059> 717 20G<54 138 569 653 1059 1143>
VStem: 54 84<87.4331 737> 569 84<86.7969 737> 1059 84<83 737>
LayerCount: 2
Fore
SplineSet
177 0 m 2,0,1
 151 0 151 0 129.5 9.5 c 128,-1,2
 108 19 108 19 91 35.5 c 128,-1,3
 74 52 74 52 64 74.5 c 128,-1,4
 54 97 54 97 54 123 c 2,5,-1
 54 737 l 1,6,-1
 138 737 l 1,7,-1
 138 123 l 2,8,9
 138 107 138 107 150 95 c 128,-1,10
 162 83 162 83 177 83 c 2,11,-1
 569 83 l 1,12,-1
 569 737 l 1,13,-1
 653 737 l 1,14,-1
 653 123 l 2,15,16
 653 107 653 107 664.5 95 c 128,-1,17
 676 83 676 83 692 83 c 2,18,-1
 1059 83 l 1,19,-1
 1059 737 l 1,20,-1
 1143 737 l 1,21,-1
 1143 0 l 1,22,-1
 177 0 l 2,0,1
EndSplineSet
EndChar

StartChar: X
Encoding: 88 88 74
Width: 831
Flags: W
HStem: 0 21G<47 170.908 650.158 774> 717 20G<47 170.908 650.158 773>
LayerCount: 2
Fore
SplineSet
773 737 m 1,0,-1
 464 369 l 1,1,2
 539 279 539 279 618 184.5 c 128,-1,3
 697 90 697 90 774 0 c 1,4,-1
 667 0 l 1,5,-1
 411 304 l 1,6,-1
 154 0 l 1,7,-1
 47 0 l 1,8,-1
 356 369 l 1,9,-1
 47 737 l 1,10,-1
 154 737 l 1,11,-1
 411 433 l 1,12,-1
 667 737 l 1,13,-1
 773 737 l 1,0,-1
EndSplineSet
Substitution2: "'salt' Stylistic Alternatives in Latin lookup 2 subtable" X.alt
Substitution2: "'aalt' Access All Alternates in Latin lookup 0 subtable" X.alt
EndChar

StartChar: X.alt
Encoding: 65554 -1 75
Width: 848
Flags: W
HStem: 0 21G<56 139 710 793> 324 42<144.505 198 651 704.495> 366 42<150.376 198 651 698.624> 717 20G<55 138 711 794>
VStem: 55 83<0 312.746 419.345 737> 711 83<0 312.961 419.345 737>
LayerCount: 2
Fore
SplineSet
794 737 m 1,0,-1
 794 468 l 2,1,2
 794 449 794 449 782 430.5 c 128,-1,3
 770 412 770 412 750 397.5 c 128,-1,4
 730 383 730 383 704.5 374.5 c 128,-1,5
 679 366 679 366 651 366 c 1,6,7
 679 366 679 366 704.5 357 c 128,-1,8
 730 348 730 348 749.5 333.5 c 128,-1,9
 769 319 769 319 781 301 c 128,-1,10
 793 283 793 283 793 263 c 2,11,-1
 793 0 l 1,12,-1
 710 0 l 1,13,-1
 710 285 l 2,14,15
 710 300 710 300 698 312 c 128,-1,16
 686 324 686 324 670 324 c 2,17,-1
 179 324 l 2,18,19
 163 324 163 324 151 312 c 128,-1,20
 139 300 139 300 139 285 c 2,21,-1
 139 0 l 1,22,-1
 56 0 l 1,23,-1
 56 263 l 2,24,25
 56 282 56 282 68 300.5 c 128,-1,26
 80 319 80 319 99.5 333.5 c 128,-1,27
 119 348 119 348 144.5 357 c 128,-1,28
 170 366 170 366 198 366 c 1,29,30
 170 366 170 366 144 374.5 c 128,-1,31
 118 383 118 383 98.5 397.5 c 128,-1,32
 79 412 79 412 67 430.5 c 128,-1,33
 55 449 55 449 55 468 c 2,34,-1
 55 737 l 1,35,-1
 138 737 l 1,36,-1
 138 446 l 2,37,38
 138 430 138 430 150 419 c 128,-1,39
 162 408 162 408 178 408 c 2,40,-1
 671 408 l 2,41,42
 687 408 687 408 699 419 c 128,-1,43
 711 430 711 430 711 446 c 2,44,-1
 711 737 l 1,45,-1
 794 737 l 1,0,-1
EndSplineSet
EndChar

StartChar: Y
Encoding: 89 89 76
Width: 825
Flags: W
HStem: 0 21G<356 439> 717 20G<17 128.833 647 778>
VStem: 356 83<0 278>
LayerCount: 2
Fore
SplineSet
778 737 m 1,0,-1
 439 278 l 1,1,-1
 439 0 l 1,2,-1
 356 0 l 1,3,-1
 356 278 l 1,4,5
 273 392 273 392 187 508 c 128,-1,6
 101 624 101 624 17 737 c 1,7,-1
 113 737 l 1,8,-1
 398 377 l 1,9,10
 466 464 466 464 539.5 557 c 128,-1,11
 613 650 613 650 681 737 c 1,12,-1
 778 737 l 1,0,-1
EndSplineSet
Substitution2: "'salt' Stylistic Alternatives in Latin lookup 2 subtable" Y.alt
Substitution2: "'aalt' Access All Alternates in Latin lookup 0 subtable" Y.alt
EndChar

StartChar: Y.alt
Encoding: 65555 -1 77
Width: 843
Flags: W
HStem: 0 83<52 694.624> 327 84<139.433 703.203> 717 20G<52 135 707 790>
VStem: 52 83<415.415 737> 707 83<94.8607 322.946 411 737>
LayerCount: 2
Fore
SplineSet
790 737 m 1,0,-1
 790 123 l 2,1,2
 790 97 790 97 780 74.5 c 128,-1,3
 770 52 770 52 753.5 35.5 c 128,-1,4
 737 19 737 19 714.5 9.5 c 128,-1,5
 692 0 692 0 667 0 c 2,6,-1
 52 0 l 1,7,-1
 52 83 l 1,8,-1
 667 83 l 2,9,10
 683 83 683 83 695 94.5 c 128,-1,11
 707 106 707 106 707 123 c 2,12,-1
 707 288 l 2,13,14
 707 304 707 304 695 315.5 c 128,-1,15
 683 327 683 327 667 327 c 2,16,-1
 175 327 l 2,17,18
 149 327 149 327 126.5 336.5 c 128,-1,19
 104 346 104 346 88 363 c 128,-1,20
 72 380 72 380 62 402 c 128,-1,21
 52 424 52 424 52 450 c 2,22,-1
 52 737 l 1,23,-1
 135 737 l 1,24,-1
 135 450 l 2,25,26
 135 434 135 434 147 422.5 c 128,-1,27
 159 411 159 411 175 411 c 2,28,-1
 707 411 l 1,29,-1
 707 737 l 1,30,-1
 790 737 l 1,0,-1
EndSplineSet
EndChar

StartChar: Z
Encoding: 90 90 80
Width: 840
Flags: W
HStem: 0 83<146 790> 654 83<52 695>
LayerCount: 2
Fore
SplineSet
52 737 m 1,0,-1
 790 737 l 1,1,-1
 790 624 l 1,2,-1
 146 83 l 1,3,-1
 790 83 l 1,4,-1
 790 0 l 1,5,-1
 52 0 l 1,6,-1
 52 114 l 1,7,-1
 695 654 l 1,8,-1
 52 654 l 1,9,-1
 52 737 l 1,0,-1
EndSplineSet
Substitution2: "'salt' Stylistic Alternatives in Latin lookup 2 subtable" Z.alt
Substitution2: "'aalt' Access All Alternates in Latin lookup 0 subtable" Z.alt
EndChar

StartChar: Z.alt
Encoding: 65556 -1 81
Width: 837
Flags: W
HStem: 0 83<137.433 787> 327 84<137.433 691.655> 654 83<50 691.655>
VStem: 50 83<87.4331 322.338> 703 84<422.345 641.624>
LayerCount: 2
Fore
SplineSet
665 411 m 2,0,1
 681 411 681 411 692 422 c 128,-1,2
 703 433 703 433 703 450 c 2,3,-1
 703 614 l 2,4,5
 703 630 703 630 692 642 c 128,-1,6
 681 654 681 654 665 654 c 2,7,-1
 50 654 l 1,8,-1
 50 737 l 1,9,-1
 665 737 l 2,10,11
 691 737 691 737 713 727.5 c 128,-1,12
 735 718 735 718 751.5 701.5 c 128,-1,13
 768 685 768 685 777.5 662.5 c 128,-1,14
 787 640 787 640 787 614 c 2,15,-1
 787 450 l 2,16,17
 787 424 787 424 777.5 402 c 128,-1,18
 768 380 768 380 751.5 363 c 128,-1,19
 735 346 735 346 712.5 336.5 c 128,-1,20
 690 327 690 327 665 327 c 2,21,-1
 173 327 l 2,22,23
 157 327 157 327 145 315.5 c 128,-1,24
 133 304 133 304 133 288 c 2,25,-1
 133 123 l 2,26,27
 133 107 133 107 145 95 c 128,-1,28
 157 83 157 83 173 83 c 2,29,-1
 787 83 l 1,30,-1
 787 0 l 1,31,-1
 173 0 l 2,32,33
 147 0 147 0 124.5 9.5 c 128,-1,34
 102 19 102 19 86 35.5 c 128,-1,35
 70 52 70 52 60 74.5 c 128,-1,36
 50 97 50 97 50 123 c 2,37,-1
 50 288 l 2,38,39
 50 314 50 314 60 335.5 c 128,-1,40
 70 357 70 357 86 374 c 128,-1,41
 102 391 102 391 124.5 401 c 128,-1,42
 147 411 147 411 173 411 c 2,43,-1
 665 411 l 2,0,1
EndSplineSet
EndChar

StartChar: a
Encoding: 97 97 83
Width: 710
Flags: W
HStem: 0 84<141.433 573> 255 84<137 573> 510 84<53 561.655>
VStem: 53 84<88.4331 255> 573 85<84 255 339 497.624>
CounterMasks: 1 e0
LayerCount: 2
Fore
SplineSet
534 594 m 2,0,1
 560 594 560 594 582.5 584 c 128,-1,2
 605 574 605 574 622 557.5 c 128,-1,3
 639 541 639 541 648.5 518.5 c 128,-1,4
 658 496 658 496 658 470 c 2,5,-1
 658 0 l 1,6,-1
 177 0 l 2,7,8
 151 0 151 0 128.5 9.5 c 128,-1,9
 106 19 106 19 89.5 36 c 128,-1,10
 73 53 73 53 63 75.5 c 128,-1,11
 53 98 53 98 53 124 c 2,12,-1
 53 339 l 1,13,-1
 573 339 l 1,14,-1
 573 470 l 2,15,16
 573 486 573 486 562 498 c 128,-1,17
 551 510 551 510 534 510 c 2,18,-1
 53 510 l 1,19,-1
 53 594 l 1,20,-1
 534 594 l 2,0,1
573 255 m 1,21,-1
 137 255 l 1,22,-1
 137 124 l 2,23,24
 137 108 137 108 149 96 c 128,-1,25
 161 84 161 84 177 84 c 2,26,-1
 573 84 l 1,27,-1
 573 255 l 1,21,-1
EndSplineSet
Substitution2: "'smcp' Lowercase to Small Capitals in Latin lookup 3 subtable" a.sc
Substitution2: "'salt' Stylistic Alternatives in Latin lookup 2 subtable" a.alt
AlternateSubs2: "'aalt' Access All Alternates in Latin lookup 1 subtable" a.sc a.alt
EndChar

StartChar: a.alt
Encoding: 65557 -1 84
Width: 709
Flags: W
HStem: 0 84<140.433 572> 510 84<140.36 560.655>
VStem: 52 84<88.4331 505.567> 572 85<84 497.624>
LayerCount: 2
Fore
SplineSet
532 594 m 2,0,1
 558 594 558 594 581 584 c 128,-1,2
 604 574 604 574 621 557.5 c 128,-1,3
 638 541 638 541 647.5 518.5 c 128,-1,4
 657 496 657 496 657 470 c 2,5,-1
 657 0 l 1,6,-1
 176 0 l 2,7,8
 150 0 150 0 127.5 9.5 c 128,-1,9
 105 19 105 19 88.5 36 c 128,-1,10
 72 53 72 53 62 75.5 c 128,-1,11
 52 98 52 98 52 124 c 2,12,-1
 52 470 l 2,13,14
 52 496 52 496 62 518.5 c 128,-1,15
 72 541 72 541 88.5 557.5 c 128,-1,16
 105 574 105 574 128 584 c 128,-1,17
 151 594 151 594 176 594 c 2,18,-1
 532 594 l 2,0,1
572 84 m 1,19,-1
 572 470 l 2,20,21
 572 486 572 486 561 498 c 128,-1,22
 550 510 550 510 532 510 c 2,23,-1
 176 510 l 2,24,25
 160 510 160 510 148 498 c 128,-1,26
 136 486 136 486 136 470 c 2,27,-1
 136 124 l 2,28,29
 136 108 136 108 148 96 c 128,-1,30
 160 84 160 84 176 84 c 2,31,-1
 572 84 l 1,19,-1
EndSplineSet
EndChar

StartChar: a.sc
Encoding: 65558 -1 85
Width: 742
Flags: W
HStem: 0 21G<54 138 607 691> 164 85<138 607> 510 84<142.63 595.139>
VStem: 54 84<0 164 249 505.567> 607 84<0 164 249 497.624>
LayerCount: 2
Fore
SplineSet
567 594 m 2,0,1
 593 594 593 594 615.5 584 c 128,-1,2
 638 574 638 574 655 557.5 c 128,-1,3
 672 541 672 541 681.5 518.5 c 128,-1,4
 691 496 691 496 691 470 c 2,5,-1
 691 0 l 1,6,-1
 607 0 l 1,7,-1
 607 164 l 1,8,-1
 138 164 l 1,9,-1
 138 0 l 1,10,-1
 54 0 l 1,11,-1
 54 470 l 2,12,13
 54 496 54 496 64 518.5 c 128,-1,14
 74 541 74 541 91 557.5 c 128,-1,15
 108 574 108 574 130.5 584 c 128,-1,16
 153 594 153 594 178 594 c 2,17,-1
 567 594 l 2,0,1
607 249 m 1,18,-1
 607 470 l 2,19,20
 607 486 607 486 595.5 498 c 128,-1,21
 584 510 584 510 567 510 c 2,22,-1
 178 510 l 2,23,24
 162 510 162 510 150 498 c 128,-1,25
 138 486 138 486 138 470 c 2,26,-1
 138 249 l 1,27,-1
 607 249 l 1,18,-1
EndSplineSet
EndChar

StartChar: acute
Encoding: 180 180 88
Width: 218
Flags: W
HStem: 893 142<70 116>
VStem: 34 117
LayerCount: 2
Fore
SplineSet
70 1035 m 1,0,-1
 151 1035 l 1,1,-1
 116 893 l 1,2,-1
 34 893 l 1,3,-1
 70 1035 l 1,0,-1
EndSplineSet
EndChar

StartChar: ae
Encoding: 230 230 90
Width: 1206
Flags: W
HStem: 0 84<142.256 574 662.166 1179> 255 84<138 574 658 1095> 510 84<54 569.946 662.23 1090.57>
VStem: 54 84<88.4331 255> 574 84<88.3092 255 339 505.77> 1095 84<339 505.567>
CounterMasks: 1 e0
LayerCount: 2
Fore
SplineSet
1055 594 m 2,0,1
 1081 594 1081 594 1103.5 584 c 128,-1,2
 1126 574 1126 574 1142.5 557.5 c 128,-1,3
 1159 541 1159 541 1169 518.5 c 128,-1,4
 1179 496 1179 496 1179 470 c 2,5,-1
 1179 255 l 1,6,-1
 658 255 l 1,7,-1
 658 120 l 1,8,9
 660 105 660 105 671.5 94.5 c 128,-1,10
 683 84 683 84 698 84 c 2,11,-1
 1179 84 l 1,12,-1
 1179 0 l 1,13,-1
 178 0 l 2,14,15
 151 0 151 0 128.5 9.5 c 128,-1,16
 106 19 106 19 90 36 c 128,-1,17
 74 53 74 53 64 75.5 c 128,-1,18
 54 98 54 98 54 124 c 2,19,-1
 54 339 l 1,20,-1
 574 339 l 1,21,-1
 574 470 l 2,22,23
 574 486 574 486 562.5 498 c 128,-1,24
 551 510 551 510 535 510 c 2,25,-1
 54 510 l 1,26,-1
 54 594 l 1,27,-1
 1055 594 l 2,0,1
574 255 m 1,28,-1
 138 255 l 1,29,-1
 138 124 l 2,30,31
 138 108 138 108 150 96 c 128,-1,32
 162 84 162 84 178 84 c 2,33,-1
 574 84 l 1,34,-1
 574 255 l 1,28,-1
1095 339 m 1,35,-1
 1095 470 l 2,36,37
 1095 486 1095 486 1083 498 c 128,-1,38
 1071 510 1071 510 1055 510 c 2,39,-1
 698 510 l 2,40,41
 682 510 682 510 670 498 c 128,-1,42
 658 486 658 486 658 470 c 2,43,-1
 658 339 l 1,44,-1
 1095 339 l 1,35,-1
EndSplineSet
EndChar

StartChar: ampersand
Encoding: 38 38 92
Width: 960
Flags: W
HStem: 0 84<142.691 707.881> 384 27<148.901 156> 650 86<193.376 670.139>
VStem: 54 84<88.4331 379.673> 97 84<468 638.139> 682 85<575 637.624> 715 84<199 341>
LayerCount: 2
Fore
SplineSet
936 90 m 1,0,-1
 936 16 l 1,1,-1
 796 95 l 1,2,3
 779 52 779 52 746.5 26 c 128,-1,4
 714 0 714 0 675 0 c 2,5,-1
 178 0 l 2,6,7
 152 0 152 0 130 9.5 c 128,-1,8
 108 19 108 19 91 36 c 128,-1,9
 74 53 74 53 64 75.5 c 128,-1,10
 54 98 54 98 54 124 c 2,11,-1
 54 344 l 2,12,13
 54 353 54 353 60.5 365 c 128,-1,14
 67 377 67 377 79.5 386.5 c 128,-1,15
 92 396 92 396 111 403.5 c 128,-1,16
 130 411 130 411 156 411 c 1,17,18
 119 439 119 439 108 463.5 c 128,-1,19
 97 488 97 488 97 509 c 2,20,-1
 97 611 l 2,21,22
 97 637 97 637 107 660 c 128,-1,23
 117 683 117 683 134 700 c 128,-1,24
 151 717 151 717 173.5 726.5 c 128,-1,25
 196 736 196 736 221 736 c 2,26,-1
 642 736 l 2,27,28
 664 736 664 736 683.5 727.5 c 128,-1,29
 703 719 703 719 720 704 c 128,-1,30
 737 689 737 689 749 670 c 128,-1,31
 761 651 761 651 767 632 c 1,32,-1
 767 575 l 1,33,-1
 682 575 l 1,34,-1
 682 610 l 2,35,36
 682 626 682 626 670.5 638 c 128,-1,37
 659 650 659 650 642 650 c 2,38,-1
 221 650 l 2,39,40
 205 650 205 650 193 638.5 c 128,-1,41
 181 627 181 627 181 610 c 2,42,-1
 181 468 l 1,43,-1
 715 199 l 1,44,-1
 715 341 l 1,45,-1
 799 341 l 1,46,-1
 799 171 l 1,47,-1
 936 90 l 1,0,-1
675 84 m 2,48,49
 686 84 686 84 697.5 94 c 128,-1,50
 709 104 709 104 716 121 c 1,51,-1
 194 384 l 1,52,-1
 178 384 l 2,53,54
 162 384 162 384 150 372 c 128,-1,55
 138 360 138 360 138 344 c 2,56,-1
 138 124 l 2,57,58
 138 108 138 108 150 96 c 128,-1,59
 162 84 162 84 178 84 c 2,60,-1
 675 84 l 2,48,49
EndSplineSet
EndChar

StartChar: asciitilde
Encoding: 126 126 94
Width: 413
Flags: W
HStem: 251 39<236.458 370.907> 315 38<25 86.908 88.9678 181.007> 324 38<25.6731 162.598>
LayerCount: 2
Fore
SplineSet
304 290 m 2,0,1
 337 290 337 290 372 306 c 1,2,-1
 372 264 l 1,3,4
 358 259 358 259 340.5 255 c 128,-1,5
 323 251 323 251 304 251 c 0,6,7
 276 251 276 251 250.5 262 c 128,-1,8
 225 273 225 273 199 287 c 128,-1,9
 173 301 173 301 146 312.5 c 128,-1,10
 119 324 119 324 88 324 c 0,11,12
 76 324 76 324 58 322.5 c 128,-1,13
 40 321 40 321 25 315 c 1,14,-1
 25 353 l 1,15,16
 53 362 53 362 88 362 c 0,17,18
 117 362 117 362 143.5 352 c 128,-1,19
 170 342 170 342 195.5 329 c 128,-1,20
 221 316 221 316 247 304.5 c 128,-1,21
 273 293 273 293 302 290 c 1,22,-1
 304 290 l 2,0,1
EndSplineSet
EndChar

StartChar: asterisk
Encoding: 42 42 95
Width: 502
Flags: W
HStem: 716 20G<201 285>
VStem: 201 84<580 736>
LayerCount: 2
Fore
SplineSet
461 548 m 1,0,-1
 311 500 l 1,1,2
 320 487 320 487 331.5 470.5 c 128,-1,3
 343 454 343 454 355.5 437 c 128,-1,4
 368 420 368 420 380 403 c 128,-1,5
 392 386 392 386 403 372 c 1,6,7
 383 358 383 358 369 347 c 128,-1,8
 355 336 355 336 336 323 c 1,9,-1
 243 449 l 1,10,-1
 151 323 l 1,11,12
 131 338 131 338 116 347 c 128,-1,13
 101 356 101 356 82 371 c 1,14,-1
 174 500 l 1,15,-1
 26 548 l 1,16,-1
 50 629 l 1,17,-1
 201 579 l 1,18,-1
 201 736 l 1,19,-1
 285 736 l 1,20,-1
 285 580 l 1,21,-1
 433 629 l 1,22,-1
 461 548 l 1,0,-1
EndSplineSet
EndChar

StartChar: at
Encoding: 64 64 96
Width: 850
Flags: W
HStem: 0 84<146.503 803> 197 63<332.86 541 603 719> 469 62<325.627 536.414> 652 85<154.376 714.567>
VStem: 58 84<88.4331 640.139> 258 63<271.861 464.731> 541 62<260 464.414> 719 84<260 647.77>
LayerCount: 2
Fore
SplineSet
479 531 m 2,0,1
 505 531 505 531 527.5 521.5 c 128,-1,2
 550 512 550 512 567 495 c 128,-1,3
 584 478 584 478 593.5 455.5 c 128,-1,4
 603 433 603 433 603 408 c 2,5,-1
 603 260 l 1,6,-1
 719 260 l 1,7,-1
 719 612 l 2,8,9
 719 628 719 628 707 640 c 128,-1,10
 695 652 695 652 679 652 c 2,11,-1
 182 652 l 2,12,13
 166 652 166 652 154 640.5 c 128,-1,14
 142 629 142 629 142 612 c 2,15,-1
 142 124 l 2,16,17
 142 108 142 108 154 96 c 128,-1,18
 166 84 166 84 182 84 c 2,19,-1
 803 84 l 1,20,-1
 803 0 l 1,21,-1
 182 0 l 2,22,23
 155 0 155 0 133 9.5 c 128,-1,24
 111 19 111 19 94.5 36 c 128,-1,25
 78 53 78 53 68 75.5 c 128,-1,26
 58 98 58 98 58 124 c 2,27,-1
 58 612 l 2,28,29
 58 638 58 638 68 661 c 128,-1,30
 78 684 78 684 94.5 701 c 128,-1,31
 111 718 111 718 133.5 727.5 c 128,-1,32
 156 737 156 737 182 737 c 2,33,-1
 679 737 l 2,34,35
 705 737 705 737 727.5 727.5 c 128,-1,36
 750 718 750 718 766.5 701 c 128,-1,37
 783 684 783 684 793 661 c 128,-1,38
 803 638 803 638 803 612 c 2,39,-1
 803 197 l 1,40,-1
 382 197 l 2,41,42
 355 197 355 197 332.5 206.5 c 128,-1,43
 310 216 310 216 294 233 c 128,-1,44
 278 250 278 250 268 272.5 c 128,-1,45
 258 295 258 295 258 322 c 2,46,-1
 258 408 l 2,47,48
 258 434 258 434 268 456 c 128,-1,49
 278 478 278 478 294 495 c 128,-1,50
 310 512 310 512 332.5 521.5 c 128,-1,51
 355 531 355 531 382 531 c 2,52,-1
 479 531 l 2,0,1
541 260 m 1,53,-1
 541 429 l 2,54,55
 541 445 541 445 529 457 c 128,-1,56
 517 469 517 469 501 469 c 2,57,-1
 360 469 l 2,58,59
 344 469 344 469 332.5 457 c 128,-1,60
 321 445 321 445 321 429 c 2,61,-1
 321 300 l 2,62,63
 321 283 321 283 332.5 271.5 c 128,-1,64
 344 260 344 260 360 260 c 2,65,-1
 541 260 l 1,53,-1
EndSplineSet
EndChar

StartChar: b
Encoding: 98 98 98
Width: 683
Flags: W
HStem: 0 84<143.23 572.37> 510 84<143.23 572.309> 768 20G<55 139>
VStem: 55 84<88.4561 505.544 594 788> 577 83<88.4331 505.567>
LayerCount: 2
Fore
SplineSet
537 594 m 2,0,1
 563 594 563 594 585 584 c 128,-1,2
 607 574 607 574 624 557.5 c 128,-1,3
 641 541 641 541 650.5 518.5 c 128,-1,4
 660 496 660 496 660 470 c 2,5,-1
 660 124 l 2,6,7
 660 98 660 98 650.5 75.5 c 128,-1,8
 641 53 641 53 624 36 c 128,-1,9
 607 19 607 19 584.5 9.5 c 128,-1,10
 562 0 562 0 537 0 c 2,11,-1
 55 0 l 1,12,-1
 55 788 l 1,13,-1
 139 788 l 1,14,-1
 139 594 l 1,15,-1
 537 594 l 2,0,1
577 470 m 2,16,17
 577 486 577 486 565 498 c 128,-1,18
 553 510 553 510 537 510 c 2,19,-1
 180 510 l 2,20,21
 163 510 163 510 151 498 c 128,-1,22
 139 486 139 486 139 470 c 2,23,-1
 139 124 l 2,24,25
 139 108 139 108 151 96 c 128,-1,26
 163 84 163 84 180 84 c 2,27,-1
 537 84 l 2,28,29
 553 84 553 84 565 96 c 128,-1,30
 577 108 577 108 577 124 c 2,31,-1
 577 470 l 2,16,17
EndSplineSet
Substitution2: "'smcp' Lowercase to Small Capitals in Latin lookup 3 subtable" b.sc
Substitution2: "'aalt' Access All Alternates in Latin lookup 0 subtable" b.sc
EndChar

StartChar: b.sc
Encoding: 65559 -1 99
Width: 716
Flags: W
HStem: 0 84<143.23 582.37> 252 84<143.23 541.624> 511 84<143.23 549.77>
VStem: 55 84<88.2305 247.77 340.23 506.77> 554 85<347.861 506.567> 587 84<88.4331 247.471>
LayerCount: 2
Fore
SplineSet
630 303 m 1,0,1
 648 286 648 286 659.5 262.5 c 128,-1,2
 671 239 671 239 671 212 c 2,3,-1
 671 124 l 2,4,5
 671 98 671 98 661 75.5 c 128,-1,6
 651 53 651 53 634 36 c 128,-1,7
 617 19 617 19 594.5 9.5 c 128,-1,8
 572 0 572 0 547 0 c 2,9,-1
 55 0 l 1,10,-1
 55 595 l 1,11,-1
 514 595 l 2,12,13
 540 595 540 595 563 585 c 128,-1,14
 586 575 586 575 603 558.5 c 128,-1,15
 620 542 620 542 629.5 519.5 c 128,-1,16
 639 497 639 497 639 471 c 2,17,-1
 639 376 l 2,18,19
 639 362 639 362 635 348 c 128,-1,20
 631 334 631 334 626 322 c 1,21,-1
 630 303 l 1,0,1
179 511 m 2,22,23
 163 511 163 511 151 499 c 128,-1,24
 139 487 139 487 139 471 c 2,25,-1
 139 376 l 2,26,27
 139 360 139 360 151 348 c 128,-1,28
 163 336 163 336 179 336 c 2,29,-1
 514 336 l 2,30,31
 530 336 530 336 542 347.5 c 128,-1,32
 554 359 554 359 554 376 c 2,33,-1
 554 471 l 2,34,35
 554 487 554 487 542 499 c 128,-1,36
 530 511 530 511 514 511 c 2,37,-1
 179 511 l 2,22,23
587 212 m 2,38,39
 587 228 587 228 575 240 c 128,-1,40
 563 252 563 252 547 252 c 2,41,-1
 179 252 l 2,42,43
 163 252 163 252 151 240 c 128,-1,44
 139 228 139 228 139 212 c 2,45,-1
 139 124 l 2,46,47
 139 108 139 108 151 96 c 128,-1,48
 163 84 163 84 179 84 c 2,49,-1
 547 84 l 2,50,51
 563 84 563 84 575 96 c 128,-1,52
 587 108 587 108 587 124 c 2,53,-1
 587 212 l 2,38,39
EndSplineSet
EndChar

StartChar: backslash
Encoding: 92 92 100
Width: 532
Flags: W
HStem: 1 21G<506.685 523>
LayerCount: 2
Fore
SplineSet
523 1 m 1,0,-1
 5 636 l 1,1,-1
 5 742 l 1,2,-1
 523 110 l 1,3,-1
 523 1 l 1,0,-1
EndSplineSet
EndChar

StartChar: bar
Encoding: 124 124 101
Width: 219
Flags: W
VStem: 55 84<-118 862>
LayerCount: 2
Fore
SplineSet
55 862 m 1,0,-1
 139 862 l 1,1,-1
 139 -118 l 1,2,-1
 55 -118 l 1,3,-1
 55 862 l 1,0,-1
EndSplineSet
EndChar

StartChar: braceleft
Encoding: 123 123 102
Width: 295
Flags: W
HStem: 0 84<167.861 225> 652 85<168.376 225>
VStem: 72 84<96.376 298 444 640.139>
LayerCount: 2
Fore
SplineSet
156 124 m 2,0,1
 156 108 156 108 167.5 96 c 128,-1,2
 179 84 179 84 196 84 c 2,3,-1
 225 84 l 1,4,-1
 225 0 l 1,5,-1
 196 0 l 2,6,7
 170 0 170 0 147.5 9.5 c 128,-1,8
 125 19 125 19 108 36 c 128,-1,9
 91 53 91 53 81.5 75.5 c 128,-1,10
 72 98 72 98 72 124 c 2,11,-1
 72 291 l 1,12,13
 63 296 63 296 49 304.5 c 128,-1,14
 35 313 35 313 24 321 c 1,15,-1
 24 419 l 1,16,-1
 72 444 l 1,17,-1
 72 612 l 2,18,19
 72 638 72 638 81.5 661 c 128,-1,20
 91 684 91 684 108 701 c 128,-1,21
 125 718 125 718 147.5 727.5 c 128,-1,22
 170 737 170 737 196 737 c 2,23,-1
 225 737 l 1,24,-1
 225 652 l 1,25,-1
 196 652 l 2,26,27
 180 652 180 652 168 640.5 c 128,-1,28
 156 629 156 629 156 612 c 2,29,-1
 156 437 l 1,30,-1
 70 369 l 1,31,-1
 156 298 l 1,32,-1
 156 124 l 2,0,1
EndSplineSet
EndChar

StartChar: braceright
Encoding: 125 125 103
Width: 295
Flags: W
HStem: 0 84<52 117.567> 652 85<52 117.567>
VStem: 122 84<88.4331 290 435 647.77>
LayerCount: 2
Fore
SplineSet
122 297 m 1,0,-1
 208 368 l 1,1,-1
 122 435 l 1,2,-1
 122 612 l 2,3,4
 122 628 122 628 110 640 c 128,-1,5
 98 652 98 652 82 652 c 2,6,-1
 52 652 l 1,7,-1
 52 737 l 1,8,-1
 82 737 l 2,9,10
 108 737 108 737 130.5 727.5 c 128,-1,11
 153 718 153 718 169.5 701 c 128,-1,12
 186 684 186 684 196 661 c 128,-1,13
 206 638 206 638 206 612 c 2,14,-1
 206 444 l 1,15,16
 217 439 217 439 229.5 431 c 128,-1,17
 242 423 242 423 253 417 c 1,18,-1
 253 319 l 1,19,-1
 206 290 l 1,20,-1
 206 124 l 2,21,22
 206 98 206 98 196 75.5 c 128,-1,23
 186 53 186 53 169.5 36 c 128,-1,24
 153 19 153 19 130.5 9.5 c 128,-1,25
 108 0 108 0 82 0 c 2,26,-1
 52 0 l 1,27,-1
 52 84 l 1,28,-1
 82 84 l 2,29,30
 98 84 98 84 110 96 c 128,-1,31
 122 108 122 108 122 124 c 2,32,-1
 122 297 l 1,0,-1
EndSplineSet
EndChar

StartChar: bracketleft
Encoding: 91 91 104
Width: 281
Flags: W
HStem: 0 84<139 209> 653 85<139 209>
VStem: 55 154<0 84 653 738> 55 84<84 653>
LayerCount: 2
Fore
SplineSet
55 738 m 1,0,-1
 209 738 l 1,1,-1
 209 653 l 1,2,-1
 139 653 l 1,3,-1
 139 84 l 1,4,-1
 209 84 l 1,5,-1
 209 0 l 1,6,-1
 55 0 l 1,7,-1
 55 738 l 1,0,-1
EndSplineSet
EndChar

StartChar: bracketright
Encoding: 93 93 105
Width: 282
Flags: W
HStem: 0 84<52 121> 653 85<52 121>
VStem: 52 154<0 84 653 738> 121 85<84 653>
LayerCount: 2
Fore
SplineSet
52 738 m 1,0,-1
 206 738 l 1,1,-1
 206 0 l 1,2,-1
 52 0 l 1,3,-1
 52 84 l 1,4,-1
 121 84 l 1,5,-1
 121 653 l 1,6,-1
 52 653 l 1,7,-1
 52 738 l 1,0,-1
EndSplineSet
EndChar

StartChar: breve
Encoding: 728 728 106
Width: 293
Flags: W
HStem: 893 34<77.6119 193.842>
VStem: 41 33<936.798 962> 199 31<934.736 962>
LayerCount: 2
Fore
SplineSet
230 962 m 1,0,1
 229 936 229 936 213.5 914.5 c 128,-1,2
 198 893 198 893 164 893 c 2,3,-1
 108 893 l 2,4,5
 75 893 75 893 58.5 914.5 c 128,-1,6
 42 936 42 936 41 962 c 1,7,-1
 74 962 l 1,8,9
 74 946 74 946 77.5 936.5 c 128,-1,10
 81 927 81 927 95 927 c 2,11,-1
 177 927 l 2,12,13
 189 927 189 927 194 934.5 c 128,-1,14
 199 942 199 942 199 955 c 2,15,-1
 199 962 l 1,16,-1
 230 962 l 1,0,1
EndSplineSet
EndChar

StartChar: bullet
Encoding: 8226 8226 107
Width: 379
Flags: W
HStem: 333 80<147.573 230.653>
VStem: 147 84<333.438 412.531>
LayerCount: 2
Fore
SplineSet
202 413 m 2,0,1
 232 413 232 413 231 383 c 2,2,-1
 231 361 l 2,3,4
 231 332 231 332 202 333 c 2,5,-1
 176 333 l 2,6,7
 147 333 147 333 147 361 c 2,8,-1
 147 383 l 2,9,10
 147 413 147 413 176 413 c 2,11,-1
 202 413 l 2,0,1
EndSplineSet
EndChar

StartChar: c
Encoding: 99 99 108
Width: 711
Flags: W
HStem: 0 84<140.433 657> 510 84<140.36 655>
VStem: 52 84<88.4331 505.567>
LayerCount: 2
Fore
SplineSet
657 84 m 1,0,-1
 657 0 l 1,1,-1
 176 0 l 2,2,3
 150 0 150 0 127.5 9.5 c 128,-1,4
 105 19 105 19 88.5 36 c 128,-1,5
 72 53 72 53 62 75.5 c 128,-1,6
 52 98 52 98 52 124 c 2,7,-1
 52 470 l 2,8,9
 52 496 52 496 62 518.5 c 128,-1,10
 72 541 72 541 88.5 557.5 c 128,-1,11
 105 574 105 574 128 584 c 128,-1,12
 151 594 151 594 176 594 c 2,13,-1
 655 594 l 1,14,-1
 655 510 l 1,15,-1
 176 510 l 2,16,17
 160 510 160 510 148 498 c 128,-1,18
 136 486 136 486 136 470 c 2,19,-1
 136 124 l 2,20,21
 136 108 136 108 148 96 c 128,-1,22
 160 84 160 84 176 84 c 2,23,-1
 657 84 l 1,0,-1
EndSplineSet
Substitution2: "'smcp' Lowercase to Small Capitals in Latin lookup 3 subtable" c.sc
Substitution2: "'aalt' Access All Alternates in Latin lookup 0 subtable" c.sc
EndChar

StartChar: c.sc
Encoding: 65560 -1 109
Width: 709
Flags: W
HStem: 0 84<140.433 655> 511 84<140.36 655>
VStem: 52 84<88.4331 506.567>
LayerCount: 2
Fore
SplineSet
176 511 m 2,0,1
 160 511 160 511 148 499 c 128,-1,2
 136 487 136 487 136 471 c 2,3,-1
 136 124 l 2,4,5
 136 108 136 108 148 96 c 128,-1,6
 160 84 160 84 176 84 c 2,7,-1
 655 84 l 1,8,-1
 655 0 l 1,9,-1
 176 0 l 2,10,11
 150 0 150 0 127.5 9.5 c 128,-1,12
 105 19 105 19 88.5 36 c 128,-1,13
 72 53 72 53 62 75.5 c 128,-1,14
 52 98 52 98 52 124 c 2,15,-1
 52 471 l 2,16,17
 52 497 52 497 62 519.5 c 128,-1,18
 72 542 72 542 88.5 558.5 c 128,-1,19
 105 575 105 575 128 585 c 128,-1,20
 151 595 151 595 176 595 c 2,21,-1
 655 595 l 1,22,-1
 655 511 l 1,23,-1
 176 511 l 2,0,1
EndSplineSet
EndChar

StartChar: caron
Encoding: 711 711 110
Width: 304
Flags: W
HStem: 892 120
VStem: 28 205
LayerCount: 2
Fore
SplineSet
71 1012 m 1,0,-1
 132 925 l 1,1,-1
 191 1012 l 1,2,-1
 233 1012 l 1,3,-1
 162 892 l 1,4,-1
 101 892 l 1,5,-1
 28 1012 l 1,6,-1
 71 1012 l 1,0,-1
EndSplineSet
EndChar

StartChar: ccedilla
Encoding: 231 231 111
Width: 709
Flags: W
HStem: 0 84<140.433 314 395 657> 510 84<140.36 655>
VStem: 52 84<88.4331 505.567>
LayerCount: 2
Fore
SplineSet
657 84 m 1,0,-1
 657 0 l 1,1,-1
 395 0 l 1,2,-1
 360 -142 l 1,3,-1
 279 -142 l 1,4,-1
 314 0 l 1,5,-1
 176 0 l 2,6,7
 150 0 150 0 127.5 9.5 c 128,-1,8
 105 19 105 19 88.5 36 c 128,-1,9
 72 53 72 53 62 75.5 c 128,-1,10
 52 98 52 98 52 124 c 2,11,-1
 52 470 l 2,12,13
 52 496 52 496 62 518.5 c 128,-1,14
 72 541 72 541 88.5 557.5 c 128,-1,15
 105 574 105 574 128 584 c 128,-1,16
 151 594 151 594 176 594 c 2,17,-1
 655 594 l 1,18,-1
 655 510 l 1,19,-1
 176 510 l 2,20,21
 160 510 160 510 148 498 c 128,-1,22
 136 486 136 486 136 470 c 2,23,-1
 136 124 l 2,24,25
 136 108 136 108 148 96 c 128,-1,26
 160 84 160 84 176 84 c 2,27,-1
 657 84 l 1,0,-1
EndSplineSet
EndChar

StartChar: cedilla
Encoding: 184 184 112
Width: 218
Flags: W
HStem: -175 142<70 116>
VStem: 34 117
LayerCount: 2
Fore
SplineSet
70 -33 m 1,0,-1
 151 -33 l 1,1,-1
 116 -175 l 1,2,-1
 34 -175 l 1,3,-1
 70 -33 l 1,0,-1
EndSplineSet
EndChar

StartChar: cent
Encoding: 162 162 113
Width: 651
Flags: W
HStem: 0 84<129.861 294 378 636> 520 85<130.376 294 378 636>
VStem: 34 84<96.376 508.139> 294 84<-118 0 84 520 605 743>
LayerCount: 2
Fore
SplineSet
378 520 m 1,0,-1
 378 84 l 1,1,-1
 636 84 l 1,2,-1
 636 0 l 1,3,-1
 378 0 l 1,4,-1
 378 -118 l 1,5,-1
 294 -118 l 1,6,-1
 294 0 l 1,7,-1
 158 0 l 2,8,9
 131 0 131 0 108.5 9.5 c 128,-1,10
 86 19 86 19 69.5 36 c 128,-1,11
 53 53 53 53 43.5 75.5 c 128,-1,12
 34 98 34 98 34 124 c 2,13,-1
 34 480 l 2,14,15
 34 506 34 506 43.5 529 c 128,-1,16
 53 552 53 552 69.5 569 c 128,-1,17
 86 586 86 586 108.5 595.5 c 128,-1,18
 131 605 131 605 158 605 c 2,19,-1
 294 605 l 1,20,-1
 294 743 l 1,21,-1
 378 743 l 1,22,-1
 378 605 l 1,23,-1
 636 605 l 1,24,-1
 636 520 l 1,25,-1
 378 520 l 1,0,-1
294 520 m 1,26,-1
 158 520 l 2,27,28
 142 520 142 520 130 508.5 c 128,-1,29
 118 497 118 497 118 480 c 2,30,-1
 118 124 l 2,31,32
 118 108 118 108 129.5 96 c 128,-1,33
 141 84 141 84 158 84 c 2,34,-1
 294 84 l 1,35,-1
 294 520 l 1,26,-1
EndSplineSet
EndChar

StartChar: circumflex
Encoding: 710 710 114
Width: 307
Flags: W
HStem: 892 120
VStem: 29 205
LayerCount: 2
Fore
SplineSet
29 892 m 1,0,-1
 101 1012 l 1,1,-1
 162 1012 l 1,2,-1
 234 892 l 1,3,-1
 191 892 l 1,4,-1
 132 979 l 1,5,-1
 71 892 l 1,6,-1
 29 892 l 1,0,-1
EndSplineSet
EndChar

StartChar: colon
Encoding: 58 58 115
Width: 219
Flags: W
HStem: 0 84<55 139> 518 84<55 139>
VStem: 55 84<0 84 518 602>
LayerCount: 2
Fore
SplineSet
139 84 m 1,0,-1
 139 0 l 1,1,-1
 55 0 l 1,2,-1
 55 84 l 1,3,-1
 139 84 l 1,0,-1
139 518 m 1,4,-1
 55 518 l 1,5,-1
 55 602 l 1,6,-1
 139 602 l 1,7,-1
 139 518 l 1,4,-1
EndSplineSet
EndChar

StartChar: comma
Encoding: 44 44 116
Width: 197
Flags: W
HStem: -134 218<55 95.0807>
VStem: 55 84<-87.9902 84>
LayerCount: 2
Fore
SplineSet
139 84 m 1,0,-1
 139 -16 l 2,1,2
 139 -58 139 -58 115.5 -90 c 128,-1,3
 92 -122 92 -122 55 -134 c 1,4,-1
 55 84 l 1,5,-1
 139 84 l 1,0,-1
EndSplineSet
EndChar

StartChar: d
Encoding: 100 100 117
Width: 683
Flags: W
HStem: 0 84<113.238 540.77> 510 84<113.168 540.77> 768 20G<545 629>
VStem: 24 85<88.4331 505.567> 545 84<88.2305 505.77 594 788>
LayerCount: 2
Fore
SplineSet
629 788 m 1,0,-1
 629 0 l 1,1,-1
 148 0 l 2,2,3
 121 0 121 0 99 9.5 c 128,-1,4
 77 19 77 19 60 36 c 128,-1,5
 43 53 43 53 33.5 75.5 c 128,-1,6
 24 98 24 98 24 124 c 2,7,-1
 24 470 l 2,8,9
 24 496 24 496 33.5 518.5 c 128,-1,10
 43 541 43 541 60 557.5 c 128,-1,11
 77 574 77 574 99.5 584 c 128,-1,12
 122 594 122 594 148 594 c 2,13,-1
 545 594 l 1,14,-1
 545 788 l 1,15,-1
 629 788 l 1,0,-1
505 84 m 2,16,17
 521 84 521 84 533 96 c 128,-1,18
 545 108 545 108 545 124 c 2,19,-1
 545 470 l 2,20,21
 545 486 545 486 533 498 c 128,-1,22
 521 510 521 510 505 510 c 2,23,-1
 148 510 l 2,24,25
 132 510 132 510 120.5 498 c 128,-1,26
 109 486 109 486 109 470 c 2,27,-1
 109 124 l 2,28,29
 109 108 109 108 120.5 96 c 128,-1,30
 132 84 132 84 148 84 c 2,31,-1
 505 84 l 2,16,17
EndSplineSet
Substitution2: "'smcp' Lowercase to Small Capitals in Latin lookup 3 subtable" d.sc
Substitution2: "'aalt' Access All Alternates in Latin lookup 0 subtable" d.sc
EndChar

StartChar: d.sc
Encoding: 65561 -1 118
Width: 721
Flags: W
HStem: 0 84<143.23 582.37> 511 84<143.23 582.309>
VStem: 55 84<88.2305 506.77> 587 84<88.4331 506.567>
LayerCount: 2
Fore
SplineSet
547 595 m 2,0,1
 573 595 573 595 595 585 c 128,-1,2
 617 575 617 575 634 558.5 c 128,-1,3
 651 542 651 542 661 519.5 c 128,-1,4
 671 497 671 497 671 471 c 2,5,-1
 671 124 l 2,6,7
 671 98 671 98 661 75.5 c 128,-1,8
 651 53 651 53 634 36 c 128,-1,9
 617 19 617 19 594.5 9.5 c 128,-1,10
 572 0 572 0 547 0 c 2,11,-1
 55 0 l 1,12,-1
 55 595 l 1,13,-1
 547 595 l 2,0,1
587 471 m 2,14,15
 587 487 587 487 575 499 c 128,-1,16
 563 511 563 511 547 511 c 2,17,-1
 179 511 l 2,18,19
 163 511 163 511 151 499 c 128,-1,20
 139 487 139 487 139 471 c 2,21,-1
 139 124 l 2,22,23
 139 108 139 108 151 96 c 128,-1,24
 163 84 163 84 179 84 c 2,25,-1
 547 84 l 2,26,27
 563 84 563 84 575 96 c 128,-1,28
 587 108 587 108 587 124 c 2,29,-1
 587 471 l 2,14,15
EndSplineSet
EndChar

StartChar: degree
Encoding: 176 176 119
Width: 449
Flags: W
HStem: 411 62<113.273 325.77> 682 63<120.86 317.624>
VStem: 46 63<476.919 670.139> 330 62<477.586 670.139>
LayerCount: 2
Fore
SplineSet
267 745 m 2,0,1
 293 745 293 745 316 735.5 c 128,-1,2
 339 726 339 726 356 709 c 128,-1,3
 373 692 373 692 382.5 669 c 128,-1,4
 392 646 392 646 392 621 c 2,5,-1
 392 535 l 2,6,7
 392 509 392 509 382.5 486.5 c 128,-1,8
 373 464 373 464 356 447 c 128,-1,9
 339 430 339 430 316 420.5 c 128,-1,10
 293 411 293 411 267 411 c 2,11,-1
 171 411 l 2,12,13
 144 411 144 411 121.5 420.5 c 128,-1,14
 99 430 99 430 82.5 447 c 128,-1,15
 66 464 66 464 56 486.5 c 128,-1,16
 46 509 46 509 46 535 c 2,17,-1
 46 621 l 2,18,19
 46 647 46 647 56 669.5 c 128,-1,20
 66 692 66 692 82.5 709 c 128,-1,21
 99 726 99 726 121.5 735.5 c 128,-1,22
 144 745 144 745 171 745 c 2,23,-1
 267 745 l 2,0,1
290 473 m 2,24,25
 306 473 306 473 318 485 c 128,-1,26
 330 497 330 497 330 513 c 2,27,-1
 330 642 l 2,28,29
 330 659 330 659 318 670.5 c 128,-1,30
 306 682 306 682 290 682 c 2,31,-1
 148 682 l 2,32,33
 132 682 132 682 120.5 670.5 c 128,-1,34
 109 659 109 659 109 642 c 2,35,-1
 109 513 l 2,36,37
 109 497 109 497 120.5 485 c 128,-1,38
 132 473 132 473 148 473 c 2,39,-1
 290 473 l 2,24,25
EndSplineSet
EndChar

StartChar: dieresis
Encoding: 168 168 120
Width: 394
Flags: W
HStem: 893 84<55 140 240 324>
VStem: 55 85<893 977> 240 84<893 977>
LayerCount: 2
Fore
SplineSet
324 893 m 1,0,-1
 240 893 l 1,1,-1
 240 977 l 1,2,-1
 324 977 l 1,3,-1
 324 893 l 1,0,-1
140 893 m 1,4,-1
 55 893 l 1,5,-1
 55 977 l 1,6,-1
 140 977 l 1,7,-1
 140 893 l 1,4,-1
EndSplineSet
EndChar

StartChar: divide
Encoding: 247 247 121
Width: 520
Flags: W
HStem: 1 84<220 304> 261 84<18 504> 509 84<220 304>
VStem: 220 84<1 85 509 593>
LayerCount: 2
Fore
SplineSet
504 261 m 1,0,-1
 18 261 l 1,1,-1
 18 345 l 1,2,-1
 504 345 l 1,3,-1
 504 261 l 1,0,-1
304 85 m 1,4,-1
 304 1 l 1,5,-1
 220 1 l 1,6,-1
 220 85 l 1,7,-1
 304 85 l 1,4,-1
304 509 m 1,8,-1
 220 509 l 1,9,-1
 220 593 l 1,10,-1
 304 593 l 1,11,-1
 304 509 l 1,8,-1
EndSplineSet
EndChar

StartChar: dollar
Encoding: 36 36 122
Width: 806
Flags: W
HStem: 0 84<130.861 366 450 690.77> 328 84<130.861 366 450 683.139> 653 85<131.376 366 450 683.139>
VStem: 35 84<96.376 154 424.376 641.139> 366 84<-117 0 84 328 412 653 738 855> 695 85<88.4331 315.624 585 640.624>
LayerCount: 2
Fore
SplineSet
780 585 m 1,0,-1
 695 585 l 1,1,-1
 695 613 l 2,2,3
 695 629 695 629 683.5 641 c 128,-1,4
 672 653 672 653 655 653 c 2,5,-1
 450 653 l 1,6,-1
 450 412 l 1,7,-1
 655 412 l 2,8,9
 681 412 681 412 704 402 c 128,-1,10
 727 392 727 392 744 375 c 128,-1,11
 761 358 761 358 770.5 335.5 c 128,-1,12
 780 313 780 313 780 288 c 2,13,-1
 780 124 l 2,14,15
 780 98 780 98 770.5 75.5 c 128,-1,16
 761 53 761 53 744 36 c 128,-1,17
 727 19 727 19 704 9.5 c 128,-1,18
 681 0 681 0 655 0 c 2,19,-1
 450 0 l 1,20,-1
 450 -117 l 1,21,-1
 366 -117 l 1,22,-1
 366 0 l 1,23,-1
 159 0 l 2,24,25
 133 0 133 0 110.5 9.5 c 128,-1,26
 88 19 88 19 71 36 c 128,-1,27
 54 53 54 53 44.5 75.5 c 128,-1,28
 35 98 35 98 35 124 c 2,29,-1
 35 154 l 1,30,-1
 119 154 l 1,31,-1
 119 124 l 2,32,33
 119 108 119 108 130.5 96 c 128,-1,34
 142 84 142 84 159 84 c 2,35,-1
 366 84 l 1,36,-1
 366 328 l 1,37,-1
 159 328 l 2,38,39
 133 328 133 328 110.5 337.5 c 128,-1,40
 88 347 88 347 71 363.5 c 128,-1,41
 54 380 54 380 44.5 402.5 c 128,-1,42
 35 425 35 425 35 452 c 2,43,-1
 35 613 l 2,44,45
 35 639 35 639 44.5 662 c 128,-1,46
 54 685 54 685 71 702 c 128,-1,47
 88 719 88 719 110.5 728.5 c 128,-1,48
 133 738 133 738 159 738 c 2,49,-1
 366 738 l 1,50,-1
 366 855 l 1,51,-1
 450 855 l 1,52,-1
 450 738 l 1,53,-1
 655 738 l 2,54,55
 681 738 681 738 704 728.5 c 128,-1,56
 727 719 727 719 744 702 c 128,-1,57
 761 685 761 685 770.5 662 c 128,-1,58
 780 639 780 639 780 613 c 2,59,-1
 780 585 l 1,0,-1
450 328 m 1,60,-1
 450 84 l 1,61,-1
 655 84 l 2,62,63
 671 84 671 84 683 96 c 128,-1,64
 695 108 695 108 695 124 c 2,65,-1
 695 288 l 2,66,67
 695 304 695 304 683.5 316 c 128,-1,68
 672 328 672 328 655 328 c 2,69,-1
 450 328 l 1,60,-1
366 653 m 1,70,-1
 159 653 l 2,71,72
 143 653 143 653 131 641.5 c 128,-1,73
 119 630 119 630 119 613 c 2,74,-1
 119 452 l 2,75,76
 119 436 119 436 130.5 424 c 128,-1,77
 142 412 142 412 159 412 c 2,78,-1
 366 412 l 1,79,-1
 366 653 l 1,70,-1
EndSplineSet
EndChar

StartChar: dotaccent
Encoding: 729 729 123
Width: 238
Flags: W
HStem: 894 119<58.8917 156.108>
VStem: 46 123<906.376 1000.62>
LayerCount: 2
Fore
SplineSet
127 1013 m 2,0,1
 144 1013 144 1013 156.5 1001 c 128,-1,2
 169 989 169 989 169 972 c 2,3,-1
 169 935 l 2,4,5
 169 918 169 918 156.5 906 c 128,-1,6
 144 894 144 894 127 894 c 2,7,-1
 88 894 l 2,8,9
 71 894 71 894 58.5 906 c 128,-1,10
 46 918 46 918 46 935 c 2,11,-1
 46 972 l 2,12,13
 46 989 46 989 58.5 1001 c 128,-1,14
 71 1013 71 1013 88 1013 c 2,15,-1
 127 1013 l 2,0,1
EndSplineSet
EndChar

StartChar: dotlessi
Encoding: 305 305 124
Width: 219
Flags: W
HStem: 0 21G<53 137> 574 20G<53 137>
VStem: 53 84<0 594>
LayerCount: 2
Fore
SplineSet
53 594 m 1,0,-1
 137 594 l 1,1,-1
 137 0 l 1,2,-1
 53 0 l 1,3,-1
 53 594 l 1,0,-1
EndSplineSet
EndChar

StartChar: e
Encoding: 101 101 125
Width: 708
Flags: W
HStem: 0 84<140.433 657> 255 84<136 572> 510 84<140.36 560.655>
VStem: 52 84<88.4331 255 339 505.567> 572 85<339 497.624>
CounterMasks: 1 e0
LayerCount: 2
Fore
SplineSet
532 594 m 2,0,1
 558 594 558 594 581 584 c 128,-1,2
 604 574 604 574 621 557.5 c 128,-1,3
 638 541 638 541 647.5 518.5 c 128,-1,4
 657 496 657 496 657 470 c 2,5,-1
 657 255 l 1,6,-1
 136 255 l 1,7,-1
 136 124 l 2,8,9
 136 108 136 108 148 96 c 128,-1,10
 160 84 160 84 176 84 c 2,11,-1
 657 84 l 1,12,-1
 657 0 l 1,13,-1
 176 0 l 2,14,15
 150 0 150 0 127.5 9.5 c 128,-1,16
 105 19 105 19 88.5 36 c 128,-1,17
 72 53 72 53 62 75.5 c 128,-1,18
 52 98 52 98 52 124 c 2,19,-1
 52 470 l 2,20,21
 52 496 52 496 62 518.5 c 128,-1,22
 72 541 72 541 88.5 557.5 c 128,-1,23
 105 574 105 574 128 584 c 128,-1,24
 151 594 151 594 176 594 c 2,25,-1
 532 594 l 2,0,1
572 339 m 1,26,-1
 572 470 l 2,27,28
 572 486 572 486 561 498 c 128,-1,29
 550 510 550 510 532 510 c 2,30,-1
 176 510 l 2,31,32
 160 510 160 510 148 498 c 128,-1,33
 136 486 136 486 136 470 c 2,34,-1
 136 339 l 1,35,-1
 572 339 l 1,26,-1
EndSplineSet
Substitution2: "'smcp' Lowercase to Small Capitals in Latin lookup 3 subtable" e.sc
Substitution2: "'aalt' Access All Alternates in Latin lookup 0 subtable" e.sc
EndChar

StartChar: e.sc
Encoding: 65562 -1 126
Width: 653
Flags: W
HStem: 0 84<139 595> 255 84<139 478> 511 84<139 595>
VStem: 55 84<84 255 339 511>
LayerCount: 2
Fore
SplineSet
595 511 m 1,0,-1
 139 511 l 1,1,-1
 139 339 l 1,2,-1
 478 339 l 1,3,-1
 478 255 l 1,4,-1
 139 255 l 1,5,-1
 139 84 l 1,6,-1
 595 84 l 1,7,-1
 595 0 l 1,8,-1
 55 0 l 1,9,-1
 55 595 l 1,10,-1
 595 595 l 1,11,-1
 595 511 l 1,0,-1
EndSplineSet
EndChar

StartChar: eight
Encoding: 56 56 131
Width: 854
Flags: W
HStem: 0 84<146.503 714.567> 338 73<146.23 706.624> 652 86<154.376 714.345>
VStem: 58 84<88.4331 333.082 415.26 640.139> 719 84<88.4331 333.082 422.861 647.656>
LayerCount: 2
Fore
SplineSet
803 463 m 2,0,1
 803 422 803 422 772 380 c 1,2,3
 803 340 803 340 803 298 c 2,4,-1
 803 124 l 2,5,6
 803 98 803 98 793 75.5 c 128,-1,7
 783 53 783 53 766.5 36 c 128,-1,8
 750 19 750 19 727.5 9.5 c 128,-1,9
 705 0 705 0 679 0 c 2,10,-1
 182 0 l 2,11,12
 155 0 155 0 133 9.5 c 128,-1,13
 111 19 111 19 94.5 36 c 128,-1,14
 78 53 78 53 68 75.5 c 128,-1,15
 58 98 58 98 58 124 c 2,16,-1
 58 298 l 2,17,18
 58 340 58 340 89 380 c 1,19,20
 58 422 58 422 58 463 c 2,21,-1
 58 613 l 2,22,23
 58 639 58 639 68 662 c 128,-1,24
 78 685 78 685 94.5 702 c 128,-1,25
 111 719 111 719 133.5 728.5 c 128,-1,26
 156 738 156 738 182 738 c 2,27,-1
 679 738 l 2,28,29
 701 738 701 738 720.5 729.5 c 128,-1,30
 740 721 740 721 756.5 706 c 128,-1,31
 773 691 773 691 785 672 c 128,-1,32
 797 653 797 653 803 634 c 1,33,-1
 803 463 l 2,0,1
719 298 m 2,34,35
 719 314 719 314 707 326 c 128,-1,36
 695 338 695 338 679 338 c 2,37,-1
 182 338 l 2,38,39
 166 338 166 338 154 326 c 128,-1,40
 142 314 142 314 142 298 c 2,41,-1
 142 124 l 2,42,43
 142 108 142 108 154 96 c 128,-1,44
 166 84 166 84 182 84 c 2,45,-1
 679 84 l 2,46,47
 695 84 695 84 707 96 c 128,-1,48
 719 108 719 108 719 124 c 2,49,-1
 719 298 l 2,34,35
719 612 m 2,50,51
 719 628 719 628 707 640 c 128,-1,52
 695 652 695 652 679 652 c 2,53,-1
 182 652 l 2,54,55
 166 652 166 652 154 640.5 c 128,-1,56
 142 629 142 629 142 612 c 2,57,-1
 142 451 l 2,58,59
 142 435 142 435 154 423 c 128,-1,60
 166 411 166 411 182 411 c 2,61,-1
 679 411 l 2,62,63
 695 411 695 411 707 422.5 c 128,-1,64
 719 434 719 434 719 451 c 2,65,-1
 719 612 l 2,50,51
EndSplineSet
EndChar

StartChar: ellipsis
Encoding: 8230 8230 132
Width: 587
Flags: W
HStem: 0 84<55 139 249 333 441 526>
VStem: 55 84<0 84> 249 84<0 84> 441 85<0 84>
LayerCount: 2
Fore
SplineSet
139 0 m 1,0,-1
 55 0 l 1,1,-1
 55 84 l 1,2,-1
 139 84 l 1,3,-1
 139 0 l 1,0,-1
526 0 m 1,4,-1
 441 0 l 1,5,-1
 441 84 l 1,6,-1
 526 84 l 1,7,-1
 526 0 l 1,4,-1
333 0 m 1,8,-1
 249 0 l 1,9,-1
 249 84 l 1,10,-1
 333 84 l 1,11,-1
 333 0 l 1,8,-1
EndSplineSet
EndChar

StartChar: emdash
Encoding: 8212 8212 133
Width: 841
Flags: W
HStem: 260 84<55 794>
LayerCount: 2
Fore
SplineSet
794 260 m 1,0,-1
 55 260 l 1,1,-1
 55 344 l 1,2,-1
 794 344 l 1,3,-1
 794 260 l 1,0,-1
EndSplineSet
EndChar

StartChar: endash
Encoding: 8211 8211 134
Width: 724
Flags: W
HStem: 260 84<55 671>
LayerCount: 2
Fore
SplineSet
671 260 m 1,0,-1
 55 260 l 1,1,-1
 55 344 l 1,2,-1
 671 344 l 1,3,-1
 671 260 l 1,0,-1
EndSplineSet
EndChar

StartChar: equal
Encoding: 61 61 135
Width: 653
Flags: W
HStem: 155 84<60 590> 359 84<60 590>
LayerCount: 2
Fore
SplineSet
590 155 m 1,0,-1
 60 155 l 1,1,-1
 60 239 l 1,2,-1
 590 239 l 1,3,-1
 590 155 l 1,0,-1
590 359 m 1,4,-1
 60 359 l 1,5,-1
 60 443 l 1,6,-1
 590 443 l 1,7,-1
 590 359 l 1,4,-1
EndSplineSet
EndChar

StartChar: exclam
Encoding: 33 33 136
Width: 225
Flags: W
HStem: 0 84<59 143> 717 20G<59 143>
VStem: 59 84<0 84 208 737>
LayerCount: 2
Fore
SplineSet
59 0 m 1,0,-1
 59 84 l 1,1,-1
 143 84 l 1,2,-1
 143 0 l 1,3,-1
 59 0 l 1,0,-1
59 737 m 1,4,-1
 143 737 l 1,5,-1
 143 208 l 1,6,-1
 59 208 l 1,7,-1
 59 737 l 1,4,-1
EndSplineSet
EndChar

StartChar: exclamdown
Encoding: 161 161 137
Width: 215
Flags: W
HStem: 0 21G<54 138> 660 85<54 138>
VStem: 54 84<0 529 660 745>
LayerCount: 2
Fore
SplineSet
138 660 m 1,0,-1
 54 660 l 1,1,-1
 54 745 l 1,2,-1
 138 745 l 1,3,-1
 138 660 l 1,0,-1
54 0 m 1,4,-1
 54 529 l 1,5,-1
 138 529 l 1,6,-1
 138 0 l 1,7,-1
 54 0 l 1,4,-1
EndSplineSet
EndChar

StartChar: f
Encoding: 102 102 138
Width: 416
Flags: W
HStem: 0 21G<54 138> 510 84<138 395> 705 83<142.23 395>
VStem: 54 84<0 510 594 700.567>
LayerCount: 2
Fore
SplineSet
178 705 m 2,0,1
 162 705 162 705 150 693 c 128,-1,2
 138 681 138 681 138 665 c 2,3,-1
 138 594 l 1,4,-1
 395 594 l 1,5,-1
 395 510 l 1,6,-1
 138 510 l 1,7,-1
 138 0 l 1,8,-1
 54 0 l 1,9,-1
 54 665 l 2,10,11
 54 691 54 691 64 713.5 c 128,-1,12
 74 736 74 736 90 752.5 c 128,-1,13
 106 769 106 769 129 778.5 c 128,-1,14
 152 788 152 788 178 788 c 2,15,-1
 395 788 l 1,16,-1
 395 705 l 1,17,-1
 178 705 l 2,0,1
EndSplineSet
Substitution2: "'smcp' Lowercase to Small Capitals in Latin lookup 3 subtable" f.sc
Substitution2: "'aalt' Access All Alternates in Latin lookup 0 subtable" f.sc
EndChar

StartChar: f.sc
Encoding: 65563 -1 139
Width: 605
Flags: W
HStem: 0 21G<55 139> 255 84<139 478> 511 84<139 595>
VStem: 55 84<0 255 339 511>
LayerCount: 2
Fore
SplineSet
595 595 m 1,0,-1
 595 511 l 1,1,-1
 139 511 l 1,2,-1
 139 339 l 1,3,-1
 478 339 l 1,4,-1
 478 255 l 1,5,-1
 139 255 l 1,6,-1
 139 0 l 1,7,-1
 55 0 l 1,8,-1
 55 595 l 1,9,-1
 595 595 l 1,0,-1
EndSplineSet
EndChar

StartChar: five
Encoding: 53 53 140
Width: 849
Flags: W
HStem: 0 84<146.503 714.567> 338 84<146.456 714.567> 653 85<154.376 803>
VStem: 58 84<88.4331 154 426.23 641.139> 719 84<88.4331 333.77>
LayerCount: 2
Fore
SplineSet
142 463 m 2,0,1
 142 446 142 446 154 434 c 128,-1,2
 166 422 166 422 182 422 c 2,3,-1
 679 422 l 2,4,5
 705 422 705 422 727.5 412 c 128,-1,6
 750 402 750 402 766.5 386 c 128,-1,7
 783 370 783 370 793 347 c 128,-1,8
 803 324 803 324 803 298 c 2,9,-1
 803 124 l 2,10,11
 803 98 803 98 793 75.5 c 128,-1,12
 783 53 783 53 766.5 36 c 128,-1,13
 750 19 750 19 727.5 9.5 c 128,-1,14
 705 0 705 0 679 0 c 2,15,-1
 182 0 l 2,16,17
 155 0 155 0 133 9.5 c 128,-1,18
 111 19 111 19 94.5 36 c 128,-1,19
 78 53 78 53 68 75.5 c 128,-1,20
 58 98 58 98 58 124 c 2,21,-1
 58 154 l 1,22,-1
 142 154 l 1,23,-1
 142 124 l 2,24,25
 142 108 142 108 154 96 c 128,-1,26
 166 84 166 84 182 84 c 2,27,-1
 679 84 l 2,28,29
 695 84 695 84 707 96 c 128,-1,30
 719 108 719 108 719 124 c 2,31,-1
 719 298 l 2,32,33
 719 314 719 314 707 326 c 128,-1,34
 695 338 695 338 679 338 c 2,35,-1
 58 338 l 1,36,-1
 58 738 l 1,37,-1
 803 738 l 1,38,-1
 803 653 l 1,39,-1
 182 653 l 2,40,41
 166 653 166 653 154 641.5 c 128,-1,42
 142 630 142 630 142 613 c 2,43,-1
 142 463 l 2,0,1
EndSplineSet
EndChar

StartChar: four
Encoding: 52 52 141
Width: 747
Flags: W
HStem: 0 21G<520 604> 190 84<114 520 604 719> 718 20G<446.5 604>
VStem: 520 84<0 190 274 604>
LayerCount: 2
Fore
SplineSet
719 274 m 1,0,-1
 719 190 l 1,1,-1
 604 190 l 1,2,-1
 604 0 l 1,3,-1
 520 0 l 1,4,-1
 520 190 l 1,5,-1
 6 190 l 1,6,-1
 6 285 l 1,7,8
 134 400 134 400 258.5 511.5 c 128,-1,9
 383 623 383 623 510 738 c 1,10,-1
 604 738 l 1,11,-1
 604 274 l 1,12,-1
 719 274 l 1,0,-1
114 274 m 1,13,-1
 520 274 l 1,14,-1
 520 604 l 1,15,-1
 114 274 l 1,13,-1
EndSplineSet
Substitution2: "'ss03' Style Set 3 in Latin lookup 6 subtable" four.alt
Substitution2: "'aalt' Access All Alternates in Latin lookup 0 subtable" four.alt
EndChar

StartChar: four.alt
Encoding: 57351 57351 142
Width: 740
Flags: W
HStem: 0 21G<523 607> 190 84<97 523 607 722> 718 20G<377.92 488>
VStem: 523 84<0 190 274 435>
LayerCount: 2
Fore
SplineSet
722 274 m 1,0,-1
 722 190 l 1,1,-1
 607 190 l 1,2,-1
 607 0 l 1,3,-1
 523 0 l 1,4,-1
 523 190 l 1,5,-1
 9 190 l 1,6,-1
 9 286 l 1,7,-1
 395 738 l 1,8,-1
 488 738 l 1,9,-1
 488 707 l 1,10,-1
 97 274 l 1,11,-1
 523 274 l 1,12,-1
 523 435 l 1,13,-1
 607 435 l 1,14,-1
 607 274 l 1,15,-1
 722 274 l 1,0,-1
EndSplineSet
EndChar

StartChar: g
Encoding: 103 103 143
Width: 699
Flags: W
HStem: -234 84<152 557.77> 0 84<130.433 557.77> 510 84<130.433 550.139>
VStem: 42 84<88.4331 505.567> 562 84<-145.497 0 88.2305 497.624>
LayerCount: 2
Fore
SplineSet
646 -110 m 2,0,1
 646 -137 646 -137 636.5 -159 c 128,-1,2
 627 -181 627 -181 610.5 -198 c 128,-1,3
 594 -215 594 -215 571 -224.5 c 128,-1,4
 548 -234 548 -234 522 -234 c 2,5,-1
 152 -234 l 1,6,-1
 152 -150 l 1,7,-1
 522 -150 l 2,8,9
 538 -150 538 -150 550 -138 c 128,-1,10
 562 -126 562 -126 562 -110 c 2,11,-1
 562 0 l 1,12,-1
 166 0 l 2,13,14
 140 0 140 0 117.5 9.5 c 128,-1,15
 95 19 95 19 78 36 c 128,-1,16
 61 53 61 53 51.5 75.5 c 128,-1,17
 42 98 42 98 42 124 c 2,18,-1
 42 470 l 2,19,20
 42 496 42 496 51.5 518.5 c 128,-1,21
 61 541 61 541 78 557.5 c 128,-1,22
 95 574 95 574 117.5 584 c 128,-1,23
 140 594 140 594 166 594 c 2,24,-1
 522 594 l 2,25,26
 548 594 548 594 571 584 c 128,-1,27
 594 574 594 574 610.5 557.5 c 128,-1,28
 627 541 627 541 636.5 518.5 c 128,-1,29
 646 496 646 496 646 470 c 2,30,-1
 646 -110 l 2,0,1
522 84 m 2,31,32
 538 84 538 84 550 96 c 128,-1,33
 562 108 562 108 562 124 c 2,34,-1
 562 470 l 2,35,36
 562 486 562 486 550.5 498 c 128,-1,37
 539 510 539 510 522 510 c 2,38,-1
 166 510 l 2,39,40
 150 510 150 510 138 498 c 128,-1,41
 126 486 126 486 126 470 c 2,42,-1
 126 124 l 2,43,44
 126 108 126 108 138 96 c 128,-1,45
 150 84 150 84 166 84 c 2,46,-1
 522 84 l 2,31,32
EndSplineSet
Substitution2: "'smcp' Lowercase to Small Capitals in Latin lookup 3 subtable" g.sc
Substitution2: "'aalt' Access All Alternates in Latin lookup 0 subtable" g.sc
EndChar

StartChar: g.sc
Encoding: 65564 -1 144
Width: 706
Flags: W
HStem: 0 84<140.433 560.139> 222 84<389 572> 511 84<140.36 560.655>
VStem: 52 84<88.4331 506.567> 572 85<96.376 222 457 498.624>
LayerCount: 2
Fore
SplineSet
657 457 m 1,0,-1
 572 457 l 1,1,-1
 572 471 l 2,2,3
 572 487 572 487 561 499 c 128,-1,4
 550 511 550 511 532 511 c 2,5,-1
 176 511 l 2,6,7
 160 511 160 511 148 499 c 128,-1,8
 136 487 136 487 136 471 c 2,9,-1
 136 124 l 2,10,11
 136 108 136 108 148 96 c 128,-1,12
 160 84 160 84 176 84 c 2,13,-1
 532 84 l 2,14,15
 549 84 549 84 560.5 96 c 128,-1,16
 572 108 572 108 572 124 c 2,17,-1
 572 222 l 1,18,-1
 389 222 l 1,19,-1
 389 306 l 1,20,-1
 657 306 l 1,21,-1
 657 124 l 2,22,23
 657 98 657 98 647.5 75.5 c 128,-1,24
 638 53 638 53 621 36 c 128,-1,25
 604 19 604 19 581 9.5 c 128,-1,26
 558 0 558 0 532 0 c 2,27,-1
 176 0 l 2,28,29
 150 0 150 0 127.5 9.5 c 128,-1,30
 105 19 105 19 88.5 36 c 128,-1,31
 72 53 72 53 62 75.5 c 128,-1,32
 52 98 52 98 52 124 c 2,33,-1
 52 471 l 2,34,35
 52 497 52 497 62 519.5 c 128,-1,36
 72 542 72 542 88.5 558.5 c 128,-1,37
 105 575 105 575 128 585 c 128,-1,38
 151 595 151 595 176 595 c 2,39,-1
 532 595 l 2,40,41
 558 595 558 595 581 585 c 128,-1,42
 604 575 604 575 621 558.5 c 128,-1,43
 638 542 638 542 647.5 519.5 c 128,-1,44
 657 497 657 497 657 471 c 2,45,-1
 657 457 l 1,0,-1
EndSplineSet
EndChar

StartChar: germandbls
Encoding: 223 223 145
Width: 852
Flags: W
HStem: 0 84<291 714.567> 341 73<291 706.624> 659 86<146.433 714.966>
VStem: 58 84<0 654.358> 719 84<88.4331 336.082 425.861 654.656>
LayerCount: 2
Fore
SplineSet
803 466 m 2,0,1
 803 425 803 425 772 383 c 1,2,3
 803 343 803 343 803 301 c 2,4,-1
 803 124 l 2,5,6
 803 98 803 98 793 75.5 c 128,-1,7
 783 53 783 53 766.5 36 c 128,-1,8
 750 19 750 19 727.5 9.5 c 128,-1,9
 705 0 705 0 679 0 c 2,10,-1
 291 0 l 1,11,-1
 291 84 l 1,12,-1
 679 84 l 2,13,14
 695 84 695 84 707 96 c 128,-1,15
 719 108 719 108 719 124 c 2,16,-1
 719 301 l 2,17,18
 719 317 719 317 707 329 c 128,-1,19
 695 341 695 341 679 341 c 2,20,-1
 291 341 l 1,21,-1
 291 414 l 1,22,-1
 679 414 l 2,23,24
 695 414 695 414 707 425.5 c 128,-1,25
 719 437 719 437 719 454 c 2,26,-1
 719 620 l 2,27,28
 719 636 719 636 707 647.5 c 128,-1,29
 695 659 695 659 679 659 c 2,30,-1
 182 659 l 2,31,32
 166 659 166 659 154 647.5 c 128,-1,33
 142 636 142 636 142 620 c 2,34,-1
 142 0 l 1,35,-1
 58 0 l 1,36,-1
 58 621 l 2,37,38
 58 647 58 647 68 669.5 c 128,-1,39
 78 692 78 692 94.5 709 c 128,-1,40
 111 726 111 726 133.5 735.5 c 128,-1,41
 156 745 156 745 182 745 c 2,42,-1
 679 745 l 2,43,44
 701 745 701 745 720.5 736.5 c 128,-1,45
 740 728 740 728 756.5 713 c 128,-1,46
 773 698 773 698 785 679 c 128,-1,47
 797 660 797 660 803 641 c 1,48,-1
 803 466 l 2,0,1
EndSplineSet
EndChar

StartChar: grave
Encoding: 96 96 146
Width: 218
Flags: W
HStem: 893 142<69 116>
VStem: 33 118
LayerCount: 2
Fore
SplineSet
151 893 m 1,0,-1
 69 893 l 1,1,2
 59 934 59 934 51 965 c 128,-1,3
 43 996 43 996 33 1035 c 1,4,-1
 116 1035 l 1,5,-1
 151 893 l 1,0,-1
EndSplineSet
EndChar

StartChar: greater
Encoding: 62 62 147
Width: 486
Flags: W
LayerCount: 2
Fore
SplineSet
60 112 m 1,0,-1
 388 301 l 1,1,-1
 60 490 l 1,2,-1
 60 588 l 1,3,-1
 472 351 l 1,4,-1
 472 252 l 1,5,6
 366 192 366 192 266 133.5 c 128,-1,7
 166 75 166 75 60 14 c 1,8,-1
 60 112 l 1,0,-1
EndSplineSet
EndChar

StartChar: h
Encoding: 104 104 148
Width: 684
Flags: W
HStem: 0 21G<55 139 577 660> 510 84<143.23 572.309> 768 20G<55 139>
VStem: 55 84<0 505.544 594 788> 577 83<0 505.567>
LayerCount: 2
Fore
SplineSet
537 594 m 2,0,1
 563 594 563 594 585 584 c 128,-1,2
 607 574 607 574 624 557.5 c 128,-1,3
 641 541 641 541 650.5 518.5 c 128,-1,4
 660 496 660 496 660 470 c 2,5,-1
 660 0 l 1,6,-1
 577 0 l 1,7,-1
 577 470 l 2,8,9
 577 486 577 486 565 498 c 128,-1,10
 553 510 553 510 537 510 c 2,11,-1
 180 510 l 2,12,13
 163 510 163 510 151 498 c 128,-1,14
 139 486 139 486 139 470 c 2,15,-1
 139 0 l 1,16,-1
 55 0 l 1,17,-1
 55 788 l 1,18,-1
 139 788 l 1,19,-1
 139 594 l 1,20,-1
 537 594 l 2,0,1
EndSplineSet
Substitution2: "'smcp' Lowercase to Small Capitals in Latin lookup 3 subtable" h.sc
Substitution2: "'aalt' Access All Alternates in Latin lookup 0 subtable" h.sc
EndChar

StartChar: h.sc
Encoding: 65565 -1 149
Width: 732
Flags: W
HStem: 0 21G<55 139 594 678> 255 84<139 594> 574 20G<55 139 594 678>
VStem: 55 84<0 255 339 594> 594 84<0 255 339 594>
LayerCount: 2
Fore
SplineSet
678 594 m 1,0,-1
 678 0 l 1,1,-1
 594 0 l 1,2,-1
 594 255 l 1,3,-1
 139 255 l 1,4,-1
 139 0 l 1,5,-1
 55 0 l 1,6,-1
 55 594 l 1,7,-1
 139 594 l 1,8,-1
 139 339 l 1,9,-1
 594 339 l 1,10,-1
 594 594 l 1,11,-1
 678 594 l 1,0,-1
EndSplineSet
EndChar

StartChar: hyphen
Encoding: 45 45 150
Width: 529
Flags: W
HStem: 261 84<60 460>
LayerCount: 2
Fore
SplineSet
460 261 m 1,0,-1
 60 261 l 1,1,-1
 60 345 l 1,2,-1
 460 345 l 1,3,-1
 460 261 l 1,0,-1
EndSplineSet
EndChar

StartChar: i
Encoding: 105 105 151
Width: 212
Flags: W
HStem: 0 21G<53 137> 574 20G<53 137> 705 83<53 137>
VStem: 53 84<0 594 705 788>
LayerCount: 2
Fore
SplineSet
53 594 m 1,0,-1
 137 594 l 1,1,-1
 137 0 l 1,2,-1
 53 0 l 1,3,-1
 53 594 l 1,0,-1
137 788 m 1,4,-1
 137 705 l 1,5,-1
 53 705 l 1,6,-1
 53 788 l 1,7,-1
 137 788 l 1,4,-1
EndSplineSet
Substitution2: "'smcp' Lowercase to Small Capitals in Latin lookup 3 subtable" i.sc
Substitution2: "'aalt' Access All Alternates in Latin lookup 0 subtable" i.sc
EndChar

StartChar: i.sc
Encoding: 65566 -1 152
Width: 219
Flags: W
HStem: 0 21G<55 139> 574 20G<55 139>
VStem: 55 84<0 594>
LayerCount: 2
Fore
SplineSet
55 594 m 1,0,-1
 139 594 l 1,1,-1
 139 0 l 1,2,-1
 55 0 l 1,3,-1
 55 594 l 1,0,-1
EndSplineSet
EndChar

StartChar: j
Encoding: 106 106 157
Width: 244
Flags: W
HStem: -249 85<-191 94.7695> 574 20G<99 184> 705 83<99 184>
VStem: 99 85<-159.744 594 705 788>
LayerCount: 2
Fore
SplineSet
184 788 m 1,0,-1
 184 705 l 1,1,-1
 99 705 l 1,2,-1
 99 788 l 1,3,-1
 184 788 l 1,0,-1
184 -124 m 2,4,5
 184 -151 184 -151 174.5 -173.5 c 128,-1,6
 165 -196 165 -196 148 -212.5 c 128,-1,7
 131 -229 131 -229 108 -239 c 128,-1,8
 85 -249 85 -249 59 -249 c 2,9,-1
 -191 -249 l 1,10,-1
 -191 -164 l 1,11,-1
 59 -164 l 2,12,13
 75 -164 75 -164 87 -152 c 128,-1,14
 99 -140 99 -140 99 -124 c 2,15,-1
 99 594 l 1,16,-1
 184 594 l 1,17,-1
 184 -124 l 2,4,5
EndSplineSet
Substitution2: "'smcp' Lowercase to Small Capitals in Latin lookup 3 subtable" j.sc
Substitution2: "'aalt' Access All Alternates in Latin lookup 0 subtable" j.sc
EndChar

StartChar: j.sc
Encoding: 65567 -1 158
Width: 672
Flags: W
HStem: 0 84<93.4331 532.37> 574 20G<537 621>
VStem: 5 84<88.4331 173> 537 84<88.4331 594>
LayerCount: 2
Fore
SplineSet
537 594 m 1,0,-1
 621 594 l 1,1,-1
 621 124 l 2,2,3
 621 98 621 98 611 75.5 c 128,-1,4
 601 53 601 53 584 36 c 128,-1,5
 567 19 567 19 544.5 9.5 c 128,-1,6
 522 0 522 0 497 0 c 2,7,-1
 129 0 l 2,8,9
 103 0 103 0 80.5 9.5 c 128,-1,10
 58 19 58 19 41.5 36 c 128,-1,11
 25 53 25 53 15 75.5 c 128,-1,12
 5 98 5 98 5 124 c 2,13,-1
 5 173 l 1,14,-1
 89 173 l 1,15,-1
 89 124 l 2,16,17
 89 108 89 108 101 96 c 128,-1,18
 113 84 113 84 129 84 c 2,19,-1
 497 84 l 2,20,21
 513 84 513 84 525 96 c 128,-1,22
 537 108 537 108 537 124 c 2,23,-1
 537 594 l 1,0,-1
EndSplineSet
EndChar

StartChar: k
Encoding: 107 107 159
Width: 661
Flags: W
HStem: 0 21G<55 139 518.647 646> 255 84<139 303> 574 20G<518.647 647> 768 20G<55 139>
VStem: 55 84<0 255 339 788>
LayerCount: 2
Fore
SplineSet
647 594 m 1,0,-1
 378 297 l 1,1,-1
 646 0 l 1,2,-1
 537 0 l 1,3,-1
 303 255 l 1,4,-1
 139 255 l 1,5,-1
 139 0 l 1,6,-1
 55 0 l 1,7,-1
 55 788 l 1,8,-1
 139 788 l 1,9,-1
 139 339 l 1,10,-1
 303 339 l 1,11,-1
 537 594 l 1,12,-1
 647 594 l 1,0,-1
EndSplineSet
Substitution2: "'smcp' Lowercase to Small Capitals in Latin lookup 3 subtable" k.sc
Substitution2: "'salt' Stylistic Alternatives in Latin lookup 2 subtable" k.alt
AlternateSubs2: "'aalt' Access All Alternates in Latin lookup 1 subtable" k.sc k.alt
EndChar

StartChar: k.alt
Encoding: 65568 -1 160
Width: 685
Flags: W
HStem: 0 21G<55 139 577 660> 255 84<139 564.624> 574 20G<577 660> 768 20G<55 139>
VStem: 55 84<0 255 339 788> 577 83<0 250.438 350.861 594>
LayerCount: 2
Fore
SplineSet
660 379 m 2,0,1
 660 359 660 359 652.5 337.5 c 128,-1,2
 645 316 645 316 631 297 c 1,3,4
 645 278 645 278 652.5 257 c 128,-1,5
 660 236 660 236 660 215 c 2,6,-1
 660 0 l 1,7,-1
 577 0 l 1,8,-1
 577 215 l 2,9,10
 577 231 577 231 565 243 c 128,-1,11
 553 255 553 255 537 255 c 2,12,-1
 139 255 l 1,13,-1
 139 0 l 1,14,-1
 55 0 l 1,15,-1
 55 788 l 1,16,-1
 139 788 l 1,17,-1
 139 339 l 1,18,-1
 537 339 l 2,19,20
 553 339 553 339 565 350.5 c 128,-1,21
 577 362 577 362 577 379 c 2,22,-1
 577 594 l 1,23,-1
 660 594 l 1,24,-1
 660 379 l 2,0,1
EndSplineSet
EndChar

StartChar: k.sc
Encoding: 65569 -1 161
Width: 698
Flags: W
HStem: 0 21G<55 139 518.647 646> 255 84<139 303> 574 20G<55 139 518.647 647>
VStem: 55 84<0 255 339 594>
LayerCount: 2
Fore
SplineSet
647 594 m 1,0,-1
 378 297 l 1,1,-1
 646 0 l 1,2,-1
 537 0 l 1,3,-1
 303 255 l 1,4,-1
 139 255 l 1,5,-1
 139 0 l 1,6,-1
 55 0 l 1,7,-1
 55 594 l 1,8,-1
 139 594 l 1,9,-1
 139 339 l 1,10,-1
 303 339 l 1,11,-1
 537 594 l 1,12,-1
 647 594 l 1,0,-1
EndSplineSet
EndChar

StartChar: l
Encoding: 108 108 162
Width: 309
Flags: W
HStem: 0 84<141.433 278> 768 20G<53 137>
VStem: 53 84<88.4331 788>
LayerCount: 2
Fore
SplineSet
137 788 m 1,0,-1
 137 124 l 2,1,2
 137 108 137 108 149 96 c 128,-1,3
 161 84 161 84 177 84 c 2,4,-1
 278 84 l 1,5,-1
 278 0 l 1,6,-1
 177 0 l 2,7,8
 151 0 151 0 128.5 9.5 c 128,-1,9
 106 19 106 19 89.5 36 c 128,-1,10
 73 53 73 53 63 75.5 c 128,-1,11
 53 98 53 98 53 124 c 2,12,-1
 53 788 l 1,13,-1
 137 788 l 1,0,-1
EndSplineSet
Substitution2: "'smcp' Lowercase to Small Capitals in Latin lookup 3 subtable" l.sc
Substitution2: "'aalt' Access All Alternates in Latin lookup 0 subtable" l.sc
EndChar

StartChar: l.sc
Encoding: 65570 -1 163
Width: 674
Flags: W
HStem: 0 84<139 671> 574 20G<55 139>
VStem: 55 84<84 594>
LayerCount: 2
Fore
SplineSet
55 594 m 1,0,-1
 139 594 l 1,1,-1
 139 84 l 1,2,-1
 671 84 l 1,3,-1
 671 0 l 1,4,-1
 55 0 l 1,5,-1
 55 594 l 1,0,-1
EndSplineSet
EndChar

StartChar: less
Encoding: 60 60 164
Width: 484
Flags: W
LayerCount: 2
Fore
SplineSet
417 114 m 1,0,-1
 417 16 l 1,1,-1
 5 254 l 1,2,-1
 5 353 l 1,3,-1
 417 590 l 1,4,-1
 417 493 l 1,5,-1
 89 303 l 1,6,-1
 417 114 l 1,0,-1
EndSplineSet
EndChar

StartChar: m
Encoding: 109 109 165
Width: 1001
Flags: W
HStem: 0 21G<55 140 468 553 881 964> 510 84<144.23 463.77 564.861 876.3>
VStem: 55 85<0 505.77> 468 85<0 497.624> 881 83<0 505.544>
LayerCount: 2
Fore
SplineSet
840 594 m 2,0,1
 866 594 866 594 888.5 584 c 128,-1,2
 911 574 911 574 927.5 557.5 c 128,-1,3
 944 541 944 541 954 518.5 c 128,-1,4
 964 496 964 496 964 470 c 2,5,-1
 964 0 l 1,6,-1
 881 0 l 1,7,-1
 881 470 l 2,8,9
 881 486 881 486 869 498 c 128,-1,10
 857 510 857 510 840 510 c 2,11,-1
 593 510 l 2,12,13
 576 510 576 510 564.5 498 c 128,-1,14
 553 486 553 486 553 470 c 2,15,-1
 553 0 l 1,16,-1
 468 0 l 1,17,-1
 468 470 l 2,18,19
 468 486 468 486 456 498 c 128,-1,20
 444 510 444 510 428 510 c 2,21,-1
 180 510 l 2,22,23
 164 510 164 510 152 498 c 128,-1,24
 140 486 140 486 140 470 c 2,25,-1
 140 0 l 1,26,-1
 55 0 l 1,27,-1
 55 594 l 1,28,-1
 840 594 l 2,0,1
EndSplineSet
Substitution2: "'smcp' Lowercase to Small Capitals in Latin lookup 3 subtable" m.sc
Substitution2: "'aalt' Access All Alternates in Latin lookup 0 subtable" m.sc
EndChar

StartChar: m.sc
Encoding: 65571 -1 166
Width: 843
Flags: W
HStem: 0 21G<55 139 712 796> 575 20G<55 182.005 666.104 796>
VStem: 55 84<0 517> 712 84<0 517>
LayerCount: 2
Fore
SplineSet
680 595 m 1,0,-1
 796 595 l 1,1,-1
 796 0 l 1,2,-1
 712 0 l 1,3,-1
 712 517 l 1,4,5
 679 471 679 471 642.5 419 c 128,-1,6
 606 367 606 367 568.5 314 c 128,-1,7
 531 261 531 261 495 209 c 128,-1,8
 459 157 459 157 425 110 c 1,9,-1
 139 517 l 1,10,-1
 139 0 l 1,11,-1
 55 0 l 1,12,-1
 55 595 l 1,13,-1
 168 595 l 1,14,-1
 425 228 l 1,15,-1
 680 595 l 1,0,-1
EndSplineSet
EndChar

StartChar: minus
Encoding: 8722 8722 167
Width: 529
Flags: W
HStem: 261 84<60 460>
LayerCount: 2
Fore
SplineSet
460 261 m 1,0,-1
 60 261 l 1,1,-1
 60 345 l 1,2,-1
 460 345 l 1,3,-1
 460 261 l 1,0,-1
EndSplineSet
EndChar

StartChar: multiply
Encoding: 215 215 168
Width: 559
Flags: W
LayerCount: 2
Fore
SplineSet
272 371 m 1,0,1
 296 404 296 404 326 444 c 128,-1,2
 356 484 356 484 381 518 c 1,3,-1
 489 518 l 1,4,-1
 328 308 l 1,5,-1
 489 97 l 1,6,-1
 381 97 l 1,7,-1
 272 245 l 1,8,9
 248 212 248 212 218.5 171.5 c 128,-1,10
 189 131 189 131 165 97 c 1,11,-1
 55 97 l 1,12,-1
 217 308 l 1,13,14
 178 358 178 358 135.5 412.5 c 128,-1,15
 93 467 93 467 54 518 c 1,16,-1
 165 518 l 1,17,-1
 272 371 l 1,0,1
EndSplineSet
EndChar

StartChar: n
Encoding: 110 110 169
Width: 712
Flags: W
HStem: 0 21G<55 139 577 660> 510 84<143.23 572.309>
VStem: 55 84<0 505.544> 577 83<0 505.567>
LayerCount: 2
Fore
SplineSet
537 594 m 2,0,1
 563 594 563 594 585 584 c 128,-1,2
 607 574 607 574 624 557.5 c 128,-1,3
 641 541 641 541 650.5 518.5 c 128,-1,4
 660 496 660 496 660 470 c 2,5,-1
 660 0 l 1,6,-1
 577 0 l 1,7,-1
 577 470 l 2,8,9
 577 486 577 486 565 498 c 128,-1,10
 553 510 553 510 537 510 c 2,11,-1
 180 510 l 2,12,13
 163 510 163 510 151 498 c 128,-1,14
 139 486 139 486 139 470 c 2,15,-1
 139 0 l 1,16,-1
 55 0 l 1,17,-1
 55 594 l 1,18,-1
 537 594 l 2,0,1
EndSplineSet
Substitution2: "'smcp' Lowercase to Small Capitals in Latin lookup 3 subtable" n.sc
Substitution2: "'aalt' Access All Alternates in Latin lookup 0 subtable" n.sc
EndChar

StartChar: n.sc
Encoding: 65572 -1 170
Width: 724
Flags: W
HStem: 0 21G<55 139 540.313 671> 574 20G<55 185.72 587 671>
VStem: 55 84<0 501> 587 84<94 594>
LayerCount: 2
Fore
SplineSet
587 594 m 1,0,-1
 671 594 l 1,1,-1
 671 0 l 1,2,-1
 557 0 l 1,3,-1
 139 501 l 1,4,-1
 139 0 l 1,5,-1
 55 0 l 1,6,-1
 55 594 l 1,7,-1
 169 594 l 1,8,-1
 587 94 l 1,9,-1
 587 594 l 1,0,-1
EndSplineSet
EndChar

StartChar: nine
Encoding: 57 57 171
Width: 847
Flags: W
HStem: 0 84<106.009 709.37> 312 84<141.256 709.77> 653 85<149.376 709.309>
VStem: 52 85<400.63 641.139> 714 84<88.4331 307.77 396 648.77>
LayerCount: 2
Fore
SplineSet
177 312 m 2,0,1
 150 312 150 312 127.5 322 c 128,-1,2
 105 332 105 332 88.5 349 c 128,-1,3
 72 366 72 366 62 388.5 c 128,-1,4
 52 411 52 411 52 436 c 2,5,-1
 52 613 l 2,6,7
 52 639 52 639 62 662 c 128,-1,8
 72 685 72 685 88.5 702 c 128,-1,9
 105 719 105 719 128 728.5 c 128,-1,10
 151 738 151 738 177 738 c 2,11,-1
 674 738 l 2,12,13
 700 738 700 738 722 728.5 c 128,-1,14
 744 719 744 719 761 702 c 128,-1,15
 778 685 778 685 788 662 c 128,-1,16
 798 639 798 639 798 613 c 2,17,-1
 798 124 l 2,18,19
 798 98 798 98 788 75.5 c 128,-1,20
 778 53 778 53 761 36 c 128,-1,21
 744 19 744 19 721.5 9.5 c 128,-1,22
 699 0 699 0 674 0 c 2,23,-1
 177 0 l 2,24,25
 136 0 136 0 104 23.5 c 128,-1,26
 72 47 72 47 59 84 c 1,27,-1
 674 84 l 2,28,29
 690 84 690 84 702 96 c 128,-1,30
 714 108 714 108 714 124 c 2,31,-1
 714 272 l 2,32,33
 714 288 714 288 702 300 c 128,-1,34
 690 312 690 312 674 312 c 2,35,-1
 177 312 l 2,0,1
137 436 m 2,36,37
 137 420 137 420 149 408 c 128,-1,38
 161 396 161 396 177 396 c 2,39,-1
 714 396 l 1,40,-1
 714 613 l 2,41,42
 714 629 714 629 702 641 c 128,-1,43
 690 653 690 653 674 653 c 2,44,-1
 177 653 l 2,45,46
 161 653 161 653 149 641.5 c 128,-1,47
 137 630 137 630 137 613 c 2,48,-1
 137 436 l 2,36,37
EndSplineSet
Substitution2: "'ss03' Style Set 3 in Latin lookup 6 subtable" nine.alt
Substitution2: "'aalt' Access All Alternates in Latin lookup 0 subtable" nine.alt
EndChar

StartChar: nine.alt
Encoding: 57347 57347 172
Width: 802
Flags: W
HStem: 0 21G<674 758> 310 84<101.503 669.77> 651 85<109.376 669.567>
VStem: 12 85<398.63 639.139> 674 84<0 305.77 394 646.77>
LayerCount: 2
Fore
SplineSet
634 736 m 2,0,1
 660 736 660 736 682.5 726.5 c 128,-1,2
 705 717 705 717 721.5 700 c 128,-1,3
 738 683 738 683 748 660 c 128,-1,4
 758 637 758 637 758 611 c 2,5,-1
 758 0 l 1,6,-1
 674 0 l 1,7,-1
 674 270 l 2,8,9
 674 286 674 286 662 298 c 128,-1,10
 650 310 650 310 634 310 c 2,11,-1
 137 310 l 2,12,13
 110 310 110 310 88 320 c 128,-1,14
 66 330 66 330 49 347 c 128,-1,15
 32 364 32 364 22 386.5 c 128,-1,16
 12 409 12 409 12 434 c 2,17,-1
 12 611 l 2,18,19
 12 637 12 637 22 660 c 128,-1,20
 32 683 32 683 49 700 c 128,-1,21
 66 717 66 717 88.5 726.5 c 128,-1,22
 111 736 111 736 137 736 c 2,23,-1
 634 736 l 2,0,1
674 611 m 2,24,25
 674 627 674 627 662 639 c 128,-1,26
 650 651 650 651 634 651 c 2,27,-1
 137 651 l 2,28,29
 121 651 121 651 109 639.5 c 128,-1,30
 97 628 97 628 97 611 c 2,31,-1
 97 434 l 2,32,33
 97 418 97 418 109 406 c 128,-1,34
 121 394 121 394 137 394 c 2,35,-1
 674 394 l 1,36,-1
 674 611 l 2,24,25
EndSplineSet
EndChar

StartChar: numbersign
Encoding: 35 35 174
Width: 816
Flags: W
HStem: 0 21G<81 171.5 430 520.5> 175 84<33 136 247 485 595 758> 484 84<66 236 344 585 693 792> 716 20G<312.214 402 662.095 752>
LayerCount: 2
Fore
SplineSet
792 484 m 1,0,-1
 668 484 l 1,1,-1
 595 259 l 1,2,-1
 758 259 l 1,3,-1
 758 175 l 1,4,-1
 568 175 l 1,5,6
 556 133 556 133 541.5 88 c 128,-1,7
 527 43 527 43 514 0 c 1,8,-1
 430 0 l 1,9,-1
 485 175 l 1,10,-1
 219 175 l 1,11,12
 207 133 207 133 192.5 88 c 128,-1,13
 178 43 178 43 165 0 c 1,14,-1
 81 0 l 1,15,-1
 136 175 l 1,16,-1
 33 175 l 1,17,-1
 33 259 l 1,18,-1
 163 259 l 1,19,-1
 236 484 l 1,20,-1
 66 484 l 1,21,-1
 66 568 l 1,22,-1
 262 568 l 1,23,-1
 319 736 l 1,24,-1
 402 736 l 1,25,-1
 344 568 l 1,26,-1
 611 568 l 1,27,-1
 669 736 l 1,28,-1
 752 736 l 1,29,-1
 693 568 l 1,30,-1
 792 568 l 1,31,-1
 792 484 l 1,0,-1
512 259 m 1,32,-1
 585 484 l 1,33,-1
 318 484 l 1,34,-1
 247 259 l 1,35,-1
 512 259 l 1,32,-1
EndSplineSet
EndChar

StartChar: o
Encoding: 111 111 175
Width: 708
Flags: W
HStem: 0 84<140.433 560.139> 510 84<140.36 560.655>
VStem: 52 84<88.4331 505.567> 572 85<96.376 497.624>
LayerCount: 2
Fore
SplineSet
532 594 m 2,0,1
 558 594 558 594 581 584 c 128,-1,2
 604 574 604 574 621 557.5 c 128,-1,3
 638 541 638 541 647.5 518.5 c 128,-1,4
 657 496 657 496 657 470 c 2,5,-1
 657 124 l 2,6,7
 657 98 657 98 647.5 75.5 c 128,-1,8
 638 53 638 53 621 36 c 128,-1,9
 604 19 604 19 581 9.5 c 128,-1,10
 558 0 558 0 532 0 c 2,11,-1
 176 0 l 2,12,13
 150 0 150 0 127.5 9.5 c 128,-1,14
 105 19 105 19 88.5 36 c 128,-1,15
 72 53 72 53 62 75.5 c 128,-1,16
 52 98 52 98 52 124 c 2,17,-1
 52 470 l 2,18,19
 52 496 52 496 62 518.5 c 128,-1,20
 72 541 72 541 88.5 557.5 c 128,-1,21
 105 574 105 574 128 584 c 128,-1,22
 151 594 151 594 176 594 c 2,23,-1
 532 594 l 2,0,1
176 510 m 2,24,25
 160 510 160 510 148 498 c 128,-1,26
 136 486 136 486 136 470 c 2,27,-1
 136 124 l 2,28,29
 136 108 136 108 148 96 c 128,-1,30
 160 84 160 84 176 84 c 2,31,-1
 532 84 l 2,32,33
 549 84 549 84 560.5 96 c 128,-1,34
 572 108 572 108 572 124 c 2,35,-1
 572 470 l 2,36,37
 572 486 572 486 561 498 c 128,-1,38
 550 510 550 510 532 510 c 2,39,-1
 176 510 l 2,24,25
EndSplineSet
Substitution2: "'smcp' Lowercase to Small Capitals in Latin lookup 3 subtable" o.sc
Substitution2: "'aalt' Access All Alternates in Latin lookup 0 subtable" o.sc
EndChar

StartChar: o.sc
Encoding: 65573 -1 176
Width: 708
Flags: W
HStem: 0 84<140.433 560.139> 510 84<140.36 560.655>
VStem: 52 84<88.4331 505.567> 572 85<96.376 497.624>
LayerCount: 2
Fore
SplineSet
532 594 m 2,0,1
 558 594 558 594 581 584 c 128,-1,2
 604 574 604 574 621 557.5 c 128,-1,3
 638 541 638 541 647.5 518.5 c 128,-1,4
 657 496 657 496 657 470 c 2,5,-1
 657 124 l 2,6,7
 657 98 657 98 647.5 75.5 c 128,-1,8
 638 53 638 53 621 36 c 128,-1,9
 604 19 604 19 581 9.5 c 128,-1,10
 558 0 558 0 532 0 c 2,11,-1
 176 0 l 2,12,13
 150 0 150 0 127.5 9.5 c 128,-1,14
 105 19 105 19 88.5 36 c 128,-1,15
 72 53 72 53 62 75.5 c 128,-1,16
 52 98 52 98 52 124 c 2,17,-1
 52 470 l 2,18,19
 52 496 52 496 62 518.5 c 128,-1,20
 72 541 72 541 88.5 557.5 c 128,-1,21
 105 574 105 574 128 584 c 128,-1,22
 151 594 151 594 176 594 c 2,23,-1
 532 594 l 2,0,1
532 84 m 2,24,25
 549 84 549 84 560.5 96 c 128,-1,26
 572 108 572 108 572 124 c 2,27,-1
 572 470 l 2,28,29
 572 486 572 486 561 498 c 128,-1,30
 550 510 550 510 532 510 c 2,31,-1
 176 510 l 2,32,33
 160 510 160 510 148 498 c 128,-1,34
 136 486 136 486 136 470 c 2,35,-1
 136 124 l 2,36,37
 136 108 136 108 148 96 c 128,-1,38
 160 84 160 84 176 84 c 2,39,-1
 532 84 l 2,24,25
EndSplineSet
EndChar

StartChar: oe
Encoding: 339 339 180
Width: 1205
Flags: W
HStem: 0 84<141.256 568.946 661.23 1178> 255 84<657 1094> 510 84<141.23 568.946 661.23 1089.57>
VStem: 53 84<88.4331 505.567> 573 84<88.2305 255 339 505.77> 1094 84<339 505.567>
CounterMasks: 1 e0
LayerCount: 2
Fore
SplineSet
657 255 m 1,0,-1
 657 124 l 2,1,2
 657 108 657 108 669 96 c 128,-1,3
 681 84 681 84 697 84 c 2,4,-1
 1178 84 l 1,5,-1
 1178 0 l 1,6,-1
 177 0 l 2,7,8
 150 0 150 0 127.5 9.5 c 128,-1,9
 105 19 105 19 89 36 c 128,-1,10
 73 53 73 53 63 75.5 c 128,-1,11
 53 98 53 98 53 124 c 2,12,-1
 53 470 l 2,13,14
 53 496 53 496 63 518.5 c 128,-1,15
 73 541 73 541 89 557.5 c 128,-1,16
 105 574 105 574 128 584 c 128,-1,17
 151 594 151 594 177 594 c 2,18,-1
 1054 594 l 2,19,20
 1080 594 1080 594 1102.5 584 c 128,-1,21
 1125 574 1125 574 1141.5 557.5 c 128,-1,22
 1158 541 1158 541 1168 518.5 c 128,-1,23
 1178 496 1178 496 1178 470 c 2,24,-1
 1178 255 l 1,25,-1
 657 255 l 1,0,-1
697 510 m 2,26,27
 681 510 681 510 669 498 c 128,-1,28
 657 486 657 486 657 470 c 2,29,-1
 657 339 l 1,30,-1
 1094 339 l 1,31,-1
 1094 470 l 2,32,33
 1094 486 1094 486 1082 498 c 128,-1,34
 1070 510 1070 510 1054 510 c 2,35,-1
 697 510 l 2,26,27
534 84 m 2,36,37
 550 84 550 84 561.5 96 c 128,-1,38
 573 108 573 108 573 124 c 2,39,-1
 573 470 l 2,40,41
 573 486 573 486 561.5 498 c 128,-1,42
 550 510 550 510 534 510 c 2,43,-1
 177 510 l 2,44,45
 161 510 161 510 149 498 c 128,-1,46
 137 486 137 486 137 470 c 2,47,-1
 137 124 l 2,48,49
 137 108 137 108 149 96 c 128,-1,50
 161 84 161 84 177 84 c 2,51,-1
 534 84 l 2,36,37
EndSplineSet
EndChar

StartChar: one
Encoding: 49 49 182
Width: 400
Flags: W
HStem: 0 21G<224 309> 717 20G<178.13 309>
VStem: 224 85<0 643>
LayerCount: 2
Fore
SplineSet
195 737 m 1,0,-1
 309 737 l 1,1,-1
 309 0 l 1,2,-1
 224 0 l 1,3,-1
 224 643 l 1,4,5
 214 630 214 630 199 612.5 c 128,-1,6
 184 595 184 595 168.5 576 c 128,-1,7
 153 557 153 557 137.5 538.5 c 128,-1,8
 122 520 122 520 111 507 c 1,9,-1
 1 507 l 1,10,-1
 195 737 l 1,0,-1
EndSplineSet
EndChar

StartChar: p
Encoding: 112 112 184
Width: 679
Flags: W
HStem: -236 21G<55 139> 0 84<143.23 572.37> 510 84<143.23 572.309>
VStem: 55 84<-236 0 88.4561 505.544> 577 83<88.4331 505.567>
LayerCount: 2
Fore
SplineSet
537 594 m 2,0,1
 563 594 563 594 585 584 c 128,-1,2
 607 574 607 574 624 557.5 c 128,-1,3
 641 541 641 541 650.5 518.5 c 128,-1,4
 660 496 660 496 660 470 c 2,5,-1
 660 124 l 2,6,7
 660 98 660 98 650.5 75.5 c 128,-1,8
 641 53 641 53 624 36 c 128,-1,9
 607 19 607 19 584.5 9.5 c 128,-1,10
 562 0 562 0 537 0 c 2,11,-1
 139 0 l 1,12,-1
 139 -236 l 1,13,-1
 55 -236 l 1,14,-1
 55 594 l 1,15,-1
 537 594 l 2,0,1
577 470 m 2,16,17
 577 486 577 486 565 498 c 128,-1,18
 553 510 553 510 537 510 c 2,19,-1
 180 510 l 2,20,21
 163 510 163 510 151 498 c 128,-1,22
 139 486 139 486 139 470 c 2,23,-1
 139 124 l 2,24,25
 139 108 139 108 151 96 c 128,-1,26
 163 84 163 84 180 84 c 2,27,-1
 537 84 l 2,28,29
 553 84 553 84 565 96 c 128,-1,30
 577 108 577 108 577 124 c 2,31,-1
 577 470 l 2,16,17
EndSplineSet
Substitution2: "'smcp' Lowercase to Small Capitals in Latin lookup 3 subtable" p.sc
Substitution2: "'aalt' Access All Alternates in Latin lookup 0 subtable" p.sc
EndChar

StartChar: p.sc
Encoding: 65574 -1 185
Width: 675
Flags: W
HStem: 0 21G<55 139> 213 84<143.447 572.37> 510 84<143.23 572.309>
VStem: 55 84<0 217 301.456 505.544> 577 83<301.433 505.567>
LayerCount: 2
Fore
SplineSet
537 594 m 2,0,1
 563 594 563 594 585 584 c 128,-1,2
 607 574 607 574 624 557.5 c 128,-1,3
 641 541 641 541 650.5 518.5 c 128,-1,4
 660 496 660 496 660 470 c 2,5,-1
 660 337 l 2,6,7
 660 311 660 311 650.5 288.5 c 128,-1,8
 641 266 641 266 624 249 c 128,-1,9
 607 232 607 232 584.5 222.5 c 128,-1,10
 562 213 562 213 537 213 c 2,11,-1
 180 213 l 2,12,13
 172 213 172 213 161.5 214 c 128,-1,14
 151 215 151 215 139 217 c 1,15,-1
 139 0 l 1,16,-1
 55 0 l 1,17,-1
 55 594 l 1,18,-1
 537 594 l 2,0,1
577 470 m 2,19,20
 577 486 577 486 565 498 c 128,-1,21
 553 510 553 510 537 510 c 2,22,-1
 180 510 l 2,23,24
 163 510 163 510 151 498 c 128,-1,25
 139 486 139 486 139 470 c 2,26,-1
 139 337 l 2,27,28
 139 321 139 321 151 309 c 128,-1,29
 163 297 163 297 180 297 c 2,30,-1
 537 297 l 2,31,32
 553 297 553 297 565 309 c 128,-1,33
 577 321 577 321 577 337 c 2,34,-1
 577 470 l 2,19,20
EndSplineSet
EndChar

StartChar: paragraph
Encoding: 182 182 186
Width: 852
Flags: W
HStem: 0 21G<493 577 718 802> 278 83<145.503 493 577 718> 659 85<145.433 493 577 718>
VStem: 57 84<365.63 654.832> 493 84<0 278 361 659> 718 84<0 278 361 659>
LayerCount: 2
Fore
SplineSet
57 620 m 2,0,1
 57 646 57 646 67 668.5 c 128,-1,2
 77 691 77 691 93.5 708 c 128,-1,3
 110 725 110 725 132.5 734.5 c 128,-1,4
 155 744 155 744 181 744 c 2,5,-1
 802 744 l 1,6,-1
 802 0 l 1,7,-1
 718 0 l 1,8,-1
 718 278 l 1,9,-1
 577 278 l 1,10,-1
 577 0 l 1,11,-1
 493 0 l 1,12,-1
 493 278 l 1,13,-1
 181 278 l 2,14,15
 154 278 154 278 132 287.5 c 128,-1,16
 110 297 110 297 93.5 314 c 128,-1,17
 77 331 77 331 67 353.5 c 128,-1,18
 57 376 57 376 57 401 c 2,19,-1
 57 620 l 2,0,1
577 361 m 1,20,-1
 718 361 l 1,21,-1
 718 659 l 1,22,-1
 577 659 l 1,23,-1
 577 361 l 1,20,-1
141 401 m 2,24,25
 141 385 141 385 153 373 c 128,-1,26
 165 361 165 361 181 361 c 2,27,-1
 493 361 l 1,28,-1
 493 659 l 1,29,-1
 181 659 l 2,30,31
 165 659 165 659 153 647.5 c 128,-1,32
 141 636 141 636 141 620 c 2,33,-1
 141 401 l 2,24,25
EndSplineSet
EndChar

StartChar: parenleft
Encoding: 40 40 187
Width: 283
Flags: W
HStem: 0 84<141.433 207> 652 85<149.376 207>
VStem: 53 84<88.4331 640.139>
LayerCount: 2
Fore
SplineSet
207 84 m 1,0,-1
 207 0 l 1,1,-1
 177 0 l 2,2,3
 151 0 151 0 128.5 9.5 c 128,-1,4
 106 19 106 19 89.5 36 c 128,-1,5
 73 53 73 53 63 75.5 c 128,-1,6
 53 98 53 98 53 124 c 2,7,-1
 53 612 l 2,8,9
 53 638 53 638 63 661 c 128,-1,10
 73 684 73 684 89.5 701 c 128,-1,11
 106 718 106 718 129 727.5 c 128,-1,12
 152 737 152 737 177 737 c 2,13,-1
 207 737 l 1,14,-1
 207 652 l 1,15,-1
 177 652 l 2,16,17
 161 652 161 652 149 640.5 c 128,-1,18
 137 629 137 629 137 612 c 2,19,-1
 137 124 l 2,20,21
 137 108 137 108 149 96 c 128,-1,22
 161 84 161 84 177 84 c 2,23,-1
 207 84 l 1,0,-1
EndSplineSet
EndChar

StartChar: parenright
Encoding: 41 41 188
Width: 284
Flags: W
HStem: 0 84<57 114.139> 652 85<57 114.139>
VStem: 126 85<96.376 639.624>
LayerCount: 2
Fore
SplineSet
57 84 m 1,0,-1
 86 84 l 2,1,2
 103 84 103 84 114.5 96 c 128,-1,3
 126 108 126 108 126 124 c 2,4,-1
 126 612 l 2,5,6
 126 628 126 628 114.5 640 c 128,-1,7
 103 652 103 652 86 652 c 2,8,-1
 57 652 l 1,9,-1
 57 737 l 1,10,-1
 86 737 l 2,11,12
 112 737 112 737 135 727.5 c 128,-1,13
 158 718 158 718 174.5 701 c 128,-1,14
 191 684 191 684 201 661 c 128,-1,15
 211 638 211 638 211 612 c 2,16,-1
 211 124 l 2,17,18
 211 98 211 98 201 75.5 c 128,-1,19
 191 53 191 53 174.5 36 c 128,-1,20
 158 19 158 19 135 9.5 c 128,-1,21
 112 0 112 0 86 0 c 2,22,-1
 57 0 l 1,23,-1
 57 84 l 1,0,-1
EndSplineSet
EndChar

StartChar: percent
Encoding: 37 37 189
Width: 989
Flags: W
HStem: -1 62<683.861 887.414> 271 63<684.376 887.414> 402 63<123.861 320.624> 674 63<124.376 320.624>
VStem: 49 63<477.376 662.139> 333 62<476.861 662.139> 609 63<73.376 259.139> 892 62<65.5863 266.727>
LayerCount: 2
Fore
SplineSet
140 111 m 1,0,-1
 886 738 l 1,1,-1
 886 629 l 1,2,-1
 140 0 l 1,3,-1
 140 111 l 1,0,-1
270 737 m 2,4,5
 296 737 296 737 319 727.5 c 128,-1,6
 342 718 342 718 359 701 c 128,-1,7
 376 684 376 684 385.5 661 c 128,-1,8
 395 638 395 638 395 612 c 2,9,-1
 395 526 l 2,10,11
 395 500 395 500 385.5 478 c 128,-1,12
 376 456 376 456 359 439 c 128,-1,13
 342 422 342 422 319 412 c 128,-1,14
 296 402 296 402 270 402 c 2,15,-1
 174 402 l 2,16,17
 147 402 147 402 124.5 412 c 128,-1,18
 102 422 102 422 85.5 439 c 128,-1,19
 69 456 69 456 59 478.5 c 128,-1,20
 49 501 49 501 49 526 c 2,21,-1
 49 612 l 2,22,23
 49 638 49 638 59 661 c 128,-1,24
 69 684 69 684 85.5 701 c 128,-1,25
 102 718 102 718 124.5 727.5 c 128,-1,26
 147 737 147 737 174 737 c 2,27,-1
 270 737 l 2,4,5
293 465 m 2,28,29
 309 465 309 465 321 476.5 c 128,-1,30
 333 488 333 488 333 505 c 2,31,-1
 333 634 l 2,32,33
 333 651 333 651 321 662.5 c 128,-1,34
 309 674 309 674 293 674 c 2,35,-1
 152 674 l 2,36,37
 136 674 136 674 124 662.5 c 128,-1,38
 112 651 112 651 112 634 c 2,39,-1
 112 505 l 2,40,41
 112 489 112 489 123.5 477 c 128,-1,42
 135 465 135 465 152 465 c 2,43,-1
 293 465 l 2,28,29
830 334 m 2,44,45
 856 334 856 334 878.5 324 c 128,-1,46
 901 314 901 314 918 297.5 c 128,-1,47
 935 281 935 281 944.5 258.5 c 128,-1,48
 954 236 954 236 954 210 c 2,49,-1
 954 123 l 2,50,51
 954 97 954 97 944.5 74.5 c 128,-1,52
 935 52 935 52 918 35 c 128,-1,53
 901 18 901 18 878.5 8.5 c 128,-1,54
 856 -1 856 -1 830 -1 c 2,55,-1
 733 -1 l 2,56,57
 706 -1 706 -1 684 8.5 c 128,-1,58
 662 18 662 18 645.5 35 c 128,-1,59
 629 52 629 52 619 74.5 c 128,-1,60
 609 97 609 97 609 123 c 2,61,-1
 609 210 l 2,62,63
 609 236 609 236 619 258.5 c 128,-1,64
 629 281 629 281 645.5 297.5 c 128,-1,65
 662 314 662 314 684.5 324 c 128,-1,66
 707 334 707 334 733 334 c 2,67,-1
 830 334 l 2,44,45
852 61 m 2,68,69
 868 61 868 61 880 73 c 128,-1,70
 892 85 892 85 892 101 c 2,71,-1
 892 231 l 2,72,73
 892 247 892 247 880 259 c 128,-1,74
 868 271 868 271 852 271 c 2,75,-1
 712 271 l 2,76,77
 696 271 696 271 684 259.5 c 128,-1,78
 672 248 672 248 672 231 c 2,79,-1
 672 101 l 2,80,81
 672 85 672 85 683.5 73 c 128,-1,82
 695 61 695 61 712 61 c 2,83,-1
 852 61 l 2,68,69
EndSplineSet
EndChar

StartChar: period
Encoding: 46 46 190
Width: 219
Flags: W
HStem: 0 84<55 139>
VStem: 55 84<0 84>
LayerCount: 2
Fore
SplineSet
139 0 m 1,0,-1
 55 0 l 1,1,-1
 55 84 l 1,2,-1
 139 84 l 1,3,-1
 139 0 l 1,0,-1
EndSplineSet
EndChar

StartChar: plus
Encoding: 43 43 191
Width: 443
Flags: W
HStem: 261 84<17 173 257 417>
VStem: 173 84<102 261 345 502>
LayerCount: 2
Fore
SplineSet
257 502 m 1,0,-1
 257 345 l 1,1,-1
 417 345 l 1,2,-1
 417 261 l 1,3,-1
 257 261 l 1,4,-1
 257 102 l 1,5,-1
 173 102 l 1,6,-1
 173 261 l 1,7,-1
 17 261 l 1,8,-1
 17 345 l 1,9,-1
 173 345 l 1,10,-1
 173 502 l 1,11,-1
 257 502 l 1,0,-1
EndSplineSet
EndChar

StartChar: q
Encoding: 113 113 192
Width: 679
Flags: W
HStem: -236 21G<542 626> 0 84<116.861 537.77> 510 84<116.861 537.77>
VStem: 20 85<96.376 497.624> 542 84<-236 0 88.2305 505.77>
LayerCount: 2
Fore
SplineSet
20 470 m 2,0,1
 20 496 20 496 30 518.5 c 128,-1,2
 40 541 40 541 57 557.5 c 128,-1,3
 74 574 74 574 96.5 584 c 128,-1,4
 119 594 119 594 145 594 c 2,5,-1
 626 594 l 1,6,-1
 626 -236 l 1,7,-1
 542 -236 l 1,8,-1
 542 0 l 1,9,-1
 145 0 l 2,10,11
 118 0 118 0 96 9.5 c 128,-1,12
 74 19 74 19 57 36 c 128,-1,13
 40 53 40 53 30 75.5 c 128,-1,14
 20 98 20 98 20 124 c 2,15,-1
 20 470 l 2,0,1
105 124 m 2,16,17
 105 108 105 108 116.5 96 c 128,-1,18
 128 84 128 84 145 84 c 2,19,-1
 502 84 l 2,20,21
 518 84 518 84 530 96 c 128,-1,22
 542 108 542 108 542 124 c 2,23,-1
 542 470 l 2,24,25
 542 486 542 486 530 498 c 128,-1,26
 518 510 518 510 502 510 c 2,27,-1
 145 510 l 2,28,29
 128 510 128 510 116.5 498 c 128,-1,30
 105 486 105 486 105 470 c 2,31,-1
 105 124 l 2,16,17
EndSplineSet
Substitution2: "'smcp' Lowercase to Small Capitals in Latin lookup 3 subtable" q.sc
Substitution2: "'aalt' Access All Alternates in Latin lookup 0 subtable" q.sc
EndChar

StartChar: q.sc
Encoding: 65575 -1 193
Width: 788
Flags: W
HStem: 0 84<141.433 568.946 653 755> 510 84<141.36 568.832>
VStem: 53 84<88.4331 505.567> 573 85<87.7969 505.567>
LayerCount: 2
Fore
SplineSet
755 84 m 1,0,-1
 755 0 l 1,1,-1
 177 0 l 2,2,3
 151 0 151 0 128.5 9.5 c 128,-1,4
 106 19 106 19 89.5 36 c 128,-1,5
 73 53 73 53 63 75.5 c 128,-1,6
 53 98 53 98 53 124 c 2,7,-1
 53 470 l 2,8,9
 53 496 53 496 63 518.5 c 128,-1,10
 73 541 73 541 89.5 557.5 c 128,-1,11
 106 574 106 574 129 584 c 128,-1,12
 152 594 152 594 177 594 c 2,13,-1
 534 594 l 2,14,15
 560 594 560 594 582.5 584 c 128,-1,16
 605 574 605 574 622 557.5 c 128,-1,17
 639 541 639 541 648.5 518.5 c 128,-1,18
 658 496 658 496 658 470 c 2,19,-1
 658 124 l 2,20,21
 658 117 658 117 656.5 106 c 128,-1,22
 655 95 655 95 653 84 c 1,23,-1
 755 84 l 1,0,-1
534 84 m 2,24,25
 550 84 550 84 561.5 96 c 128,-1,26
 573 108 573 108 573 124 c 2,27,-1
 573 470 l 2,28,29
 573 486 573 486 561.5 498 c 128,-1,30
 550 510 550 510 534 510 c 2,31,-1
 177 510 l 2,32,33
 161 510 161 510 149 498 c 128,-1,34
 137 486 137 486 137 470 c 2,35,-1
 137 124 l 2,36,37
 137 108 137 108 149 96 c 128,-1,38
 161 84 161 84 177 84 c 2,39,-1
 534 84 l 2,24,25
EndSplineSet
EndChar

StartChar: question
Encoding: 63 63 194
Width: 694
Flags: W
HStem: 0 84<157 241> 289 84<245.433 588.624> 651 86<32 589.139>
VStem: 157 84<0 84 206 284.77> 601 84<384.861 638.624>
LayerCount: 2
Fore
SplineSet
561 736 m 2,0,1
 587 736 587 736 609.5 726.5 c 128,-1,2
 632 717 632 717 649 700 c 128,-1,3
 666 683 666 683 675.5 660 c 128,-1,4
 685 637 685 637 685 611 c 2,5,-1
 685 413 l 2,6,7
 685 387 685 387 675.5 364.5 c 128,-1,8
 666 342 666 342 649 325 c 128,-1,9
 632 308 632 308 609.5 298.5 c 128,-1,10
 587 289 587 289 561 289 c 2,11,-1
 281 289 l 2,12,13
 265 289 265 289 253 277 c 128,-1,14
 241 265 241 265 241 249 c 2,15,-1
 241 206 l 1,16,-1
 157 206 l 1,17,-1
 157 249 l 2,18,19
 157 275 157 275 166.5 298 c 128,-1,20
 176 321 176 321 193 337 c 128,-1,21
 210 353 210 353 232.5 363 c 128,-1,22
 255 373 255 373 281 373 c 2,23,-1
 561 373 l 2,24,25
 577 373 577 373 589 384.5 c 128,-1,26
 601 396 601 396 601 413 c 2,27,-1
 601 611 l 2,28,29
 601 627 601 627 589.5 639 c 128,-1,30
 578 651 578 651 561 651 c 2,31,-1
 32 651 l 1,32,-1
 32 737 l 1,33,-1
 561 736 l 2,0,1
157 0 m 1,34,-1
 157 84 l 1,35,-1
 241 84 l 1,36,-1
 241 0 l 1,37,-1
 157 0 l 1,34,-1
EndSplineSet
Substitution2: "'salt' Stylistic Alternatives in Latin lookup 2 subtable" question.alt
Substitution2: "'aalt' Access All Alternates in Latin lookup 0 subtable" question.alt
EndChar

StartChar: question.alt
Encoding: 57350 57350 195
Width: 683
Flags: W
HStem: 0 84<209 294> 290 84<305.861 566.624> 652 85<112.399 574.309>
VStem: 28 84<536 651.812> 209 85<0 84 155 277.624> 579 84<385.861 647.77>
LayerCount: 2
Fore
SplineSet
539 737 m 2,0,1
 565 737 565 737 587 727.5 c 128,-1,2
 609 718 609 718 626 701 c 128,-1,3
 643 684 643 684 653 661 c 128,-1,4
 663 638 663 638 663 612 c 2,5,-1
 663 414 l 2,6,7
 663 388 663 388 653 365.5 c 128,-1,8
 643 343 643 343 626 326 c 128,-1,9
 609 309 609 309 586.5 299.5 c 128,-1,10
 564 290 564 290 539 290 c 2,11,-1
 334 290 l 2,12,13
 317 290 317 290 305.5 278 c 128,-1,14
 294 266 294 266 294 250 c 2,15,-1
 294 155 l 1,16,-1
 209 155 l 1,17,-1
 209 250 l 2,18,19
 209 276 209 276 218.5 299 c 128,-1,20
 228 322 228 322 245 338 c 128,-1,21
 262 354 262 354 284.5 364 c 128,-1,22
 307 374 307 374 334 374 c 2,23,-1
 539 374 l 2,24,25
 555 374 555 374 567 385.5 c 128,-1,26
 579 397 579 397 579 414 c 2,27,-1
 579 612 l 2,28,29
 579 628 579 628 567 640 c 128,-1,30
 555 652 555 652 539 652 c 2,31,-1
 112 652 l 1,32,-1
 112 536 l 1,33,-1
 28 536 l 1,34,-1
 28 634 l 1,35,36
 33 653 33 653 44.5 672 c 128,-1,37
 56 691 56 691 72 705.5 c 128,-1,38
 88 720 88 720 108 728.5 c 128,-1,39
 128 737 128 737 150 737 c 2,40,-1
 539 737 l 2,0,1
209 0 m 1,41,-1
 209 84 l 1,42,-1
 294 84 l 1,43,-1
 294 0 l 1,44,-1
 209 0 l 1,41,-1
EndSplineSet
EndChar

StartChar: questiondown
Encoding: 191 191 196
Width: 691
Flags: W
HStem: -8 92<198.016 664> 0 84<107.503 616.984> 362 85<107.433 458.77> 660 85<463 547>
VStem: 19 84<88.4331 357.832> 463 84<451.503 537 660 745>
LayerCount: 2
Fore
SplineSet
143 0 m 2,0,1
 116 0 116 0 94 9.5 c 128,-1,2
 72 19 72 19 55.5 36 c 128,-1,3
 39 53 39 53 29 75.5 c 128,-1,4
 19 98 19 98 19 124 c 2,5,-1
 19 323 l 2,6,7
 19 349 19 349 29 371.5 c 128,-1,8
 39 394 39 394 55.5 411 c 128,-1,9
 72 428 72 428 94.5 437.5 c 128,-1,10
 117 447 117 447 143 447 c 2,11,-1
 423 447 l 2,12,13
 439 447 439 447 451 459 c 128,-1,14
 463 471 463 471 463 487 c 2,15,-1
 463 537 l 1,16,-1
 547 537 l 1,17,-1
 547 487 l 2,18,19
 547 460 547 460 537 438 c 128,-1,20
 527 416 527 416 511 399 c 128,-1,21
 495 382 495 382 472 372 c 128,-1,22
 449 362 449 362 423 362 c 2,23,-1
 143 362 l 2,24,25
 127 362 127 362 115 350.5 c 128,-1,26
 103 339 103 339 103 323 c 2,27,-1
 103 124 l 2,28,29
 103 108 103 108 115 96 c 128,-1,30
 127 84 127 84 143 84 c 2,31,-1
 664 84 l 1,32,33
 664 58 664 58 665 41 c 128,-1,34
 666 24 666 24 668 12 c 128,-1,35
 670 0 670 0 672 -8 c 1,36,-1
 143 0 l 2,0,1
547 660 m 1,37,-1
 463 660 l 1,38,-1
 463 745 l 1,39,-1
 547 745 l 1,40,-1
 547 660 l 1,37,-1
EndSplineSet
EndChar

StartChar: quotedbl
Encoding: 34 34 197
Width: 380
Flags: W
HStem: 594 143<60 144 219 303>
VStem: 60 84<594 737> 219 84<594 737>
LayerCount: 2
Fore
SplineSet
144 594 m 1,0,-1
 60 594 l 1,1,-1
 60 737 l 1,2,-1
 144 737 l 1,3,-1
 144 594 l 1,0,-1
303 594 m 1,4,-1
 219 594 l 1,5,-1
 219 737 l 1,6,-1
 303 737 l 1,7,-1
 303 594 l 1,4,-1
EndSplineSet
EndChar

StartChar: quotedblleft
Encoding: 8220 8220 198
Width: 371
Flags: W
HStem: 514 218<91.1641 133 276.023 317>
VStem: 48 85<514 686.459> 233 84<514 686.459>
LayerCount: 2
Fore
SplineSet
48 514 m 1,0,-1
 48 614 l 2,1,2
 48 656 48 656 71.5 688.5 c 128,-1,3
 95 721 95 721 133 732 c 1,4,-1
 133 514 l 1,5,-1
 48 514 l 1,0,-1
233 514 m 1,6,-1
 233 614 l 2,7,8
 233 656 233 656 256.5 688.5 c 128,-1,9
 280 721 280 721 317 732 c 1,10,-1
 317 514 l 1,11,-1
 233 514 l 1,6,-1
EndSplineSet
EndChar

StartChar: quotedblright
Encoding: 8221 8221 199
Width: 371
Flags: W
HStem: 520 218<55 96.8359 241 281.977>
VStem: 55 85<565.541 738> 241 84<565.541 738>
LayerCount: 2
Fore
SplineSet
325 738 m 1,0,-1
 325 638 l 2,1,2
 325 596 325 596 301.5 563.5 c 128,-1,3
 278 531 278 531 241 520 c 1,4,-1
 241 738 l 1,5,-1
 325 738 l 1,0,-1
140 738 m 1,6,-1
 140 638 l 2,7,8
 140 596 140 596 116.5 563.5 c 128,-1,9
 93 531 93 531 55 520 c 1,10,-1
 55 738 l 1,11,-1
 140 738 l 1,6,-1
EndSplineSet
EndChar

StartChar: quoteleft
Encoding: 8216 8216 200
Width: 172
Flags: W
HStem: 515 218<77.1641 119>
VStem: 34 85<515 687.459>
LayerCount: 2
Fore
SplineSet
34 515 m 1,0,-1
 34 615 l 2,1,2
 34 657 34 657 57.5 689.5 c 128,-1,3
 81 722 81 722 119 733 c 1,4,-1
 119 515 l 1,5,-1
 34 515 l 1,0,-1
EndSplineSet
EndChar

StartChar: quoteright
Encoding: 8217 8217 201
Width: 169
Flags: W
HStem: 520 218<55 95.9766>
VStem: 55 84<565.541 738>
LayerCount: 2
Fore
SplineSet
139 738 m 1,0,-1
 139 638 l 2,1,2
 139 596 139 596 115.5 563.5 c 128,-1,3
 92 531 92 531 55 520 c 1,4,-1
 55 738 l 1,5,-1
 139 738 l 1,0,-1
EndSplineSet
EndChar

StartChar: quotesingle
Encoding: 39 39 202
Width: 229
Flags: W
HStem: 594 143<60 144>
VStem: 60 84<594 737>
LayerCount: 2
Fore
SplineSet
144 594 m 1,0,-1
 60 594 l 1,1,-1
 60 737 l 1,2,-1
 144 737 l 1,3,-1
 144 594 l 1,0,-1
EndSplineSet
EndChar

StartChar: r
Encoding: 114 114 203
Width: 524
Flags: W
HStem: 0 21G<53 137> 510 84<141.36 511>
VStem: 53 84<0 505.567>
LayerCount: 2
Fore
SplineSet
511 594 m 1,0,-1
 511 510 l 1,1,-1
 177 510 l 2,2,3
 161 510 161 510 149 498 c 128,-1,4
 137 486 137 486 137 470 c 2,5,-1
 137 0 l 1,6,-1
 53 0 l 1,7,-1
 53 470 l 2,8,9
 53 496 53 496 63 518.5 c 128,-1,10
 73 541 73 541 89.5 557.5 c 128,-1,11
 106 574 106 574 129 584 c 128,-1,12
 152 594 152 594 177 594 c 2,13,-1
 511 594 l 1,0,-1
EndSplineSet
Substitution2: "'smcp' Lowercase to Small Capitals in Latin lookup 3 subtable" r.sc
Substitution2: "'aalt' Access All Alternates in Latin lookup 0 subtable" r.sc
EndChar

StartChar: r.sc
Encoding: 65576 -1 204
Width: 716
Flags: W
HStem: 0 21G<55 139 533.122 663> 213 84<143.23 322 426 570.904> 510 84<143.23 570.832>
VStem: 55 84<0 213 301.23 505.77> 575 84<301.433 505.567>
LayerCount: 2
Fore
SplineSet
659 337 m 2,0,1
 659 311 659 311 649.5 288.5 c 128,-1,2
 640 266 640 266 623.5 249 c 128,-1,3
 607 232 607 232 584 222.5 c 128,-1,4
 561 213 561 213 536 213 c 2,5,-1
 426 213 l 1,6,-1
 663 0 l 1,7,-1
 555 0 l 1,8,-1
 322 213 l 1,9,-1
 139 213 l 1,10,-1
 139 0 l 1,11,-1
 55 0 l 1,12,-1
 55 594 l 1,13,-1
 536 594 l 2,14,15
 562 594 562 594 584.5 584 c 128,-1,16
 607 574 607 574 623.5 557.5 c 128,-1,17
 640 541 640 541 649.5 518.5 c 128,-1,18
 659 496 659 496 659 470 c 2,19,-1
 659 337 l 2,0,1
536 297 m 2,20,21
 552 297 552 297 563.5 309 c 128,-1,22
 575 321 575 321 575 337 c 2,23,-1
 575 470 l 2,24,25
 575 486 575 486 563.5 498 c 128,-1,26
 552 510 552 510 536 510 c 2,27,-1
 179 510 l 2,28,29
 163 510 163 510 151 498 c 128,-1,30
 139 486 139 486 139 470 c 2,31,-1
 139 337 l 2,32,33
 139 321 139 321 151 309 c 128,-1,34
 163 297 163 297 179 297 c 2,35,-1
 536 297 l 2,20,21
EndSplineSet
EndChar

StartChar: ring
Encoding: 730 730 205
Width: 238
Flags: W
HStem: 848 41<77.4991 162.889> 971 41<77.3086 162.889>
VStem: 36 41<889.466 970.691> 163 41<889.005 970.691>
LayerCount: 2
Fore
SplineSet
148 1012 m 2,0,1
 172 1012 172 1012 188 996 c 128,-1,2
 204 980 204 980 204 957 c 2,3,-1
 204 902 l 2,4,5
 204 879 204 879 188 863.5 c 128,-1,6
 172 848 172 848 148 848 c 2,7,-1
 91 848 l 2,8,9
 67 848 67 848 51.5 864 c 128,-1,10
 36 880 36 880 36 902 c 2,11,-1
 36 957 l 2,12,13
 36 980 36 980 52 996 c 128,-1,14
 68 1012 68 1012 91 1012 c 2,15,-1
 148 1012 l 2,0,1
154 889 m 2,16,17
 163 889 163 889 163 899 c 2,18,-1
 163 961 l 2,19,20
 163 971 163 971 154 971 c 2,21,-1
 86 971 l 2,22,23
 77 971 77 971 77 961 c 2,24,-1
 77 899 l 2,25,26
 77 889 77 889 86 889 c 2,27,-1
 154 889 l 2,16,17
EndSplineSet
EndChar

StartChar: s
Encoding: 115 115 206
Width: 702
Flags: W
HStem: 0 84<137.433 564.77> 255 84<137.433 557.139> 510 84<137.433 557.139>
VStem: 49 84<88.4331 132 343.433 505.567> 569 85<88.4331 242.624 462 497.624>
CounterMasks: 1 e0
LayerCount: 2
Fore
SplineSet
654 462 m 1,0,-1
 569 462 l 1,1,-1
 569 470 l 2,2,3
 569 486 569 486 557.5 498 c 128,-1,4
 546 510 546 510 529 510 c 2,5,-1
 173 510 l 2,6,7
 157 510 157 510 145 498 c 128,-1,8
 133 486 133 486 133 470 c 2,9,-1
 133 379 l 2,10,11
 133 363 133 363 145 351 c 128,-1,12
 157 339 157 339 173 339 c 2,13,-1
 529 339 l 2,14,15
 555 339 555 339 578 329 c 128,-1,16
 601 319 601 319 618 302.5 c 128,-1,17
 635 286 635 286 644.5 263.5 c 128,-1,18
 654 241 654 241 654 215 c 2,19,-1
 654 124 l 2,20,21
 654 98 654 98 644.5 75.5 c 128,-1,22
 635 53 635 53 618 36 c 128,-1,23
 601 19 601 19 578 9.5 c 128,-1,24
 555 0 555 0 529 0 c 2,25,-1
 173 0 l 2,26,27
 147 0 147 0 124.5 9.5 c 128,-1,28
 102 19 102 19 85.5 36 c 128,-1,29
 69 53 69 53 59 75.5 c 128,-1,30
 49 98 49 98 49 124 c 2,31,-1
 49 132 l 1,32,-1
 133 132 l 1,33,-1
 133 124 l 2,34,35
 133 108 133 108 145 96 c 128,-1,36
 157 84 157 84 173 84 c 2,37,-1
 529 84 l 2,38,39
 545 84 545 84 557 96 c 128,-1,40
 569 108 569 108 569 124 c 2,41,-1
 569 215 l 2,42,43
 569 231 569 231 557.5 243 c 128,-1,44
 546 255 546 255 529 255 c 2,45,-1
 173 255 l 2,46,47
 147 255 147 255 124.5 264.5 c 128,-1,48
 102 274 102 274 85.5 291 c 128,-1,49
 69 308 69 308 59 330.5 c 128,-1,50
 49 353 49 353 49 379 c 2,51,-1
 49 470 l 2,52,53
 49 496 49 496 59 518.5 c 128,-1,54
 69 541 69 541 85.5 557.5 c 128,-1,55
 102 574 102 574 124.5 584 c 128,-1,56
 147 594 147 594 173 594 c 2,57,-1
 529 594 l 2,58,59
 555 594 555 594 578 584 c 128,-1,60
 601 574 601 574 618 557.5 c 128,-1,61
 635 541 635 541 644.5 518.5 c 128,-1,62
 654 496 654 496 654 470 c 2,63,-1
 654 462 l 1,0,-1
EndSplineSet
Substitution2: "'smcp' Lowercase to Small Capitals in Latin lookup 3 subtable" s.sc
Substitution2: "'aalt' Access All Alternates in Latin lookup 0 subtable" s.sc
EndChar

StartChar: s.sc
Encoding: 65577 -1 207
Width: 703
Flags: W
HStem: 0 84<138.433 565.77> 255 84<138.433 558.139> 510 84<138.433 558.139>
VStem: 50 84<88.4331 142 343.433 505.567> 570 85<88.4331 242.624 452 497.624>
CounterMasks: 1 e0
LayerCount: 2
Fore
SplineSet
655 452 m 1,0,-1
 570 452 l 1,1,-1
 570 470 l 2,2,3
 570 486 570 486 558.5 498 c 128,-1,4
 547 510 547 510 530 510 c 2,5,-1
 174 510 l 2,6,7
 158 510 158 510 146 498 c 128,-1,8
 134 486 134 486 134 470 c 2,9,-1
 134 379 l 2,10,11
 134 363 134 363 146 351 c 128,-1,12
 158 339 158 339 174 339 c 2,13,-1
 530 339 l 2,14,15
 556 339 556 339 579 329 c 128,-1,16
 602 319 602 319 619 302.5 c 128,-1,17
 636 286 636 286 645.5 263.5 c 128,-1,18
 655 241 655 241 655 215 c 2,19,-1
 655 124 l 2,20,21
 655 98 655 98 645.5 75.5 c 128,-1,22
 636 53 636 53 619 36 c 128,-1,23
 602 19 602 19 579 9.5 c 128,-1,24
 556 0 556 0 530 0 c 2,25,-1
 174 0 l 2,26,27
 148 0 148 0 125.5 9.5 c 128,-1,28
 103 19 103 19 86.5 36 c 128,-1,29
 70 53 70 53 60 75.5 c 128,-1,30
 50 98 50 98 50 124 c 2,31,-1
 50 142 l 1,32,-1
 134 142 l 1,33,-1
 134 124 l 2,34,35
 134 108 134 108 146 96 c 128,-1,36
 158 84 158 84 174 84 c 2,37,-1
 530 84 l 2,38,39
 546 84 546 84 558 96 c 128,-1,40
 570 108 570 108 570 124 c 2,41,-1
 570 215 l 2,42,43
 570 231 570 231 558.5 243 c 128,-1,44
 547 255 547 255 530 255 c 2,45,-1
 174 255 l 2,46,47
 148 255 148 255 125.5 264.5 c 128,-1,48
 103 274 103 274 86.5 291 c 128,-1,49
 70 308 70 308 60 330.5 c 128,-1,50
 50 353 50 353 50 379 c 2,51,-1
 50 470 l 2,52,53
 50 496 50 496 60 518.5 c 128,-1,54
 70 541 70 541 86.5 557.5 c 128,-1,55
 103 574 103 574 125.5 584 c 128,-1,56
 148 594 148 594 174 594 c 2,57,-1
 530 594 l 2,58,59
 556 594 556 594 579 584 c 128,-1,60
 602 574 602 574 619 557.5 c 128,-1,61
 636 541 636 541 645.5 518.5 c 128,-1,62
 655 496 655 496 655 470 c 2,63,-1
 655 452 l 1,0,-1
EndSplineSet
EndChar

StartChar: semicolon
Encoding: 59 59 209
Width: 197
Flags: W
HStem: 518 84<52 136>
VStem: 52 84<-87.9902 84 518 602>
LayerCount: 2
Fore
SplineSet
136 518 m 1,0,-1
 52 518 l 1,1,-1
 52 602 l 1,2,-1
 136 602 l 1,3,-1
 136 518 l 1,0,-1
136 84 m 1,4,-1
 136 -16 l 2,5,6
 136 -58 136 -58 112.5 -90 c 128,-1,7
 89 -122 89 -122 52 -134 c 1,8,-1
 52 84 l 1,9,-1
 136 84 l 1,4,-1
EndSplineSet
EndChar

StartChar: seven
Encoding: 55 55 210
Width: 675
Flags: W
HStem: 0 21G<535 618> 653 85<3 530.309>
VStem: 535 83<0 648.77>
LayerCount: 2
Fore
SplineSet
3 653 m 1,0,-1
 3 738 l 1,1,-1
 495 738 l 2,2,3
 521 738 521 738 543 728.5 c 128,-1,4
 565 719 565 719 582 702 c 128,-1,5
 599 685 599 685 608.5 662 c 128,-1,6
 618 639 618 639 618 613 c 2,7,-1
 618 0 l 1,8,-1
 535 0 l 1,9,-1
 535 613 l 2,10,11
 535 629 535 629 523 641 c 128,-1,12
 511 653 511 653 495 653 c 2,13,-1
 3 653 l 1,0,-1
EndSplineSet
Substitution2: "'ss03' Style Set 3 in Latin lookup 6 subtable" seven.alt
Substitution2: "'aalt' Access All Alternates in Latin lookup 0 subtable" seven.alt
EndChar

StartChar: seven.alt
Encoding: 57346 57346 211
Width: 789
Flags: W
HStem: -20 20G<47 55> 0 21G<55 182.965> 653 85<51 611>
LayerCount: 2
Fore
SplineSet
51 0 m 1,0,-1
 55 0 l 1,1,-1
 47 -11 l 1,2,-1
 51 0 l 1,0,-1
792 738 m 1,3,-1
 166 0 l 1,4,-1
 55 0 l 1,5,-1
 611 653 l 1,6,-1
 51 653 l 1,7,-1
 51 738 l 1,8,-1
 792 738 l 1,3,-1
EndSplineSet
EndChar

StartChar: six
Encoding: 54 54 212
Width: 839
Flags: W
HStem: 0 84<146.503 714.567> 341 84<146.456 714.567> 653 85<154.376 674>
VStem: 58 84<88.4331 341 429.23 641.139> 719 84<88.4331 336.77>
LayerCount: 2
Fore
SplineSet
679 425 m 2,0,1
 705 425 705 425 727.5 415.5 c 128,-1,2
 750 406 750 406 766.5 389.5 c 128,-1,3
 783 373 783 373 793 350 c 128,-1,4
 803 327 803 327 803 301 c 2,5,-1
 803 124 l 2,6,7
 803 98 803 98 793 75.5 c 128,-1,8
 783 53 783 53 766.5 36 c 128,-1,9
 750 19 750 19 727.5 9.5 c 128,-1,10
 705 0 705 0 679 0 c 2,11,-1
 182 0 l 2,12,13
 155 0 155 0 133 9.5 c 128,-1,14
 111 19 111 19 94.5 36 c 128,-1,15
 78 53 78 53 68 75.5 c 128,-1,16
 58 98 58 98 58 124 c 2,17,-1
 58 613 l 2,18,19
 58 639 58 639 68 662 c 128,-1,20
 78 685 78 685 94.5 702 c 128,-1,21
 111 719 111 719 133.5 728.5 c 128,-1,22
 156 738 156 738 182 738 c 2,23,-1
 674 738 l 1,24,-1
 674 653 l 1,25,-1
 182 653 l 2,26,27
 166 653 166 653 154 641.5 c 128,-1,28
 142 630 142 630 142 613 c 2,29,-1
 142 466 l 2,30,31
 142 449 142 449 154 437 c 128,-1,32
 166 425 166 425 182 425 c 2,33,-1
 679 425 l 2,0,1
719 301 m 2,34,35
 719 317 719 317 707 329 c 128,-1,36
 695 341 695 341 679 341 c 2,37,-1
 142 341 l 1,38,-1
 142 124 l 2,39,40
 142 108 142 108 154 96 c 128,-1,41
 166 84 166 84 182 84 c 2,42,-1
 679 84 l 2,43,44
 695 84 695 84 707 96 c 128,-1,45
 719 108 719 108 719 124 c 2,46,-1
 719 301 l 2,34,35
EndSplineSet
EndChar

StartChar: slash
Encoding: 47 47 213
Width: 533
Flags: W
HStem: 0 21G<6 22.4184> 717 20G<507.503 524>
LayerCount: 2
Fore
SplineSet
524 737 m 1,0,-1
 524 631 l 1,1,-1
 6 0 l 1,2,-1
 6 109 l 1,3,-1
 524 737 l 1,0,-1
EndSplineSet
EndChar

StartChar: A.alt2
Encoding: 57356 57356 214
Width: 792
Flags: W
HStem: 0 21G<55 140 669.092 797> 207 85<140 442> 718 20G<55 186.992>
VStem: 55 85<0 207 292 644>
LayerCount: 2
Fore
SplineSet
170 738 m 1,0,-1
 797 0 l 1,1,-1
 686 0 l 1,2,-1
 511 207 l 1,3,-1
 140 207 l 1,4,-1
 140 0 l 1,5,-1
 55 0 l 1,6,-1
 55 738 l 1,7,-1
 170 738 l 1,0,-1
140 292 m 1,8,-1
 442 292 l 1,9,-1
 140 644 l 1,10,-1
 140 292 l 1,8,-1
EndSplineSet
EndChar

StartChar: sterling
Encoding: 163 163 215
Width: 751
Flags: W
HStem: 0 84<40 147 232 708> 331 84<40 147 232 593> 652 85<244.376 611.139>
VStem: 147 85<84 331 415 640.139> 623 85<597 639.624>
LayerCount: 2
Fore
SplineSet
623 597 m 1,0,-1
 623 612 l 2,1,2
 623 628 623 628 611.5 640 c 128,-1,3
 600 652 600 652 583 652 c 2,4,-1
 272 652 l 2,5,6
 256 652 256 652 244 640.5 c 128,-1,7
 232 629 232 629 232 612 c 2,8,-1
 232 415 l 1,9,-1
 593 415 l 1,10,-1
 593 331 l 1,11,-1
 232 331 l 1,12,-1
 232 84 l 1,13,-1
 708 84 l 1,14,-1
 708 0 l 1,15,-1
 40 0 l 1,16,-1
 40 84 l 1,17,-1
 147 84 l 1,18,-1
 147 331 l 1,19,-1
 40 331 l 1,20,-1
 40 415 l 1,21,-1
 147 415 l 1,22,-1
 147 612 l 2,23,24
 147 638 147 638 157 661 c 128,-1,25
 167 684 167 684 184 701 c 128,-1,26
 201 718 201 718 223.5 727.5 c 128,-1,27
 246 737 246 737 272 737 c 2,28,-1
 583 737 l 2,29,30
 609 737 609 737 631.5 727.5 c 128,-1,31
 654 718 654 718 671 701 c 128,-1,32
 688 684 688 684 698 661 c 128,-1,33
 708 638 708 638 708 612 c 2,34,-1
 708 597 l 1,35,-1
 623 597 l 1,0,-1
EndSplineSet
EndChar

StartChar: t
Encoding: 116 116 216
Width: 419
Flags: W
HStem: 0 84<142.256 395> 510 84<138 395> 768 20G<54 138>
VStem: 54 84<88.4331 510 594 788>
LayerCount: 2
Fore
SplineSet
138 510 m 1,0,-1
 138 124 l 2,1,2
 138 108 138 108 150 96 c 128,-1,3
 162 84 162 84 178 84 c 2,4,-1
 395 84 l 1,5,-1
 395 0 l 1,6,-1
 178 0 l 2,7,8
 151 0 151 0 128.5 9.5 c 128,-1,9
 106 19 106 19 90 36 c 128,-1,10
 74 53 74 53 64 75.5 c 128,-1,11
 54 98 54 98 54 124 c 2,12,-1
 54 788 l 1,13,-1
 138 788 l 1,14,-1
 138 594 l 1,15,-1
 395 594 l 1,16,-1
 395 510 l 1,17,-1
 138 510 l 1,0,-1
EndSplineSet
Substitution2: "'smcp' Lowercase to Small Capitals in Latin lookup 3 subtable" t.sc
Substitution2: "'aalt' Access All Alternates in Latin lookup 0 subtable" t.sc
EndChar

StartChar: t.sc
Encoding: 65578 -1 217
Width: 659
Flags: W
HStem: 0 21G<289 373> 510 84<23 289 373 638>
VStem: 289 84<0 510>
LayerCount: 2
Fore
SplineSet
638 594 m 1,0,-1
 638 510 l 1,1,-1
 373 510 l 1,2,-1
 373 0 l 1,3,-1
 289 0 l 1,4,-1
 289 510 l 1,5,-1
 23 510 l 1,6,-1
 23 594 l 1,7,-1
 638 594 l 1,0,-1
EndSplineSet
EndChar

StartChar: three
Encoding: 51 51 218
Width: 845
Flags: W
HStem: 0 84<143.503 711.37> 335 84<196 670.624> 653 85<151.376 678.77>
VStem: 54 85<88.4331 140 587 641.139> 683 84<430.861 648.77> 716 84<88.4331 330.707>
LayerCount: 2
Fore
SplineSet
759 387 m 1,0,1
 777 370 777 370 788.5 346 c 128,-1,2
 800 322 800 322 800 295 c 2,3,-1
 800 124 l 2,4,5
 800 98 800 98 790 75.5 c 128,-1,6
 780 53 780 53 763 36 c 128,-1,7
 746 19 746 19 723.5 9.5 c 128,-1,8
 701 0 701 0 676 0 c 2,9,-1
 179 0 l 2,10,11
 152 0 152 0 130 9.5 c 128,-1,12
 108 19 108 19 91 36 c 128,-1,13
 74 53 74 53 64 75.5 c 128,-1,14
 54 98 54 98 54 124 c 2,15,-1
 54 140 l 1,16,-1
 139 140 l 1,17,-1
 139 124 l 2,18,19
 139 108 139 108 151 96 c 128,-1,20
 163 84 163 84 179 84 c 2,21,-1
 676 84 l 2,22,23
 692 84 692 84 704 96 c 128,-1,24
 716 108 716 108 716 124 c 2,25,-1
 716 295 l 2,26,27
 716 311 716 311 704 323 c 128,-1,28
 692 335 692 335 676 335 c 2,29,-1
 196 335 l 1,30,-1
 196 419 l 1,31,-1
 643 419 l 2,32,33
 659 419 659 419 671 430.5 c 128,-1,34
 683 442 683 442 683 459 c 2,35,-1
 683 613 l 2,36,37
 683 629 683 629 671 641 c 128,-1,38
 659 653 659 653 643 653 c 2,39,-1
 179 653 l 2,40,41
 163 653 163 653 151 641.5 c 128,-1,42
 139 630 139 630 139 613 c 2,43,-1
 139 587 l 1,44,-1
 54 587 l 1,45,-1
 54 613 l 2,46,47
 54 639 54 639 64 662 c 128,-1,48
 74 685 74 685 91 702 c 128,-1,49
 108 719 108 719 130.5 728.5 c 128,-1,50
 153 738 153 738 179 738 c 2,51,-1
 643 738 l 2,52,53
 669 738 669 738 692 728.5 c 128,-1,54
 715 719 715 719 731.5 702 c 128,-1,55
 748 685 748 685 757.5 662 c 128,-1,56
 767 639 767 639 767 613 c 2,57,-1
 767 459 l 2,58,59
 767 445 767 445 763.5 431 c 128,-1,60
 760 417 760 417 755 406 c 1,61,-1
 759 387 l 1,0,1
EndSplineSet
EndChar

StartChar: tilde
Encoding: 732 732 219
Width: 412
Flags: W
HStem: 897 49<231.969 370.469> 963 48<24 85.908 87.9988 184.72> 971 49<24.6731 168.597>
LayerCount: 2
Fore
SplineSet
303 946 m 2,0,1
 320 946 320 946 337 950.5 c 128,-1,2
 354 955 354 955 371 964 c 1,3,-1
 371 911 l 1,4,5
 357 906 357 906 339.5 901.5 c 128,-1,6
 322 897 322 897 303 897 c 0,7,8
 275 897 275 897 249.5 908.5 c 128,-1,9
 224 920 224 920 198.5 933.5 c 128,-1,10
 173 947 173 947 146 959 c 128,-1,11
 119 971 119 971 87 971 c 0,12,13
 75 971 75 971 57 969.5 c 128,-1,14
 39 968 39 968 24 963 c 1,15,-1
 24 1011 l 1,16,17
 52 1020 52 1020 87 1020 c 0,18,19
 116 1020 116 1020 142 1009.5 c 128,-1,20
 168 999 168 999 193.5 986.5 c 128,-1,21
 219 974 219 974 245 962 c 128,-1,22
 271 950 271 950 301 946 c 1,23,-1
 303 946 l 2,0,1
EndSplineSet
EndChar

StartChar: two
Encoding: 50 50 220
Width: 849
Flags: W
HStem: 0 84<146.23 803> 316 84<154.376 714.567> 653 85<154.376 714.567>
VStem: 58 84<88.2305 304.139 585 641.139> 719 84<404.691 648.77>
LayerCount: 2
Fore
SplineSet
679 738 m 2,0,1
 705 738 705 738 727.5 728.5 c 128,-1,2
 750 719 750 719 766.5 702 c 128,-1,3
 783 685 783 685 793 662 c 128,-1,4
 803 639 803 639 803 613 c 2,5,-1
 803 440 l 2,6,7
 803 414 803 414 793 392 c 128,-1,8
 783 370 783 370 766.5 353 c 128,-1,9
 750 336 750 336 727.5 326 c 128,-1,10
 705 316 705 316 679 316 c 2,11,-1
 182 316 l 2,12,13
 166 316 166 316 154 304.5 c 128,-1,14
 142 293 142 293 142 276 c 2,15,-1
 142 124 l 2,16,17
 142 108 142 108 154 96 c 128,-1,18
 166 84 166 84 182 84 c 2,19,-1
 803 84 l 1,20,-1
 803 0 l 1,21,-1
 58 0 l 1,22,-1
 58 276 l 2,23,24
 58 302 58 302 68 325 c 128,-1,25
 78 348 78 348 94.5 364.5 c 128,-1,26
 111 381 111 381 133.5 390.5 c 128,-1,27
 156 400 156 400 182 400 c 2,28,-1
 679 400 l 2,29,30
 695 400 695 400 707 412 c 128,-1,31
 719 424 719 424 719 440 c 2,32,-1
 719 613 l 2,33,34
 719 629 719 629 707 641 c 128,-1,35
 695 653 695 653 679 653 c 2,36,-1
 182 653 l 2,37,38
 166 653 166 653 154 641.5 c 128,-1,39
 142 630 142 630 142 613 c 2,40,-1
 142 585 l 1,41,-1
 58 585 l 1,42,-1
 58 613 l 2,43,44
 58 639 58 639 68 662 c 128,-1,45
 78 685 78 685 94.5 702 c 128,-1,46
 111 719 111 719 133.5 728.5 c 128,-1,47
 156 738 156 738 182 738 c 2,48,-1
 679 738 l 2,0,1
EndSplineSet
Substitution2: "'ss03' Style Set 3 in Latin lookup 6 subtable" two.alt
Substitution2: "'aalt' Access All Alternates in Latin lookup 0 subtable" two.alt
EndChar

StartChar: two.alt
Encoding: 57349 57349 221
Width: 834
Flags: W
HStem: 0 84<135.178 794> 653 85<147.376 709.411>
VStem: 50.5 84.5<84.7808 164 570 641.139> 710 84<551 653>
LayerCount: 2
Fore
SplineSet
685 443 m 1,0,-1
 135 164 l 1,1,-1
 135 84 l 1,2,-1
 794 84 l 1,3,-1
 794 0 l 1,4,-1
 173 0 l 2,5,6
 129 0 129 0 95 28.5 c 128,-1,7
 61 57 61 57 51 97 c 1,8,9
 51 127 51 127 50.5 156.5 c 128,-1,10
 50 186 50 186 50 216 c 1,11,-1
 710 551 l 1,12,-1
 710 653 l 1,13,-1
 175 653 l 2,14,15
 159 653 159 653 147 641.5 c 128,-1,16
 135 630 135 630 135 613 c 2,17,-1
 135 570 l 1,18,-1
 50 570 l 1,19,-1
 50 613 l 2,20,21
 50 639 50 639 60 662 c 128,-1,22
 70 685 70 685 86.5 702 c 128,-1,23
 103 719 103 719 125.5 728.5 c 128,-1,24
 148 738 148 738 175 738 c 2,25,-1
 672 738 l 2,26,27
 694 738 694 738 713 729.5 c 128,-1,28
 732 721 732 721 748 706 c 128,-1,29
 764 691 764 691 775.5 672 c 128,-1,30
 787 653 787 653 794 634 c 1,31,-1
 794 500 l 1,32,-1
 685 443 l 1,0,-1
EndSplineSet
EndChar

StartChar: u
Encoding: 117 117 222
Width: 711
Flags: W
HStem: 0 84<142.691 563.139> 574 20G<54 138 575 659>
VStem: 54 84<88.4331 594> 575 84<96.376 594>
LayerCount: 2
Fore
SplineSet
659 594 m 1,0,-1
 659 124 l 2,1,2
 659 98 659 98 649.5 75.5 c 128,-1,3
 640 53 640 53 623 36 c 128,-1,4
 606 19 606 19 583 9.5 c 128,-1,5
 560 0 560 0 535 0 c 2,6,-1
 178 0 l 2,7,8
 152 0 152 0 130 9.5 c 128,-1,9
 108 19 108 19 91 36 c 128,-1,10
 74 53 74 53 64 75.5 c 128,-1,11
 54 98 54 98 54 124 c 2,12,-1
 54 594 l 1,13,-1
 138 594 l 1,14,-1
 138 124 l 2,15,16
 138 108 138 108 150 96 c 128,-1,17
 162 84 162 84 178 84 c 2,18,-1
 535 84 l 2,19,20
 552 84 552 84 563.5 96 c 128,-1,21
 575 108 575 108 575 124 c 2,22,-1
 575 594 l 1,23,-1
 659 594 l 1,0,-1
EndSplineSet
Substitution2: "'smcp' Lowercase to Small Capitals in Latin lookup 3 subtable" u.sc
Substitution2: "'aalt' Access All Alternates in Latin lookup 0 subtable" u.sc
EndChar

StartChar: u.sc
Encoding: 65579 -1 223
Width: 711
Flags: W
HStem: 0 84<142.691 563.139> 574 20G<54 138 575 659>
VStem: 54 84<88.4331 594> 575 84<96.376 594>
LayerCount: 2
Fore
SplineSet
575 594 m 1,0,-1
 659 594 l 1,1,-1
 659 124 l 2,2,3
 659 98 659 98 649.5 75.5 c 128,-1,4
 640 53 640 53 623 36 c 128,-1,5
 606 19 606 19 583 9.5 c 128,-1,6
 560 0 560 0 535 0 c 2,7,-1
 178 0 l 2,8,9
 152 0 152 0 130 9.5 c 128,-1,10
 108 19 108 19 91 36 c 128,-1,11
 74 53 74 53 64 75.5 c 128,-1,12
 54 98 54 98 54 124 c 2,13,-1
 54 594 l 1,14,-1
 138 594 l 1,15,-1
 138 124 l 2,16,17
 138 108 138 108 150 96 c 128,-1,18
 162 84 162 84 178 84 c 2,19,-1
 535 84 l 2,20,21
 552 84 552 84 563.5 96 c 128,-1,22
 575 108 575 108 575 124 c 2,23,-1
 575 594 l 1,0,-1
EndSplineSet
EndChar

StartChar: underscore
Encoding: 95 95 228
Width: 847
Flags: W
HStem: -84 84<55 801>
LayerCount: 2
Fore
SplineSet
801 -84 m 1,0,-1
 55 -84 l 1,1,-1
 55 0 l 1,2,-1
 801 0 l 1,3,-1
 801 -84 l 1,0,-1
EndSplineSet
EndChar

StartChar: v
Encoding: 118 118 230
Width: 808
Flags: W
HStem: 0 21G<308 457.077> 574 20G<22 130.859 666.102 775>
LayerCount: 2
Fore
SplineSet
775 594 m 1,0,-1
 446 0 l 1,1,-1
 349 0 l 1,2,3
 267 151 267 151 185 297.5 c 128,-1,4
 103 444 103 444 22 594 c 1,5,-1
 120 594 l 1,6,-1
 398 82 l 1,7,-1
 677 594 l 1,8,-1
 775 594 l 1,0,-1
EndSplineSet
Substitution2: "'smcp' Lowercase to Small Capitals in Latin lookup 3 subtable" v.sc
Substitution2: "'salt' Stylistic Alternatives in Latin lookup 2 subtable" v.alt
AlternateSubs2: "'aalt' Access All Alternates in Latin lookup 1 subtable" v.sc v.alt
EndChar

StartChar: v.alt
Encoding: 65580 -1 231
Width: 713
Flags: W
HStem: 0 84<142.691 575> 574 20G<54 138 575 659>
VStem: 54 84<88.4331 594> 575 84<84 594>
LayerCount: 2
Fore
SplineSet
659 594 m 1,0,-1
 659 0 l 1,1,-1
 178 0 l 2,2,3
 152 0 152 0 130 9.5 c 128,-1,4
 108 19 108 19 91 36 c 128,-1,5
 74 53 74 53 64 75.5 c 128,-1,6
 54 98 54 98 54 124 c 2,7,-1
 54 594 l 1,8,-1
 138 594 l 1,9,-1
 138 124 l 2,10,11
 138 108 138 108 150 96 c 128,-1,12
 162 84 162 84 178 84 c 2,13,-1
 575 84 l 1,14,-1
 575 594 l 1,15,-1
 659 594 l 1,0,-1
EndSplineSet
EndChar

StartChar: v.sc
Encoding: 65581 -1 232
Width: 820
Flags: W
HStem: 0 21G<314 464.212> 574 20G<22 132.076 676.885 786>
LayerCount: 2
Fore
SplineSet
688 594 m 1,0,-1
 786 594 l 1,1,-1
 453 0 l 1,2,-1
 356 0 l 1,3,4
 272 151 272 151 188 297.5 c 128,-1,5
 104 444 104 444 22 594 c 1,6,-1
 121 594 l 1,7,-1
 404 83 l 1,8,-1
 688 594 l 1,0,-1
EndSplineSet
EndChar

StartChar: w
Encoding: 119 119 233
Width: 1096
Flags: W
HStem: 0 21G<239 351.571 764.98 854.542> 574 20G<36 134.145 489.312 617.252 972.381 1071>
LayerCount: 2
Fore
SplineSet
1071 594 m 1,0,-1
 847 0 l 1,1,-1
 774 0 l 1,2,-1
 553 490 l 1,3,-1
 343 0 l 1,4,-1
 269 0 l 1,5,6
 209 153 209 153 152 297.5 c 128,-1,7
 95 442 95 442 36 594 c 1,8,-1
 126 594 l 1,9,-1
 306 152 l 1,10,-1
 498 594 l 1,11,-1
 608 594 l 1,12,-1
 812 153 l 1,13,-1
 980 594 l 1,14,-1
 1071 594 l 1,0,-1
EndSplineSet
Substitution2: "'smcp' Lowercase to Small Capitals in Latin lookup 3 subtable" w.sc
Substitution2: "'salt' Stylistic Alternatives in Latin lookup 2 subtable" w.alt
AlternateSubs2: "'aalt' Access All Alternates in Latin lookup 1 subtable" w.sc w.alt
EndChar

StartChar: w.alt
Encoding: 65582 -1 234
Width: 1001
Flags: W
HStem: 0 84<142.771 461.77 561.861 874.77> 574 20G<54 138 466 550 879 963>
VStem: 54 84<88.4561 594> 466 84<96.376 594> 879 84<88.2305 594>
LayerCount: 2
Fore
SplineSet
179 0 m 2,0,1
 152 0 152 0 130 9.5 c 128,-1,2
 108 19 108 19 91 36 c 128,-1,3
 74 53 74 53 64 75.5 c 128,-1,4
 54 98 54 98 54 124 c 2,5,-1
 54 594 l 1,6,-1
 138 594 l 1,7,-1
 138 124 l 2,8,9
 138 108 138 108 150 96 c 128,-1,10
 162 84 162 84 179 84 c 2,11,-1
 426 84 l 2,12,13
 442 84 442 84 454 96 c 128,-1,14
 466 108 466 108 466 124 c 2,15,-1
 466 594 l 1,16,-1
 550 594 l 1,17,-1
 550 124 l 2,18,19
 550 108 550 108 561.5 96 c 128,-1,20
 573 84 573 84 590 84 c 2,21,-1
 839 84 l 2,22,23
 855 84 855 84 867 96 c 128,-1,24
 879 108 879 108 879 124 c 2,25,-1
 879 594 l 1,26,-1
 963 594 l 1,27,-1
 963 0 l 1,28,-1
 179 0 l 2,0,1
EndSplineSet
EndChar

StartChar: w.sc
Encoding: 65583 -1 235
Width: 1103
Flags: W
HStem: 0 21G<241.5 354.787 767.753 866> 574 20G<35 133.299 496.066 616.455 977.5 1077>
LayerCount: 2
Fore
SplineSet
1077 594 m 1,0,1
 1047 517 1047 517 1019 443.5 c 128,-1,2
 991 370 991 370 963.5 296.5 c 128,-1,3
 936 223 936 223 908.5 150 c 128,-1,4
 881 77 881 77 851 0 c 1,5,-1
 777 0 l 1,6,-1
 556 478 l 1,7,-1
 346 0 l 1,8,-1
 272 0 l 1,9,10
 211 153 211 153 153 297 c 128,-1,11
 95 441 95 441 35 594 c 1,12,-1
 125 594 l 1,13,-1
 308 153 l 1,14,-1
 505 594 l 1,15,-1
 607 594 l 1,16,-1
 815 154 l 1,17,18
 834 204 834 204 856.5 260 c 128,-1,19
 879 316 879 316 901.5 373 c 128,-1,20
 924 430 924 430 946 486.5 c 128,-1,21
 968 543 968 543 987 594 c 1,22,-1
 1077 594 l 1,0,1
EndSplineSet
EndChar

StartChar: x
Encoding: 120 120 236
Width: 708
Flags: W
HStem: 0 21G<47 181 527.697 654> 574 20G<47 175.067 532.5 653>
LayerCount: 2
Fore
SplineSet
653 594 m 1,0,-1
 406 302 l 1,1,-1
 654 0 l 1,2,-1
 544 0 l 1,3,-1
 350 238 l 1,4,5
 305 183 305 183 254.5 119 c 128,-1,6
 204 55 204 55 158 0 c 1,7,-1
 47 0 l 1,8,-1
 295 302 l 1,9,-1
 47 594 l 1,10,-1
 158 594 l 1,11,-1
 350 369 l 1,12,13
 372 395 372 395 396.5 423.5 c 128,-1,14
 421 452 421 452 446 481 c 128,-1,15
 471 510 471 510 496 539 c 128,-1,16
 521 568 521 568 544 594 c 1,17,-1
 653 594 l 1,0,-1
EndSplineSet
Substitution2: "'smcp' Lowercase to Small Capitals in Latin lookup 3 subtable" x.sc
Substitution2: "'salt' Stylistic Alternatives in Latin lookup 2 subtable" x.alt
AlternateSubs2: "'aalt' Access All Alternates in Latin lookup 1 subtable" x.sc x.alt
EndChar

StartChar: x.alt
Encoding: 65584 -1 237
Width: 714
Flags: W
HStem: 0 21G<55 139 577 660> 255 84<143.23 564.624> 574 20G<55 139 577 660>
VStem: 55 84<0 250.483 343.562 594> 577 83<0 250.438 350.861 594>
LayerCount: 2
Fore
SplineSet
660 379 m 2,0,1
 660 359 660 359 652.5 337.5 c 128,-1,2
 645 316 645 316 631 297 c 1,3,4
 645 278 645 278 652.5 257 c 128,-1,5
 660 236 660 236 660 215 c 2,6,-1
 660 0 l 1,7,-1
 577 0 l 1,8,-1
 577 215 l 2,9,10
 577 231 577 231 565 243 c 128,-1,11
 553 255 553 255 537 255 c 2,12,-1
 180 255 l 2,13,14
 163 255 163 255 151 243 c 128,-1,15
 139 231 139 231 139 215 c 2,16,-1
 139 0 l 1,17,-1
 55 0 l 1,18,-1
 55 215 l 2,19,20
 55 235 55 235 63 256.5 c 128,-1,21
 71 278 71 278 85 297 c 1,22,23
 71 316 71 316 63 337 c 128,-1,24
 55 358 55 358 55 379 c 2,25,-1
 55 594 l 1,26,-1
 139 594 l 1,27,-1
 139 379 l 2,28,29
 139 363 139 363 151 351 c 128,-1,30
 163 339 163 339 180 339 c 2,31,-1
 537 339 l 2,32,33
 553 339 553 339 565 350.5 c 128,-1,34
 577 362 577 362 577 379 c 2,35,-1
 577 594 l 1,36,-1
 660 594 l 1,37,-1
 660 379 l 2,0,1
EndSplineSet
EndChar

StartChar: x.sc
Encoding: 65585 -1 238
Width: 708
Flags: W
HStem: 0 21G<47 181 527.766 654> 574 20G<47 175.143 525.768 653>
LayerCount: 2
Fore
SplineSet
653 594 m 1,0,-1
 406 303 l 1,1,-1
 654 0 l 1,2,-1
 544 0 l 1,3,-1
 350 239 l 1,4,5
 305 184 305 184 254.5 120 c 128,-1,6
 204 56 204 56 158 0 c 1,7,-1
 47 0 l 1,8,-1
 295 303 l 1,9,-1
 47 594 l 1,10,-1
 158 594 l 1,11,-1
 350 370 l 1,12,-1
 543 594 l 1,13,-1
 653 594 l 1,0,-1
EndSplineSet
EndChar

StartChar: y
Encoding: 121 121 239
Width: 701
Flags: W
HStem: -236 85<153 558.77> 0 84<131.433 558.77> 572 20G<43 127 563 647>
VStem: 43 84<88.4331 592> 563 84<-146.497 0 88.2305 592>
LayerCount: 2
Fore
SplineSet
647 -111 m 2,0,1
 647 -138 647 -138 637.5 -160 c 128,-1,2
 628 -182 628 -182 611.5 -199 c 128,-1,3
 595 -216 595 -216 572 -226 c 128,-1,4
 549 -236 549 -236 523 -236 c 2,5,-1
 153 -236 l 1,6,-1
 153 -151 l 1,7,-1
 523 -151 l 2,8,9
 539 -151 539 -151 551 -139 c 128,-1,10
 563 -127 563 -127 563 -111 c 2,11,-1
 563 0 l 1,12,-1
 167 0 l 2,13,14
 141 0 141 0 118.5 9.5 c 128,-1,15
 96 19 96 19 79 36 c 128,-1,16
 62 53 62 53 52.5 75.5 c 128,-1,17
 43 98 43 98 43 124 c 2,18,-1
 43 592 l 1,19,-1
 127 592 l 1,20,-1
 127 124 l 2,21,22
 127 108 127 108 139 96 c 128,-1,23
 151 84 151 84 167 84 c 2,24,-1
 523 84 l 2,25,26
 539 84 539 84 551 96 c 128,-1,27
 563 108 563 108 563 124 c 2,28,-1
 563 592 l 1,29,-1
 647 592 l 1,30,-1
 647 -111 l 2,0,1
EndSplineSet
Substitution2: "'smcp' Lowercase to Small Capitals in Latin lookup 3 subtable" y.sc
Substitution2: "'aalt' Access All Alternates in Latin lookup 0 subtable" y.sc
EndChar

StartChar: y.sc
Encoding: 65586 -1 240
Width: 704
Flags: W
HStem: 0 21G<297 382> 574 20G<18 132.31 545.69 660>
VStem: 297 85<0 205>
LayerCount: 2
Fore
SplineSet
660 594 m 1,0,-1
 382 205 l 1,1,-1
 382 0 l 1,2,-1
 297 0 l 1,3,-1
 297 205 l 1,4,-1
 18 594 l 1,5,-1
 117 594 l 1,6,-1
 339 304 l 1,7,-1
 561 594 l 1,8,-1
 660 594 l 1,0,-1
EndSplineSet
EndChar

StartChar: z
Encoding: 122 122 243
Width: 714
Flags: W
HStem: 0 84<147 660> 510 84<55 568>
LayerCount: 2
Fore
SplineSet
55 594 m 1,0,-1
 660 594 l 1,1,-1
 660 479 l 1,2,-1
 147 84 l 1,3,-1
 660 84 l 1,4,-1
 660 0 l 1,5,-1
 55 0 l 1,6,-1
 55 115 l 1,7,-1
 568 510 l 1,8,-1
 55 510 l 1,9,-1
 55 594 l 1,0,-1
EndSplineSet
Substitution2: "'smcp' Lowercase to Small Capitals in Latin lookup 3 subtable" z.sc
Substitution2: "'salt' Stylistic Alternatives in Latin lookup 2 subtable" z.alt
AlternateSubs2: "'aalt' Access All Alternates in Latin lookup 1 subtable" z.sc z.alt
EndChar

StartChar: z.alt
Encoding: 65587 -1 244
Width: 708
Flags: W
HStem: 0 84<140.433 657> 255 84<140.36 560.139> 510 84<52 560.655>
VStem: 52 84<88.4331 250.567> 572 85<350.861 497.624>
CounterMasks: 1 e0
LayerCount: 2
Fore
SplineSet
176 255 m 2,0,1
 160 255 160 255 148 243 c 128,-1,2
 136 231 136 231 136 215 c 2,3,-1
 136 124 l 2,4,5
 136 108 136 108 148 96 c 128,-1,6
 160 84 160 84 176 84 c 2,7,-1
 657 84 l 1,8,-1
 657 0 l 1,9,-1
 176 0 l 2,10,11
 150 0 150 0 127.5 9.5 c 128,-1,12
 105 19 105 19 88.5 36 c 128,-1,13
 72 53 72 53 62 75.5 c 128,-1,14
 52 98 52 98 52 124 c 2,15,-1
 52 215 l 2,16,17
 52 241 52 241 62 263.5 c 128,-1,18
 72 286 72 286 88.5 302.5 c 128,-1,19
 105 319 105 319 128 329 c 128,-1,20
 151 339 151 339 176 339 c 2,21,-1
 532 339 l 2,22,23
 549 339 549 339 560.5 350.5 c 128,-1,24
 572 362 572 362 572 379 c 2,25,-1
 572 470 l 2,26,27
 572 486 572 486 561 498 c 128,-1,28
 550 510 550 510 532 510 c 2,29,-1
 52 510 l 1,30,-1
 52 594 l 1,31,-1
 532 594 l 2,32,33
 558 594 558 594 581 584 c 128,-1,34
 604 574 604 574 621 557.5 c 128,-1,35
 638 541 638 541 647.5 518.5 c 128,-1,36
 657 496 657 496 657 470 c 2,37,-1
 657 379 l 2,38,39
 657 353 657 353 647.5 330.5 c 128,-1,40
 638 308 638 308 621 291 c 128,-1,41
 604 274 604 274 581 264.5 c 128,-1,42
 558 255 558 255 532 255 c 2,43,-1
 176 255 l 2,0,1
EndSplineSet
EndChar

StartChar: z.sc
Encoding: 65588 -1 245
Width: 714
Flags: W
HStem: 0 84<147 660> 510 84<55 568>
LayerCount: 2
Fore
SplineSet
55 594 m 1,0,-1
 660 594 l 1,1,-1
 660 479 l 1,2,-1
 147 84 l 1,3,-1
 660 84 l 1,4,-1
 660 0 l 1,5,-1
 55 0 l 1,6,-1
 55 115 l 1,7,-1
 568 510 l 1,8,-1
 55 510 l 1,9,-1
 55 594 l 1,0,-1
EndSplineSet
EndChar

StartChar: zero
Encoding: 48 48 247
Width: 854
Flags: W
HStem: 0 84<153.207 714.567> 652 85<154.376 707.893>
VStem: 58 84<185 640.139> 719 84<88.4331 551>
LayerCount: 2
Fore
SplineSet
679 737 m 2,0,1
 705 737 705 737 727.5 727.5 c 128,-1,2
 750 718 750 718 766.5 701 c 128,-1,3
 783 684 783 684 793 661 c 128,-1,4
 803 638 803 638 803 612 c 2,5,-1
 803 124 l 2,6,7
 803 98 803 98 793 75.5 c 128,-1,8
 783 53 783 53 766.5 36 c 128,-1,9
 750 19 750 19 727.5 9.5 c 128,-1,10
 705 0 705 0 679 0 c 2,11,-1
 182 0 l 2,12,13
 155 0 155 0 133 9.5 c 128,-1,14
 111 19 111 19 94.5 36 c 128,-1,15
 78 53 78 53 68 75.5 c 128,-1,16
 58 98 58 98 58 124 c 2,17,-1
 58 612 l 2,18,19
 58 638 58 638 68 661 c 128,-1,20
 78 684 78 684 94.5 701 c 128,-1,21
 111 718 111 718 133.5 727.5 c 128,-1,22
 156 737 156 737 182 737 c 2,23,-1
 679 737 l 2,0,1
182 652 m 2,24,25
 166 652 166 652 154 640.5 c 128,-1,26
 142 629 142 629 142 612 c 2,27,-1
 142 185 l 1,28,-1
 708 652 l 1,29,-1
 182 652 l 2,24,25
679 84 m 2,30,31
 695 84 695 84 707 96 c 128,-1,32
 719 108 719 108 719 124 c 2,33,-1
 719 551 l 1,34,-1
 153 84 l 1,35,-1
 679 84 l 2,30,31
EndSplineSet
EndChar

StartChar: A
Encoding: 65 65 248
Width: 856
Flags: W
HStem: 0 21G<59 142 714 797> 269 83<142 714> 654 83<154.376 709.309>
VStem: 59 83<0 269 352 642.139> 714 83<0 269 352 649.567>
LayerCount: 2
Fore
SplineSet
674 737 m 2,0,1
 700 737 700 737 722 727.5 c 128,-1,2
 744 718 744 718 760.5 701.5 c 128,-1,3
 777 685 777 685 787 662.5 c 128,-1,4
 797 640 797 640 797 614 c 2,5,-1
 797 0 l 1,6,-1
 714 0 l 1,7,-1
 714 269 l 1,8,-1
 142 269 l 1,9,-1
 142 0 l 1,10,-1
 59 0 l 1,11,-1
 59 614 l 2,12,13
 59 640 59 640 69 662.5 c 128,-1,14
 79 685 79 685 95.5 701.5 c 128,-1,15
 112 718 112 718 134.5 727.5 c 128,-1,16
 157 737 157 737 182 737 c 2,17,-1
 674 737 l 2,0,1
714 352 m 1,18,-1
 714 614 l 2,19,20
 714 630 714 630 702 642 c 128,-1,21
 690 654 690 654 674 654 c 2,22,-1
 182 654 l 2,23,24
 166 654 166 654 154 642.5 c 128,-1,25
 142 631 142 631 142 614 c 2,26,-1
 142 352 l 1,27,-1
 714 352 l 1,18,-1
EndSplineSet
Substitution2: "'ss02' Style Set 2 in Latin lookup 5 subtable" A.alt2
Substitution2: "'ss01' Style Set 1 in Latin lookup 4 subtable" A.alt
AlternateSubs2: "'aalt' Access All Alternates in Latin lookup 1 subtable" A.alt A.alt2
EndChar
